<?xml version="1.0" encoding="UTF-8" standalone="no"?>
<!-- Generator: Adobe Illustrator 19.1.1, SVG Export Plug-In . SVG Version: 6.00 Build 0)  -->

<svg
   xmlns:dc="http://purl.org/dc/elements/1.1/"
   xmlns:cc="http://creativecommons.org/ns#"
   xmlns:rdf="http://www.w3.org/1999/02/22-rdf-syntax-ns#"
   xmlns:svg="http://www.w3.org/2000/svg"
   xmlns="http://www.w3.org/2000/svg"
   xmlns:sodipodi="http://sodipodi.sourceforge.net/DTD/sodipodi-0.dtd"
   xmlns:inkscape="http://www.inkscape.org/namespaces/inkscape"
   version="1.1"
   id="Layer_1"
   x="0px"
   y="0px"
   viewBox="0 0 40 40"
   xml:space="preserve"
   sodipodi:docname="add-layers.svg"
   width="40"
   height="40"
   inkscape:version="0.92.4 (5da689c313, 2019-01-14)"><metadata
   id="metadata11"><rdf:RDF><cc:Work
       rdf:about=""><dc:format>image/svg+xml</dc:format><dc:type
         rdf:resource="http://purl.org/dc/dcmitype/StillImage" /><dc:title></dc:title></cc:Work></rdf:RDF></metadata><defs
   id="defs9" /><sodipodi:namedview
   pagecolor="#ffffff"
   bordercolor="#666666"
   borderopacity="1"
   objecttolerance="10"
   gridtolerance="10"
   guidetolerance="10"
   inkscape:pageopacity="0"
   inkscape:pageshadow="2"
   inkscape:window-width="1920"
   inkscape:window-height="1017"
   id="namedview7"
   showgrid="false"
   inkscape:zoom="9.8333333"
   inkscape:cx="12"
   inkscape:cy="12"
   inkscape:window-x="-8"
   inkscape:window-y="-8"
   inkscape:window-maximized="1"
   inkscape:current-layer="Layer_1" />
<path
   style="fill:#ffffff;fill-opacity:1"
   d="M 0 0.033203125 L 0 40.203125 L 40.169922 40.203125 L 40.169922 0.033203125 L 0 0.033203125 z M 18.042969 8.6777344 L 22.042969 8.6777344 C 22.342969 8.6777344 22.542969 8.8777344 22.542969 9.1777344 L 22.542969 17.677734 L 31.042969 17.677734 C 31.342969 17.677734 31.542969 17.877734 31.542969 18.177734 L 31.542969 22.177734 C 31.542969 22.477734 31.342969 22.677734 31.042969 22.677734 L 22.542969 22.677734 L 22.542969 31.177734 C 22.542969 31.477734 22.342969 31.677734 22.042969 31.677734 L 18.042969 31.677734 C 17.742969 31.677734 17.542969 31.477734 17.542969 31.177734 L 17.542969 22.677734 L 9.0429688 22.677734 C 8.7429687 22.677734 8.5429688 22.477734 8.5429688 22.177734 L 8.5429688 18.177734 C 8.5429688 17.877734 8.7429687 17.677734 9.0429688 17.677734 L 17.542969 17.677734 L 17.542969 9.1777344 C 17.542969 8.8777344 17.742969 8.6777344 18.042969 8.6777344 z "
   id="path4" />
</svg>