<?xml version="1.0" encoding="UTF-8" standalone="no"?>
<!-- Generator: Adobe Illustrator 19.1.1, SVG Export Plug-In . SVG Version: 6.00 Build 0)  -->

<svg
   xmlns:dc="http://purl.org/dc/elements/1.1/"
   xmlns:cc="http://creativecommons.org/ns#"
   xmlns:rdf="http://www.w3.org/1999/02/22-rdf-syntax-ns#"
   xmlns:svg="http://www.w3.org/2000/svg"
   xmlns="http://www.w3.org/2000/svg"
   xmlns:sodipodi="http://sodipodi.sourceforge.net/DTD/sodipodi-0.dtd"
   xmlns:inkscape="http://www.inkscape.org/namespaces/inkscape"
   version="1.1"
   id="Layer_1"
   x="0px"
   y="0px"
   viewBox="0 0 40 40"
   xml:space="preserve"
   sodipodi:docname="clear.svg"
   width="40"
   height="40"
   inkscape:version="0.92.4 (5da689c313, 2019-01-14)"><metadata
   id="metadata13"><rdf:RDF><cc:Work
       rdf:about=""><dc:format>image/svg+xml</dc:format><dc:type
         rdf:resource="http://purl.org/dc/dcmitype/StillImage" /><dc:title></dc:title></cc:Work></rdf:RDF></metadata><defs
   id="defs11" /><sodipodi:namedview
   pagecolor="#ffffff"
   bordercolor="#666666"
   borderopacity="1"
   objecttolerance="10"
   gridtolerance="10"
   guidetolerance="10"
   inkscape:pageopacity="0"
   inkscape:pageshadow="2"
   inkscape:window-width="1920"
   inkscape:window-height="1017"
   id="namedview9"
   showgrid="false"
   inkscape:pagecheckerboard="true"
   inkscape:zoom="9.8333333"
   inkscape:cx="12"
   inkscape:cy="12"
   inkscape:window-x="1912"
   inkscape:window-y="-8"
   inkscape:window-maximized="1"
   inkscape:current-layer="Layer_1" />
<g
   id="g6"
   transform="translate(8.1355932,7.6610169)">
	<path
   style="fill:#ffffff;fill-opacity:1"
   d="M -0.1015625 -0.068359375 L -0.1015625 40.203125 L 40.169922 40.203125 L 40.169922 -0.068359375 L -0.1015625 -0.068359375 z M 20.134766 8.2617188 C 26.334766 8.2617188 31.435547 13.360156 31.435547 19.660156 C 31.435547 25.960156 26.334766 31.060547 20.134766 31.060547 C 13.934766 31.060547 8.8359375 25.860156 8.8359375 19.660156 C 8.8359375 13.460156 13.934766 8.2617188 20.134766 8.2617188 z M 16.134766 14.060547 L 14.634766 15.660156 L 18.634766 19.660156 L 14.634766 23.660156 L 16.134766 25.261719 L 20.134766 21.261719 L 24.134766 25.261719 L 25.634766 23.660156 L 21.634766 19.660156 L 25.634766 15.660156 L 24.134766 14.060547 L 20.134766 18.060547 L 16.134766 14.060547 z "
   transform="translate(-8.1355932,-7.6610169)"
   id="path4" />
</g>
</svg>