<?xml version="1.0" encoding="UTF-8" standalone="no"?>
<!-- Generator: Adobe Illustrator 19.0.0, SVG Export Plug-In . SVG Version: 6.00 Build 0)  -->

<svg
   xmlns:dc="http://purl.org/dc/elements/1.1/"
   xmlns:cc="http://creativecommons.org/ns#"
   xmlns:rdf="http://www.w3.org/1999/02/22-rdf-syntax-ns#"
   xmlns:svg="http://www.w3.org/2000/svg"
   xmlns="http://www.w3.org/2000/svg"
   xmlns:sodipodi="http://sodipodi.sourceforge.net/DTD/sodipodi-0.dtd"
   xmlns:inkscape="http://www.inkscape.org/namespaces/inkscape"
   version="1.1"
   id="Capa_1"
   x="0px"
   y="0px"
   viewBox="0 0 24 24"
   xml:space="preserve"
   inkscape:version="0.91 r13725"
   sodipodi:docname="close.svg"
   width="24"
   height="24"><metadata
     id="metadata41"><rdf:RDF><cc:Work
         rdf:about=""><dc:format>image/svg+xml</dc:format><dc:type
           rdf:resource="http://purl.org/dc/dcmitype/StillImage" /><dc:title></dc:title></cc:Work></rdf:RDF></metadata><defs
     id="defs39" /><sodipodi:namedview
     pagecolor="#ffffff"
     bordercolor="#666666"
     borderopacity="1"
     objecttolerance="10"
     gridtolerance="10"
     guidetolerance="10"
     inkscape:pageopacity="0"
     inkscape:pageshadow="2"
     inkscape:window-width="1920"
     inkscape:window-height="1018"
     id="namedview37"
     showgrid="false"
     inkscape:zoom="4.9196389"
     inkscape:cx="-5.9963751"
     inkscape:cy="23.9855"
     inkscape:window-x="-8"
     inkscape:window-y="-8"
     inkscape:window-maximized="1"
     inkscape:current-layer="g3" /><g
     id="g3"
     transform="matrix(0.33353484,0,0,0.33353484,4.065,4.2403337)"><path
       d="M 28.228,23.986 47.092,5.122 c 1.172,-1.171 1.172,-3.071 0,-4.242 -1.172,-1.172 -3.07,-1.172 -4.242,0 L 23.986,19.744 5.121,0.88 c -1.172,-1.172 -3.07,-1.172 -4.242,0 -1.172,1.171 -1.172,3.071 0,4.242 L 19.744,23.986 0.879,42.85 c -1.172,1.171 -1.172,3.071 0,4.242 0.586,0.585 1.354,0.878 2.121,0.878 0.767,0 1.535,-0.293 2.121,-0.879 L 23.986,28.227 42.85,47.091 c 0.586,0.586 1.354,0.879 2.121,0.879 0.767,0 1.535,-0.293 2.121,-0.879 1.172,-1.171 1.172,-3.071 0,-4.242 L 28.228,23.986 Z"
       id="path5"
       inkscape:connector-curvature="0"
       style="fill:#f78e1e;fill-opacity:1;stroke-width:2.99818754;stroke-miterlimit:4;stroke-dasharray:none;stroke:#f78e1e;stroke-opacity:1" /></g><g
     id="g7"
     transform="translate(0,-23.971001)" /><g
     id="g9"
     transform="translate(0,-23.971001)" /><g
     id="g11"
     transform="translate(0,-23.971001)" /><g
     id="g13"
     transform="translate(0,-23.971001)" /><g
     id="g15"
     transform="translate(0,-23.971001)" /><g
     id="g17"
     transform="translate(0,-23.971001)" /><g
     id="g19"
     transform="translate(0,-23.971001)" /><g
     id="g21"
     transform="translate(0,-23.971001)" /><g
     id="g23"
     transform="translate(0,-23.971001)" /><g
     id="g25"
     transform="translate(0,-23.971001)" /><g
     id="g27"
     transform="translate(0,-23.971001)" /><g
     id="g29"
     transform="translate(0,-23.971001)" /><g
     id="g31"
     transform="translate(0,-23.971001)" /><g
     id="g33"
     transform="translate(0,-23.971001)" /><g
     id="g35"
     transform="translate(0,-23.971001)" /></svg>