<?xml version="1.0" encoding="UTF-8" standalone="no"?>
<!-- Generator: Adobe Illustrator 19.0.0, SVG Export Plug-In . SVG Version: 6.00 Build 0)  -->

<svg
   xmlns:dc="http://purl.org/dc/elements/1.1/"
   xmlns:cc="http://creativecommons.org/ns#"
   xmlns:rdf="http://www.w3.org/1999/02/22-rdf-syntax-ns#"
   xmlns:svg="http://www.w3.org/2000/svg"
   xmlns="http://www.w3.org/2000/svg"
   xmlns:sodipodi="http://sodipodi.sourceforge.net/DTD/sodipodi-0.dtd"
   xmlns:inkscape="http://www.inkscape.org/namespaces/inkscape"
   version="1.1"
   id="Capa_1"
   x="0px"
   y="0px"
   viewBox="0 0 40 40"
   xml:space="preserve"
   inkscape:version="0.92.4 (5da689c313, 2019-01-14)"
   sodipodi:docname="close.svg"
   width="40"
   height="40"><metadata
     id="metadata41"><rdf:RDF><cc:Work
         rdf:about=""><dc:format>image/svg+xml</dc:format><dc:type
           rdf:resource="http://purl.org/dc/dcmitype/StillImage" /><dc:title></dc:title></cc:Work></rdf:RDF></metadata><defs
     id="defs39" /><sodipodi:namedview
     pagecolor="#ffffff"
     bordercolor="#666666"
     borderopacity="1"
     objecttolerance="10"
     gridtolerance="10"
     guidetolerance="10"
     inkscape:pageopacity="0"
     inkscape:pageshadow="2"
     inkscape:window-width="1920"
     inkscape:window-height="1017"
     id="namedview37"
     showgrid="false"
     inkscape:zoom="9.8392778"
     inkscape:cx="27.362786"
     inkscape:cy="8.5797563"
     inkscape:window-x="-8"
     inkscape:window-y="-8"
     inkscape:window-maximized="1"
     inkscape:current-layer="g3"
     inkscape:pagecheckerboard="true" /><g
     id="g3"
     transform="matrix(0.33353484,0,0,0.33353484,4.065,20.240334)"><path
       style="color:#000000;font-style:normal;font-variant:normal;font-weight:normal;font-stretch:normal;font-size:medium;line-height:normal;font-family:sans-serif;font-variant-ligatures:normal;font-variant-position:normal;font-variant-caps:normal;font-variant-numeric:normal;font-variant-alternates:normal;font-feature-settings:normal;text-indent:0;text-align:start;text-decoration:none;text-decoration-line:none;text-decoration-style:solid;text-decoration-color:#000000;letter-spacing:normal;word-spacing:normal;text-transform:none;writing-mode:lr-tb;direction:ltr;text-orientation:mixed;dominant-baseline:auto;baseline-shift:baseline;text-anchor:start;white-space:normal;shape-padding:0;clip-rule:nonzero;display:inline;overflow:visible;visibility:visible;opacity:1;isolation:auto;mix-blend-mode:normal;color-interpolation:sRGB;color-interpolation-filters:linearRGB;solid-color:#000000;solid-opacity:1;vector-effect:none;fill:#ffffff;fill-opacity:1;fill-rule:nonzero;stroke:none;stroke-width:1;stroke-linecap:butt;stroke-linejoin:miter;stroke-miterlimit:4;stroke-dasharray:none;stroke-dashoffset:0;stroke-opacity:1;color-rendering:auto;image-rendering:auto;shape-rendering:auto;text-rendering:auto;enable-background:accumulate"
       d="M 0,0 V 40 H 40 V 0 Z m 12.585938,12.626953 c 0.382968,0 0.76978,0.148687 1.060546,0.439453 l 5.939454,5.9375 5.9375,-5.9375 c 0.582107,-0.582107 1.540939,-0.582107 2.123046,0 0.581965,0.581467 0.581965,1.539627 0,2.121094 l -5.939453,5.939453 5.939453,5.9375 c 0.581965,0.581467 0.581965,1.539627 0,2.121094 -0.290866,0.290866 -0.677662,0.439453 -1.060546,0.439453 -0.382886,0 -0.770458,-0.147409 -1.0625,-0.439453 l -5.9375,-5.9375 -5.939454,5.9375 C 13.355618,29.476413 12.968822,29.625 12.585938,29.625 c -0.383321,0 -0.769902,-0.149305 -1.060547,-0.439453 -0.581965,-0.581467 -0.581965,-1.539627 0,-2.121094 l 5.939453,-5.9375 -5.939453,-5.939453 c -0.581965,-0.581467 -0.581965,-1.539627 0,-2.121094 0.290766,-0.290766 0.677576,-0.439453 1.060547,-0.439453 z m 13.998046,0.996094 c -0.127321,0 0.455318,0.05054 0.355469,0.150391 l -7.353515,6.644531 -7.353516,-6.644531 c -0.100138,-0.100139 0.48252,-0.146485 0.353516,-0.146485 -0.129007,0 -0.253378,0.04635 -0.353516,0.146485 -0.199842,0.199669 -0.199842,-0.199671 0,0 l 7.353516,6.644531 -7.353516,8.060547 c -0.199842,0.199671 -0.199842,-0.199671 0,0 0.100259,0.100086 -0.206002,0.03869 -0.07768,0.03869 0.128756,0 -0.02236,0.06135 0.07768,-0.03869 l 7.353516,-8.060547 7.399121,8.060547 c 0.09454,0.102995 -0.527881,0.146484 -0.399121,0.146484 0.128756,0 0.253477,-0.04645 0.353515,-0.146484 0.199842,-0.199671 0.245448,0.199671 0.04561,0 l -7.399121,-8.060547 7.353515,-6.644531 c 0.199842,-0.199671 0.199842,0.199669 0,0 -0.09985,-0.09985 -0.228147,-0.150391 -0.355469,-0.150391 z"
       transform="matrix(2.9981875,0,0,2.9981875,-12.187632,-60.684317)"
       id="path5"
       inkscape:connector-curvature="0"
       sodipodi:nodetypes="cccccsccscccccscccscccccsscccscccccsccsscccccs" /><g
       transform="matrix(1.061875,0,0,1.061875,-231.58331,31.46047)"
       id="g4" /><rect
       style="fill:none;fill-opacity:1;stroke:#f78e1e;stroke-width:0;stroke-linecap:round;stroke-linejoin:bevel;stroke-miterlimit:4;stroke-dasharray:none;stroke-dashoffset:0;stroke-opacity:1"
       id="rect866"
       width="100.55635"
       height="19.501837"
       x="-390.03574"
       y="-72.394226" /><rect
       style="fill:none;fill-opacity:1;stroke:#f78e1e;stroke-width:0;stroke-linecap:round;stroke-linejoin:bevel;stroke-miterlimit:4;stroke-dasharray:none;stroke-dashoffset:0;stroke-opacity:1"
       id="rect868"
       width="129.50438"
       height="121.88648"
       x="-15.234795"
       y="-63.557453" /><rect
       style="fill:none;fill-opacity:1;stroke:#f78e1e;stroke-width:0;stroke-linecap:round;stroke-linejoin:bevel;stroke-miterlimit:4;stroke-dasharray:none;stroke-dashoffset:0;stroke-opacity:1"
       id="rect874"
       width="67.647003"
       height="60.943241"
       x="12.494381"
       y="-26.991507" /></g><g
     id="g7"
     transform="translate(0,-7.971001)" /><g
     id="g9"
     transform="translate(0,-7.971001)" /><g
     id="g11"
     transform="translate(0,-7.971001)" /><g
     id="g13"
     transform="translate(0,-7.971001)" /><g
     id="g15"
     transform="translate(0,-7.971001)" /><g
     id="g17"
     transform="translate(0,-7.971001)" /><g
     id="g19"
     transform="translate(0,-7.971001)" /><g
     id="g21"
     transform="translate(0,-7.971001)" /><g
     id="g23"
     transform="translate(0,-7.971001)" /><g
     id="g25"
     transform="translate(0,-7.971001)" /><g
     id="g27"
     transform="translate(0,-7.971001)" /><g
     id="g29"
     transform="translate(0,-7.971001)" /><g
     id="g31"
     transform="translate(0,-7.971001)" /><g
     id="g33"
     transform="translate(0,-7.971001)" /><g
     id="g35"
     transform="translate(0,-7.971001)" /></svg>