<?xml version="1.0" encoding="UTF-8" standalone="no"?>
<!-- Generator: Adobe Illustrator 19.1.1, SVG Export Plug-In . SVG Version: 6.00 Build 0)  -->

<svg
   xmlns:dc="http://purl.org/dc/elements/1.1/"
   xmlns:cc="http://creativecommons.org/ns#"
   xmlns:rdf="http://www.w3.org/1999/02/22-rdf-syntax-ns#"
   xmlns:svg="http://www.w3.org/2000/svg"
   xmlns="http://www.w3.org/2000/svg"
   xmlns:sodipodi="http://sodipodi.sourceforge.net/DTD/sodipodi-0.dtd"
   xmlns:inkscape="http://www.inkscape.org/namespaces/inkscape"
   version="1.1"
   id="Layer_1"
   x="0px"
   y="0px"
   viewBox="12 -12 40 40"
   xml:space="preserve"
   sodipodi:docname="directions.svg"
   width="40"
   height="40"
   inkscape:version="0.92.4 (5da689c313, 2019-01-14)"><metadata
   id="metadata13"><rdf:RDF><cc:Work
       rdf:about=""><dc:format>image/svg+xml</dc:format><dc:type
         rdf:resource="http://purl.org/dc/dcmitype/StillImage" /><dc:title></dc:title></cc:Work></rdf:RDF></metadata><defs
   id="defs11" /><sodipodi:namedview
   pagecolor="#ffffff"
   bordercolor="#666666"
   borderopacity="1"
   objecttolerance="10"
   gridtolerance="10"
   guidetolerance="10"
   inkscape:pageopacity="0"
   inkscape:pageshadow="2"
   inkscape:window-width="1920"
   inkscape:window-height="1017"
   id="namedview9"
   showgrid="false"
   inkscape:pagecheckerboard="true"
   inkscape:zoom="9.8333333"
   inkscape:cx="29.902451"
   inkscape:cy="5.0975348"
   inkscape:window-x="1912"
   inkscape:window-y="-8"
   inkscape:window-maximized="1"
   inkscape:current-layer="Layer_1" />
<path
   style="fill:#ffffff;stroke-width:0.50052136;fill-opacity:1"
   d="M 0 -0.068359375 L 0 40.101562 L 40.068359 40.101562 L 40.068359 -0.068359375 L 0 -0.068359375 z M 20 8 C 20.312826 8 20.626328 8.112656 20.851562 8.3378906 L 31.662109 19.148438 C 32.112579 19.598907 32.112579 20.401094 31.662109 20.851562 L 20.851562 31.662109 C 20.401094 32.112578 19.598907 32.112578 19.148438 31.662109 L 8.3378906 20.851562 C 7.8874216 20.401094 7.8874216 19.598907 8.3378906 19.148438 L 19.148438 8.3378906 C 19.373672 8.112656 19.687174 8 20 8 z M 22.402344 14.59375 L 22.402344 17.597656 L 16.396484 17.597656 C 15.745807 17.597656 15.195312 18.148149 15.195312 18.798828 L 15.195312 23.603516 L 17.597656 23.603516 L 17.597656 20 L 22.402344 20 L 22.402344 23.003906 L 26.607422 18.798828 L 22.402344 14.59375 z "
   transform="translate(12,-12)"
   id="path4" />
<path
   class="st1"
   d="M 12,-20 H 60 V 28 H 12 Z"
   id="path6"
   inkscape:connector-curvature="0"
   style="fill:none" />
</svg>