<?xml version="1.0" encoding="utf-8"?>
<!-- Generator: Adobe Illustrator 19.1.1, SVG Export Plug-In . SVG Version: 6.00 Build 0)  -->
<svg version="1.1" id="Layer_1" xmlns="http://www.w3.org/2000/svg" xmlns:xlink="http://www.w3.org/1999/xlink" x="0px" y="0px"
	 viewBox="12 -12 48 48" style="enable-background:new 12 -12 48 48;" xml:space="preserve">
<style type="text/css">
	.st0{fill:#CBCBCB;}
	.st1{fill:none;}
</style>
<path class="st0" d="M59.3,10.3L37.7-11.3c-0.9-0.9-2.5-0.9-3.4,0L12.7,10.3c-0.9,0.9-0.9,2.5,0,3.4l21.6,21.6v0
	c0.9,0.9,2.5,0.9,3.4,0l21.6-21.6C60.2,12.8,60.2,11.2,59.3,10.3z M40.8,18v-6h-9.6v7.2h-4.8V9.6c0-1.3,1.1-2.4,2.4-2.4h12v-6
	l8.4,8.4L40.8,18z"/>
<path class="st1" d="M12-12h48v48H12V-12z"/>
</svg>
