<?xml version="1.0" encoding="UTF-8" standalone="no"?>
<!-- Generator: Adobe Illustrator 19.1.1, SVG Export Plug-In . SVG Version: 6.00 Build 0)  -->

<svg
   xmlns:dc="http://purl.org/dc/elements/1.1/"
   xmlns:cc="http://creativecommons.org/ns#"
   xmlns:rdf="http://www.w3.org/1999/02/22-rdf-syntax-ns#"
   xmlns:svg="http://www.w3.org/2000/svg"
   xmlns="http://www.w3.org/2000/svg"
   xmlns:sodipodi="http://sodipodi.sourceforge.net/DTD/sodipodi-0.dtd"
   xmlns:inkscape="http://www.inkscape.org/namespaces/inkscape"
   version="1.1"
   id="Layer_1"
   x="0px"
   y="0px"
   viewBox="0 0 40 40"
   xml:space="preserve"
   sodipodi:docname="edit.svg"
   width="40"
   height="40"
   inkscape:version="0.92.4 (5da689c313, 2019-01-14)"><metadata
   id="metadata11"><rdf:RDF><cc:Work
       rdf:about=""><dc:format>image/svg+xml</dc:format><dc:type
         rdf:resource="http://purl.org/dc/dcmitype/StillImage" /><dc:title></dc:title></cc:Work></rdf:RDF></metadata><defs
   id="defs9" /><sodipodi:namedview
   pagecolor="#ffffff"
   bordercolor="#666666"
   borderopacity="1"
   objecttolerance="10"
   gridtolerance="10"
   guidetolerance="10"
   inkscape:pageopacity="0"
   inkscape:pageshadow="2"
   inkscape:window-width="1920"
   inkscape:window-height="1017"
   id="namedview7"
   showgrid="false"
   inkscape:zoom="9.8333333"
   inkscape:cx="-0.66101695"
   inkscape:cy="12"
   inkscape:window-x="1912"
   inkscape:window-y="-8"
   inkscape:window-maximized="1"
   inkscape:current-layer="Layer_1" />
<path
   style="fill:#ffffff;fill-opacity:1"
   d="M 0 -0.099609375 L 0 40 L 40 40 L 40 -0.099609375 L 0 -0.099609375 z M 11.599609 10.400391 L 21.5 10.400391 L 18.800781 13.099609 L 12.5 13.099609 L 12.5 27.5 L 26.900391 27.5 L 26.900391 21.199219 L 29.599609 18.5 L 29.599609 28.400391 C 29.599609 29.400391 28.800781 30.199219 27.800781 30.199219 L 11.599609 30.199219 C 10.599609 30.199219 9.8007812 29.400391 9.8007812 28.400391 L 9.8007812 12.199219 C 9.8007812 11.199219 10.599609 10.400391 11.599609 10.400391 z M 26 10.400391 C 26 10.400391 27.799219 10.400781 28.699219 11.300781 C 29.599219 12.200781 29.599609 14 29.599609 14 L 28.400391 15.199219 C 28.000391 14.499219 27.500781 13.799219 26.800781 13.199219 C 26.200781 12.599219 25.500781 11.999609 24.800781 11.599609 L 26 10.400391 z M 23.699219 12.699219 C 24.399219 12.999219 25.200781 13.499219 25.800781 14.199219 C 26.500781 14.799219 27.000781 15.500781 27.300781 16.300781 L 19.300781 24.300781 C 18.900781 23.600781 18.399219 22.900781 17.699219 22.300781 C 17.099219 21.700781 16.399219 21.099219 15.699219 20.699219 L 23.699219 12.699219 z M 14.699219 21.699219 C 15.399219 21.999219 16.200781 22.499219 16.800781 23.199219 C 17.500781 23.899219 17.900781 24.600781 18.300781 25.300781 L 17.900391 25.699219 L 14.300781 25.699219 L 14.300781 22.099609 L 14.699219 21.699219 z "
   id="path4" />
</svg>