<?xml version="1.0" encoding="utf-8"?>
<!-- Generator: Adobe Illustrator 19.1.1, SVG Export Plug-In . SVG Version: 6.00 Build 0)  -->
<svg version="1.1" id="Layer_1" xmlns="http://www.w3.org/2000/svg" xmlns:xlink="http://www.w3.org/1999/xlink" x="0px" y="0px"
	 viewBox="0 0 24 24" style="enable-background:new 0 0 24 24;" xml:space="preserve">
<style type="text/css">
	.st0{fill:#CBCBCB;}
</style>
<path class="st0" d="M20.7,6.9c-0.4-0.7-0.9-1.4-1.6-2c-0.6-0.6-1.3-1.2-2-1.6l1.2-1.2c0,0,1.8,0,2.7,0.9s0.9,2.7,0.9,2.7L20.7,6.9z
	 M10.2,17.4H6.6v-3.6L7,13.4c0.7,0.3,1.5,0.8,2.1,1.5c0.7,0.7,1.1,1.4,1.5,2.1L10.2,17.4z M19.6,8l-8,8c-0.4-0.7-0.9-1.4-1.6-2
	c-0.6-0.6-1.3-1.2-2-1.6l8-8c0.7,0.3,1.5,0.8,2.1,1.5C18.8,6.5,19.3,7.2,19.6,8z M4.8,4.8v14.4h14.4v-6.3l2.7-2.7v9.9
	c0,1-0.8,1.8-1.8,1.8H3.9c-1,0-1.8-0.8-1.8-1.8V3.9c0-1,0.8-1.8,1.8-1.8h9.9l-2.7,2.7H4.8z"/>
</svg>
