<?xml version="1.0" encoding="UTF-8" standalone="no"?>
<!-- Generator: Adobe Illustrator 18.1.1, SVG Export Plug-In . SVG Version: 6.00 Build 0)  -->

<svg
   xmlns:dc="http://purl.org/dc/elements/1.1/"
   xmlns:cc="http://creativecommons.org/ns#"
   xmlns:rdf="http://www.w3.org/1999/02/22-rdf-syntax-ns#"
   xmlns:svg="http://www.w3.org/2000/svg"
   xmlns="http://www.w3.org/2000/svg"
   xmlns:sodipodi="http://sodipodi.sourceforge.net/DTD/sodipodi-0.dtd"
   xmlns:inkscape="http://www.inkscape.org/namespaces/inkscape"
   version="1.1"
   id="Capa_1"
   x="0px"
   y="0px"
   viewBox="0 0 40 40"
   xml:space="preserve"
   sodipodi:docname="export.svg"
   width="40"
   height="40"
   inkscape:version="0.92.4 (5da689c313, 2019-01-14)"><metadata
   id="metadata45"><rdf:RDF><cc:Work
       rdf:about=""><dc:format>image/svg+xml</dc:format><dc:type
         rdf:resource="http://purl.org/dc/dcmitype/StillImage" /><dc:title></dc:title></cc:Work></rdf:RDF></metadata><defs
   id="defs43" /><sodipodi:namedview
   pagecolor="#ffffff"
   bordercolor="#666666"
   borderopacity="1"
   objecttolerance="10"
   gridtolerance="10"
   guidetolerance="10"
   inkscape:pageopacity="0"
   inkscape:pageshadow="2"
   inkscape:window-width="1920"
   inkscape:window-height="1017"
   id="namedview41"
   showgrid="false"
   inkscape:pagecheckerboard="true"
   inkscape:zoom="18.153846"
   inkscape:cx="30.460756"
   inkscape:cy="11.636313"
   inkscape:window-x="1912"
   inkscape:window-y="-8"
   inkscape:window-maximized="1"
   inkscape:current-layer="Capa_1" />
<g
   id="g8"
   transform="matrix(0.84615385,0,0,0.84615385,9,8.9999999)">
	<path
   style="fill:#ffffff;fill-opacity:1;stroke-width:0.84615386"
   d="M -0.109375 0.0078125 L -0.109375 40 L 39.992188 40 L 39.992188 0.0078125 L -0.109375 0.0078125 z M 18.308594 9 L 21.691406 9 C 23.092637 9 24.230469 10.136986 24.230469 11.539062 L 24.230469 18.308594 L 27.025391 18.308594 C 28.102544 18.308594 28.449888 18.51131 27.427734 19.535156 L 21.869141 25.09375 C 20.003371 26.960365 20.026448 26.955288 18.164062 25.09375 L 12.605469 19.537109 C 11.584161 18.512417 11.818642 18.308594 13.011719 18.308594 L 15.769531 18.308594 L 15.769531 11.539062 C 15.769531 10.136986 16.907363 9 18.308594 9 z M 9 25.076172 L 10.691406 25.076172 L 10.691406 28.460938 C 10.691406 28.927168 11.071986 29.308594 11.539062 29.308594 L 28.460938 29.308594 C 28.928014 29.308594 29.308594 28.927168 29.308594 28.460938 L 29.308594 25.076172 L 31 25.076172 L 31 28.460938 C 31 29.862168 29.862168 31 28.460938 31 L 11.539062 31 C 10.137832 31 9 29.862168 9 28.460938 L 9 25.076172 z "
   transform="matrix(1.1818182,0,0,1.1818182,-10.636364,-10.636363)"
   id="path2" />
	
	
</g>
<g
   id="g10"
   transform="translate(0,14)">
</g>
<g
   id="g12"
   transform="translate(0,14)">
</g>
<g
   id="g14"
   transform="translate(0,14)">
</g>
<g
   id="g16"
   transform="translate(0,14)">
</g>
<g
   id="g18"
   transform="translate(0,14)">
</g>
<g
   id="g20"
   transform="translate(0,14)">
</g>
<g
   id="g22"
   transform="translate(0,14)">
</g>
<g
   id="g24"
   transform="translate(0,14)">
</g>
<g
   id="g26"
   transform="translate(0,14)">
</g>
<g
   id="g28"
   transform="translate(0,14)">
</g>
<g
   id="g30"
   transform="translate(0,14)">
</g>
<g
   id="g32"
   transform="translate(0,14)">
</g>
<g
   id="g34"
   transform="translate(0,14)">
</g>
<g
   id="g36"
   transform="translate(0,14)">
</g>
<g
   id="g38"
   transform="translate(0,14)">
</g>
<rect
   style="fill:none;fill-opacity:1;stroke:none;stroke-width:3.2692914;stroke-linecap:round;stroke-linejoin:bevel;stroke-miterlimit:4;stroke-dasharray:3.2692914, 6.53858280000000036;stroke-dashoffset:0;stroke-opacity:1"
   id="rect854"
   width="40.101696"
   height="39.991528"
   x="-0.11016949"
   y="0.0084745763" /></svg>