<?xml version="1.0" encoding="UTF-8" standalone="no"?>
<svg
   xmlns:dc="http://purl.org/dc/elements/1.1/"
   xmlns:cc="http://creativecommons.org/ns#"
   xmlns:rdf="http://www.w3.org/1999/02/22-rdf-syntax-ns#"
   xmlns:svg="http://www.w3.org/2000/svg"
   xmlns="http://www.w3.org/2000/svg"
   xmlns:sodipodi="http://sodipodi.sourceforge.net/DTD/sodipodi-0.dtd"
   xmlns:inkscape="http://www.inkscape.org/namespaces/inkscape"
   height="40"
   viewBox="0 0 40 40"
   width="40"
   version="1.1"
   id="svg8"
   sodipodi:docname="grid.svg"
   inkscape:version="0.92.4 (5da689c313, 2019-01-14)">
  <metadata
     id="metadata14">
    <rdf:RDF>
      <cc:Work
         rdf:about="">
        <dc:format>image/svg+xml</dc:format>
        <dc:type
           rdf:resource="http://purl.org/dc/dcmitype/StillImage" />
        <dc:title></dc:title>
      </cc:Work>
    </rdf:RDF>
  </metadata>
  <defs
     id="defs12" />
  <sodipodi:namedview
     pagecolor="#ffffff"
     bordercolor="#666666"
     borderopacity="1"
     objecttolerance="10"
     gridtolerance="10"
     guidetolerance="10"
     inkscape:pageopacity="0"
     inkscape:pageshadow="2"
     inkscape:window-width="1920"
     inkscape:window-height="1017"
     id="namedview10"
     showgrid="false"
     inkscape:zoom="13.906433"
     inkscape:cx="41.72618"
     inkscape:cy="23.246163"
     inkscape:window-x="1912"
     inkscape:window-y="-8"
     inkscape:window-maximized="1"
     inkscape:current-layer="svg8" />
  <path
     d="M 0,-8 H 48 V 40 H 0 Z"
     id="path4"
     inkscape:connector-curvature="0"
     style="fill:none" />
  <path
     style="fill:#ffffff;stroke-width:0.5;fill-opacity:1"
     d="M 0 0.017578125 L 0 40 L 39.982422 40 L 39.982422 0.017578125 L 0 0.017578125 z M 12 10 L 28 10 C 29.105 10 30 10.895 30 12 L 30 28 C 30 29.105 29.105 30 28 30 L 12 30 C 10.895 30 10 29.105 10 28 L 10 12 C 10 10.895 10.895 10 12 10 z M 12 12 L 12 16 L 16 16 L 16 12 L 12 12 z M 18 12 L 18 16 L 22 16 L 22 12 L 18 12 z M 24 12 L 24 16 L 28 16 L 28 12 L 24 12 z M 12 18 L 12 22 L 16 22 L 16 18 L 12 18 z M 18 18 L 18 22 L 22 22 L 22 18 L 18 18 z M 24 18 L 24 22 L 28 22 L 28 18 L 24 18 z M 12 24 L 12 28 L 16 28 L 16 24 L 12 24 z M 18 24 L 18 28 L 22 28 L 22 24 L 18 24 z M 24 24 L 24 28 L 28 28 L 28 24 L 24 24 z "
     id="path6" />
</svg>
