<?xml version="1.0" encoding="UTF-8" standalone="no"?>
<svg
   xmlns:dc="http://purl.org/dc/elements/1.1/"
   xmlns:cc="http://creativecommons.org/ns#"
   xmlns:rdf="http://www.w3.org/1999/02/22-rdf-syntax-ns#"
   xmlns:svg="http://www.w3.org/2000/svg"
   xmlns="http://www.w3.org/2000/svg"
   xmlns:sodipodi="http://sodipodi.sourceforge.net/DTD/sodipodi-0.dtd"
   xmlns:inkscape="http://www.inkscape.org/namespaces/inkscape"
   height="40"
   version="1.1"
   viewBox="0 0 40 40"
   width="40"
   id="svg11"
   sodipodi:docname="hide.svg"
   inkscape:version="0.92.4 (5da689c313, 2019-01-14)">
  <metadata
     id="metadata15">
    <rdf:RDF>
      <cc:Work
         rdf:about="">
        <dc:format>image/svg+xml</dc:format>
        <dc:type
           rdf:resource="http://purl.org/dc/dcmitype/StillImage" />
        <dc:title></dc:title>
      </cc:Work>
    </rdf:RDF>
  </metadata>
  <sodipodi:namedview
     pagecolor="#ffffff"
     bordercolor="#666666"
     borderopacity="1"
     objecttolerance="10"
     gridtolerance="10"
     guidetolerance="10"
     inkscape:pageopacity="0"
     inkscape:pageshadow="2"
     inkscape:window-width="1920"
     inkscape:window-height="1017"
     id="namedview13"
     showgrid="false"
     inkscape:zoom="7.375"
     inkscape:cx="16"
     inkscape:cy="16"
     inkscape:window-x="1912"
     inkscape:window-y="-8"
     inkscape:window-maximized="1"
     inkscape:current-layer="svg11" />
  <desc
     id="desc4" />
  <defs
     id="defs6" />
  <g
     id="Page-1"
     style="fill:none;fill-rule:evenodd;stroke:none;stroke-width:1"
     transform="matrix(0.76153846,0,0,0.76153846,8.1730117,7.5886566)">
    <g
       id="icon-21-eye-hidden">
      <path
         style="stroke-width:0.92307705;fill:#ffffff;fill-opacity:1"
         d="M -0.13476562 0 L -0.13476562 40.134766 L 40.134766 40.134766 L 40.134766 0 L -0.13476562 0 z M 27.671875 11.367188 L 28.595703 12.291016 L 12.904297 27.982422 L 11.980469 27.060547 L 27.671875 11.367188 z M 20.289062 13.212891 C 21.493225 13.212891 22.600236 13.349881 23.613281 13.582031 L 21.117188 16.076172 C 20.850543 16.014952 20.574279 15.982422 20.289062 15.982422 C 18.249856 15.982422 16.595703 17.636577 16.595703 19.675781 C 16.595703 19.961001 16.628246 20.239214 16.689453 20.505859 L 13.003906 24.189453 C 9.7809916 22.286819 8.2890625 19.675781 8.2890625 19.675781 C 8.2890625 19.675781 11.981369 13.212891 20.289062 13.212891 z M 27.572266 15.160156 C 30.79518 17.06279 32.289062 19.675781 32.289062 19.675781 C 32.289062 19.675781 28.596753 26.136718 20.289062 26.136719 C 19.084897 26.136719 17.975932 26.001682 16.962891 25.769531 L 19.458984 23.273438 C 19.725629 23.334643 20.003844 23.367188 20.289062 23.367188 C 22.328268 23.367187 23.980469 21.714989 23.980469 19.675781 C 23.980469 19.390565 23.947931 19.112349 23.886719 18.845703 L 27.572266 15.160156 z M 20.289062 16.90625 L 17.519531 19.675781 C 17.519531 18.967075 17.78935 18.257521 18.330078 17.716797 C 18.870802 17.176069 19.580353 16.90625 20.289062 16.90625 z M 23.056641 19.675781 C 23.056641 20.38449 22.786821 21.092089 22.246094 21.632812 C 21.705369 22.17354 20.997769 22.445312 20.289062 22.445312 L 23.056641 19.675781 z "
         transform="matrix(1.3131313,0,0,1.3131313,-10.732238,-9.9649026)"
         id="eye-hidden" />
    </g>
  </g>
</svg>
