<?xml version="1.0" encoding="UTF-8" standalone="no"?>
<svg
   xmlns:dc="http://purl.org/dc/elements/1.1/"
   xmlns:cc="http://creativecommons.org/ns#"
   xmlns:rdf="http://www.w3.org/1999/02/22-rdf-syntax-ns#"
   xmlns:svg="http://www.w3.org/2000/svg"
   xmlns="http://www.w3.org/2000/svg"
   xmlns:sodipodi="http://sodipodi.sourceforge.net/DTD/sodipodi-0.dtd"
   xmlns:inkscape="http://www.inkscape.org/namespaces/inkscape"
   height="40"
   width="40"
   version="1.1"
   id="svg6"
   sodipodi:docname="list.svg"
   inkscape:version="0.92.4 (5da689c313, 2019-01-14)">
  <metadata
     id="metadata12">
    <rdf:RDF>
      <cc:Work
         rdf:about="">
        <dc:format>image/svg+xml</dc:format>
        <dc:type
           rdf:resource="http://purl.org/dc/dcmitype/StillImage" />
        <dc:title></dc:title>
      </cc:Work>
    </rdf:RDF>
  </metadata>
  <defs
     id="defs10" />
  <sodipodi:namedview
     pagecolor="#ffffff"
     bordercolor="#666666"
     borderopacity="1"
     objecttolerance="10"
     gridtolerance="10"
     guidetolerance="10"
     inkscape:pageopacity="0"
     inkscape:pageshadow="2"
     inkscape:window-width="1920"
     inkscape:window-height="1017"
     id="namedview8"
     showgrid="false"
     inkscape:zoom="10.429825"
     inkscape:cx="23.855338"
     inkscape:cy="30.153834"
     inkscape:window-x="1912"
     inkscape:window-y="-8"
     inkscape:window-maximized="1"
     inkscape:current-layer="svg6"
     inkscape:pagecheckerboard="true" />
  <path
     style="fill:#ffffff;stroke-width:0.02578125;fill-opacity:1"
     d="M 0 -0.078125 L 0 40.191406 L 40.173828 40.191406 L 40.173828 -0.078125 L 0 -0.078125 z M 10.300781 11.857422 L 13.601562 11.857422 L 13.601562 15.15625 L 10.300781 15.15625 L 10.300781 11.857422 z M 16.900391 11.857422 L 30.101562 11.857422 L 30.101562 15.15625 L 16.900391 15.15625 L 16.900391 11.857422 z M 10.300781 18.457031 L 13.601562 18.457031 L 13.601562 21.755859 L 10.300781 21.755859 L 10.300781 18.457031 z M 16.900391 18.457031 L 30.101562 18.457031 L 30.101562 21.755859 L 16.900391 21.755859 L 16.900391 18.457031 z M 10.300781 25.056641 L 13.601562 25.056641 L 13.601562 28.357422 L 10.300781 28.357422 L 10.300781 25.056641 z M 16.900391 25.056641 L 30.101562 25.056641 L 30.101562 28.357422 L 16.900391 28.357422 L 16.900391 25.056641 z "
     id="path4" />
</svg>
