<?xml version="1.0" encoding="UTF-8" standalone="no"?>
<svg
   xmlns:dc="http://purl.org/dc/elements/1.1/"
   xmlns:cc="http://creativecommons.org/ns#"
   xmlns:rdf="http://www.w3.org/1999/02/22-rdf-syntax-ns#"
   xmlns:svg="http://www.w3.org/2000/svg"
   xmlns="http://www.w3.org/2000/svg"
   xmlns:sodipodi="http://sodipodi.sourceforge.net/DTD/sodipodi-0.dtd"
   xmlns:inkscape="http://www.inkscape.org/namespaces/inkscape"
   height="34"
   version="1.1"
   viewBox="0 0 34 34"
   width="34"
   sodipodi:docname="location.svg"
   id="svg8"
   inkscape:version="0.92.4 (5da689c313, 2019-01-14)">
  <metadata
     id="metadata13">
    <rdf:RDF>
      <cc:Work
         rdf:about="">
        <dc:format>image/svg+xml</dc:format>
        <dc:type
           rdf:resource="http://purl.org/dc/dcmitype/StillImage" />
        <dc:title></dc:title>
      </cc:Work>
    </rdf:RDF>
  </metadata>
  <sodipodi:namedview
     pagecolor="#ffffff"
     bordercolor="#666666"
     borderopacity="1"
     objecttolerance="10"
     gridtolerance="10"
     guidetolerance="10"
     inkscape:pageopacity="0"
     inkscape:pageshadow="2"
     inkscape:window-width="1920"
     inkscape:window-height="1017"
     id="namedview11"
     showgrid="false"
     inkscape:zoom="14.75"
     inkscape:cx="-3.0169492"
     inkscape:cy="8"
     inkscape:window-x="-8"
     inkscape:window-y="-8"
     inkscape:window-maximized="1"
     inkscape:current-layer="svg8"
     inkscape:pagecheckerboard="true" />
  <defs
     id="defs6" />
  <g
     id="Icons with numbers"
     style="fill:none;fill-rule:evenodd;stroke:none;stroke-width:1"
     transform="matrix(1.5,0,0,1.5,5,5)">
    <g
       id="Group"
       transform="translate(-192,-192)">
      <path
         style="stroke-width:1.5;fill:#eee;fill-opacity:1"
         d="M 0 0 L 0 34 L 34 34 L 34 0 L 0 0 z M 17 5 C 23.62742 5 29 10.37258 29 17 C 29 23.62742 23.62742 29 17 29 C 10.37258 29 5 23.62742 5 17 C 5 10.37258 10.37258 5 17 5 z M 15.5 8.125 C 11.73125 8.757265 8.757265 11.731235 8.125 15.5 L 12.5 15.5 L 12.5 18.5 L 8.125 18.5 C 8.757265 22.26875 11.73125 25.242735 15.5 25.875 L 15.5 21.5 L 18.5 21.5 L 18.5 25.875 C 22.26875 25.242735 25.242735 22.26875 25.875 18.5 L 21.5 18.5 L 21.5 15.5 L 25.875 15.5 C 25.242735 11.731235 22.26875 8.757265 18.5 8.125 L 18.5 12.5 L 15.5 12.5 L 15.5 8.125 z "
         transform="matrix(0.66666667,0,0,0.66666667,188.66667,188.66667)"
         id="Oval 163" />
    </g>
  </g>
</svg>
