<?xml version="1.0" encoding="UTF-8" standalone="no"?>
<svg
   xmlns:dc="http://purl.org/dc/elements/1.1/"
   xmlns:cc="http://creativecommons.org/ns#"
   xmlns:rdf="http://www.w3.org/1999/02/22-rdf-syntax-ns#"
   xmlns:svg="http://www.w3.org/2000/svg"
   xmlns="http://www.w3.org/2000/svg"
   xmlns:sodipodi="http://sodipodi.sourceforge.net/DTD/sodipodi-0.dtd"
   xmlns:inkscape="http://www.inkscape.org/namespaces/inkscape"
   enable-background="new 0 0 500 500"
   height="24"
   id="Layer_1"
   version="1.1"
   viewBox="0 0 24 24"
   width="24"
   xml:space="preserve"
   inkscape:version="0.91 r13725"
   sodipodi:docname="lock-active.svg"><metadata
     id="metadata9"><rdf:RDF><cc:Work
         rdf:about=""><dc:format>image/svg+xml</dc:format><dc:type
           rdf:resource="http://purl.org/dc/dcmitype/StillImage" /><dc:title></dc:title></cc:Work></rdf:RDF></metadata><defs
     id="defs7" /><sodipodi:namedview
     pagecolor="#ffffff"
     bordercolor="#666666"
     borderopacity="1"
     objecttolerance="10"
     gridtolerance="10"
     guidetolerance="10"
     inkscape:pageopacity="0"
     inkscape:pageshadow="2"
     inkscape:window-width="1920"
     inkscape:window-height="1018"
     id="namedview5"
     showgrid="false"
     inkscape:zoom="3.776"
     inkscape:cx="40.673304"
     inkscape:cy="-74.35533"
     inkscape:window-x="-8"
     inkscape:window-y="-8"
     inkscape:window-maximized="1"
     inkscape:current-layer="Layer_1" /><path
     d="m 5.5824248,6.3306781 0,3.4999419 -1.499983,0 c -1.10501,0 -2.000069,0.895003 -2.000069,2.000013 l 0,10.000124 c 0,1.104955 0.895059,1.999904 2.000069,1.999904 l 16.0000002,0 c 1.104955,0 2.000179,-0.894949 2.000179,-1.999904 l 0,-10.000124 c 0,-1.10501 -0.895224,-2.000013 -2.000179,-2.000013 l -1.499873,0 0,-3.4999419 c 0,-3.58992 -2.910262,-6.50001707 -6.500072,-6.50001707 -3.5898111,0 -6.5000722,2.91004107 -6.5000722,6.50001707 z m 2.5000441,3.4999419 0,-3.4999419 c 0,-2.209965 1.789953,-4.000082 3.9999731,-4.000082 2.21002,0 4.000082,1.790117 4.000082,4.000082 l 0,3.4999419 -8.0000551,0 z m 1.9999591,5.500065 c 0,-1.104955 0.895004,-1.999959 2.000014,-1.999959 1.10501,0 1.999959,0.895004 1.999959,1.999959 0,0.705084 -0.36509,1.325143 -0.914926,1.680106 0,0 0.195367,1.180241 0.41506,2.569992 0,0.41484 -0.334987,0.749826 -0.750047,0.749826 l -1.500093,0 c -0.415004,0 -0.749936,-0.334986 -0.749936,-0.749826 l 0.41506,-2.569992 c -0.549891,-0.354963 -0.915091,-0.975077 -0.915091,-1.680106 z"
     id="path3"
     inkscape:connector-curvature="0"
     style="clip-rule:evenodd;fill:#7f7f7f;fill-rule:evenodd;fill-opacity:0.94117647" /></svg>