<?xml version="1.0" encoding="UTF-8" standalone="no"?>
<svg
   xmlns:dc="http://purl.org/dc/elements/1.1/"
   xmlns:cc="http://creativecommons.org/ns#"
   xmlns:rdf="http://www.w3.org/1999/02/22-rdf-syntax-ns#"
   xmlns:svg="http://www.w3.org/2000/svg"
   xmlns="http://www.w3.org/2000/svg"
   xmlns:sodipodi="http://sodipodi.sourceforge.net/DTD/sodipodi-0.dtd"
   xmlns:inkscape="http://www.inkscape.org/namespaces/inkscape"
   enable-background="new 0 0 500 500"
   height="24"
   id="Layer_1"
   version="1.1"
   viewBox="0 0 24 24"
   width="24"
   xml:space="preserve"
   inkscape:version="0.91 r13725"
   sodipodi:docname="lock-inactive.svg"><metadata
     id="metadata9"><rdf:RDF><cc:Work
         rdf:about=""><dc:format>image/svg+xml</dc:format><dc:type
           rdf:resource="http://purl.org/dc/dcmitype/StillImage" /><dc:title></dc:title></cc:Work></rdf:RDF></metadata><defs
     id="defs7" /><sodipodi:namedview
     pagecolor="#ffffff"
     bordercolor="#666666"
     borderopacity="1"
     objecttolerance="10"
     gridtolerance="10"
     guidetolerance="10"
     inkscape:pageopacity="0"
     inkscape:pageshadow="2"
     inkscape:window-width="1920"
     inkscape:window-height="1018"
     id="namedview5"
     showgrid="false"
     inkscape:zoom="3.776"
     inkscape:cx="40.673304"
     inkscape:cy="-74.222915"
     inkscape:window-x="-8"
     inkscape:window-y="-8"
     inkscape:window-maximized="1"
     inkscape:current-layer="Layer_1" /><path
     d="m 5.4224227,7.0506774 0,3.3599446 -1.4399837,0 c -1.0608095,0 -1.9200662,0.859202 -1.9200662,1.920012 l 0,9.60012 c 0,1.060756 0.8592567,1.919907 1.9200662,1.919907 l 15.360001,0 c 1.060756,0 1.920171,-0.859151 1.920171,-1.919907 l 0,-9.60012 c 0,-1.06081 -0.859415,-1.920012 -1.920171,-1.920012 l -1.439879,0 0,-3.3599446 c 0,-3.4463232 -2.793852,-6.24001642 -6.240068,-6.24001642 -3.4462196,0 -6.2400703,2.79363942 -6.2400703,6.24001642 z m 2.4000423,3.3599446 0,-3.3599446 c 0,-2.1215664 1.7183549,-3.8400787 3.839975,-3.8400787 2.121619,0 3.840077,1.7185123 3.840077,3.8400787 l 0,3.3599446 -7.680052,0 z m 1.9199612,5.280062 c 0,-1.060756 0.8592038,-1.91996 1.9200138,-1.91996 1.060809,0 1.91996,0.859204 1.91996,1.91996 0,0.676882 -0.350487,1.272137 -0.878328,1.612901 0,0 0.187551,1.133033 0.398456,2.467194 0,0.398245 -0.321588,0.719832 -0.720044,0.719832 l -1.44009,0 c -0.398404,0 -0.719938,-0.321587 -0.719938,-0.719832 l 0.398456,-2.467194 C 10.093018,16.962821 9.7424262,16.367512 9.7424262,15.690684 Z"
     id="path3"
     inkscape:connector-curvature="0"
     style="clip-rule:evenodd;fill:#7f7f7f;fill-opacity:0;fill-rule:evenodd;stroke:#7f7f7f;stroke-width:0.95999998;stroke-opacity:1" /></svg>