<?xml version="1.0" encoding="UTF-8" standalone="no"?>
<!-- Generator: Adobe Illustrator 18.1.1, SVG Export Plug-In . SVG Version: 6.00 Build 0)  -->

<svg
   xmlns:dc="http://purl.org/dc/elements/1.1/"
   xmlns:cc="http://creativecommons.org/ns#"
   xmlns:rdf="http://www.w3.org/1999/02/22-rdf-syntax-ns#"
   xmlns:svg="http://www.w3.org/2000/svg"
   xmlns="http://www.w3.org/2000/svg"
   xmlns:sodipodi="http://sodipodi.sourceforge.net/DTD/sodipodi-0.dtd"
   xmlns:inkscape="http://www.inkscape.org/namespaces/inkscape"
   version="1.1"
   id="Capa_1"
   x="0px"
   y="0px"
   viewBox="0 0 40 40"
   xml:space="preserve"
   sodipodi:docname="merge.svg"
   inkscape:version="0.92.4 (5da689c313, 2019-01-14)"
   width="40"
   height="40"><metadata
   id="metadata43"><rdf:RDF><cc:Work
       rdf:about=""><dc:format>image/svg+xml</dc:format><dc:type
         rdf:resource="http://purl.org/dc/dcmitype/StillImage" /><dc:title></dc:title></cc:Work></rdf:RDF></metadata><defs
   id="defs41" /><sodipodi:namedview
   pagecolor="#ffffff"
   bordercolor="#666666"
   borderopacity="1"
   objecttolerance="10"
   gridtolerance="10"
   guidetolerance="10"
   inkscape:pageopacity="0"
   inkscape:pageshadow="2"
   inkscape:window-width="1920"
   inkscape:window-height="1017"
   id="namedview39"
   showgrid="false"
   inkscape:zoom="9.0769231"
   inkscape:cx="13"
   inkscape:cy="13"
   inkscape:window-x="1912"
   inkscape:window-y="-8"
   inkscape:window-maximized="1"
   inkscape:current-layer="Capa_1"
   inkscape:pagecheckerboard="true" />
<g
   id="g6"
   transform="translate(6.940678,10.033899)">
	<path
   style="fill:#ffffff;fill-opacity:1"
   d="M 0 0 L 0 40 L 40 40 L 40 0 L 0 0 z M 17.941406 10.033203 L 21.941406 10.033203 C 23.597406 10.033203 24.941406 11.376203 24.941406 13.033203 L 24.941406 21.033203 L 28.244141 21.033203 C 29.517141 21.033203 29.92675 21.274375 28.71875 22.484375 L 22.150391 29.054688 C 19.945391 31.260686 19.972484 31.254687 17.771484 29.054688 L 11.203125 22.486328 C 9.996125 21.275328 10.273594 21.033203 11.683594 21.033203 L 14.941406 21.033203 L 14.941406 13.033203 C 14.941406 11.376203 16.285406 10.033203 17.941406 10.033203 z M 22.076172 26.449219 C 22.082483 26.451766 22.089125 26.45396 22.091797 26.449219 L 22.076172 26.449219 z "
   transform="translate(-6.940678,-10.033899)"
   id="path2" />
	
</g>
<g
   id="g8"
   transform="translate(0,14)">
</g>
<g
   id="g10"
   transform="translate(0,14)">
</g>
<g
   id="g12"
   transform="translate(0,14)">
</g>
<g
   id="g14"
   transform="translate(0,14)">
</g>
<g
   id="g16"
   transform="translate(0,14)">
</g>
<g
   id="g18"
   transform="translate(0,14)">
</g>
<g
   id="g20"
   transform="translate(0,14)">
</g>
<g
   id="g22"
   transform="translate(0,14)">
</g>
<g
   id="g24"
   transform="translate(0,14)">
</g>
<g
   id="g26"
   transform="translate(0,14)">
</g>
<g
   id="g28"
   transform="translate(0,14)">
</g>
<g
   id="g30"
   transform="translate(0,14)">
</g>
<g
   id="g32"
   transform="translate(0,14)">
</g>
<g
   id="g34"
   transform="translate(0,14)">
</g>
<g
   id="g36"
   transform="translate(0,14)">
</g>
</svg>