<?xml version="1.0" encoding="utf-8"?>
<!-- Generator: Adobe Illustrator 19.1.1, SVG Export Plug-In . SVG Version: 6.00 Build 0)  -->
<svg version="1.1" id="Layer_1" xmlns="http://www.w3.org/2000/svg" xmlns:xlink="http://www.w3.org/1999/xlink" x="0px" y="0px"
	 viewBox="-3 5 16 16" style="enable-background:new -3 5 16 16;" xml:space="preserve">
<style type="text/css">
	.st0{fill:#CBCBCB;}
</style>
<path class="st0" d="M11,12.1L6.6,7.9C6.4,7.7,6.2,7.4,5.8,7.4C5.3,7.4,5,7.9,5,8.3l0,2.8l-5.7,0c-0.4,0-0.8,0.4-0.8,0.9l0,1.9
	c0,0.5,0.4,0.9,0.8,0.9l5.7,0l0,2.8c0,0.5,0.3,0.9,0.8,0.9c0.4,0,0.6-0.3,0.8-0.5l4.4-4.2c0.3-0.3,0.5-0.5,0.5-0.9
	S11.3,12.4,11,12.1z"/>
</svg>
