<?xml version="1.0" encoding="UTF-8" standalone="no"?>
<!-- Generator: Adobe Illustrator 18.1.1, SVG Export Plug-In . SVG Version: 6.00 Build 0)  -->

<svg
   xmlns:dc="http://purl.org/dc/elements/1.1/"
   xmlns:cc="http://creativecommons.org/ns#"
   xmlns:rdf="http://www.w3.org/1999/02/22-rdf-syntax-ns#"
   xmlns:svg="http://www.w3.org/2000/svg"
   xmlns="http://www.w3.org/2000/svg"
   xmlns:sodipodi="http://sodipodi.sourceforge.net/DTD/sodipodi-0.dtd"
   xmlns:inkscape="http://www.inkscape.org/namespaces/inkscape"
   version="1.1"
   id="Capa_1"
   x="0px"
   y="0px"
   viewBox="0 0 25 25"
   xml:space="preserve"
   inkscape:version="0.92.4 (5da689c313, 2019-01-14)"
   sodipodi:docname="open-inactive.svg"
   width="25"
   height="25"><metadata
     id="metadata4177"><rdf:RDF><cc:Work
         rdf:about=""><dc:format>image/svg+xml</dc:format><dc:type
           rdf:resource="http://purl.org/dc/dcmitype/StillImage" /><dc:title></dc:title></cc:Work></rdf:RDF></metadata><defs
     id="defs4175" /><sodipodi:namedview
     pagecolor="#ffffff"
     bordercolor="#666666"
     borderopacity="1"
     objecttolerance="10"
     gridtolerance="10"
     guidetolerance="10"
     inkscape:pageopacity="0"
     inkscape:pageshadow="2"
     inkscape:window-width="1723"
     inkscape:window-height="988"
     id="namedview4173"
     showgrid="false"
     inkscape:zoom="32"
     inkscape:cx="7.171681"
     inkscape:cy="12.471157"
     inkscape:window-x="78"
     inkscape:window-y="78"
     inkscape:window-maximized="0"
     inkscape:current-layer="Capa_1" /><g
     id="g4137"
     transform="matrix(0.2196878,0,0,0.23140653,1.531099,0.83351735)"
     style="fill:#cbcbcb;fill-opacity:1;stroke-width:1.234568"><g
       id="g4139"
       style="fill:#cbcbcb;fill-opacity:1;stroke-width:1.234568"><path
         style="fill:#cbcbcb;fill-opacity:1;stroke-width:1.234568"
         d="m 95.351,35 h -90.7 c -4.604,0 -4.834,2.241 -4.584,4.979 L 4.194,85.02 C 4.444,87.759 5.093,90 9.69,90 h 80.621 c 4.688,0 5.244,-2.241 5.494,-4.979 L 99.932,39.98 C 100.183,37.241 99.954,35 95.351,35 Z M 92.022,24 C 91.467,21.8 88.747,20 85.975,20 H 51.903 c -2.771,0 -6.645,-1.588 -8.607,-3.528 L 40.317,13.529 C 38.354,11.588 34.481,10 31.71,10 H 15.431 c -2.771,0 -5.289,2.236 -5.594,4.97 L 8.376,28 H 93.03 Z"
         id="path4141"
         inkscape:connector-curvature="0" /></g></g></svg>