<?xml version="1.0" encoding="UTF-8" standalone="no"?>
<!-- Generator: Adobe Illustrator 18.1.1, SVG Export Plug-In . SVG Version: 6.00 Build 0)  -->

<svg
   xmlns:dc="http://purl.org/dc/elements/1.1/"
   xmlns:cc="http://creativecommons.org/ns#"
   xmlns:rdf="http://www.w3.org/1999/02/22-rdf-syntax-ns#"
   xmlns:svg="http://www.w3.org/2000/svg"
   xmlns="http://www.w3.org/2000/svg"
   xmlns:sodipodi="http://sodipodi.sourceforge.net/DTD/sodipodi-0.dtd"
   xmlns:inkscape="http://www.inkscape.org/namespaces/inkscape"
   version="1.1"
   id="Capa_1"
   x="0px"
   y="0px"
   viewBox="0 0 40 40"
   xml:space="preserve"
   inkscape:version="0.92.4 (5da689c313, 2019-01-14)"
   sodipodi:docname="open.svg"
   width="40"
   height="40"><metadata
     id="metadata4177"><rdf:RDF><cc:Work
         rdf:about=""><dc:format>image/svg+xml</dc:format><dc:type
           rdf:resource="http://purl.org/dc/dcmitype/StillImage" /><dc:title></dc:title></cc:Work></rdf:RDF></metadata><defs
     id="defs4175" /><sodipodi:namedview
     pagecolor="#ffffff"
     bordercolor="#666666"
     borderopacity="1"
     objecttolerance="10"
     gridtolerance="10"
     guidetolerance="10"
     inkscape:pageopacity="0"
     inkscape:pageshadow="2"
     inkscape:window-width="1920"
     inkscape:window-height="1017"
     id="namedview4173"
     showgrid="false"
     inkscape:zoom="8"
     inkscape:cx="41.324711"
     inkscape:cy="39.926259"
     inkscape:window-x="1912"
     inkscape:window-y="-8"
     inkscape:window-maximized="1"
     inkscape:current-layer="Capa_1" /><g
     id="g4137"
     transform="matrix(0.19800027,0,0,0.20856212,9.9060948,9.389513)"
     style="fill:#f78e1e;fill-opacity:1;stroke-width:1.234568"><g
       id="g4139"
       style="fill:#f78e1e;fill-opacity:1;stroke-width:1.234568"><path
         style="fill:#ffffff;fill-opacity:1;stroke-width:0.25087976"
         d="M 0 0 L 0 40 L 40 40 L 40 0 L 0 0 z M 12.960938 11.474609 L 16.185547 11.474609 C 16.734206 11.474609 17.499997 11.806118 17.888672 12.210938 L 18.478516 12.824219 C 18.866992 13.228829 19.634935 13.560547 20.183594 13.560547 L 26.929688 13.560547 C 27.478544 13.560547 28.017063 13.935695 28.126953 14.394531 L 28.326172 15.228516 L 11.564453 15.228516 L 11.853516 12.511719 C 11.913906 11.94151 12.412279 11.474609 12.960938 11.474609 z M 10.826172 16.689453 L 28.785156 16.689453 C 29.696551 16.689453 29.743057 17.157264 29.693359 17.728516 L 28.875 27.121094 C 28.8255 27.692137 28.715335 28.160156 27.787109 28.160156 L 11.824219 28.160156 C 10.914012 28.160156 10.785828 27.692345 10.736328 27.121094 L 9.9199219 17.728516 C 9.8704218 17.157473 9.9145786 16.689453 10.826172 16.689453 z "
         transform="matrix(5.0504982,0,0,4.7947345,-50.030714,-45.020222)"
         id="path4141" /></g></g></svg>