<?xml version="1.0" encoding="UTF-8" standalone="no"?>
<svg
   xmlns:dc="http://purl.org/dc/elements/1.1/"
   xmlns:cc="http://creativecommons.org/ns#"
   xmlns:rdf="http://www.w3.org/1999/02/22-rdf-syntax-ns#"
   xmlns:svg="http://www.w3.org/2000/svg"
   xmlns="http://www.w3.org/2000/svg"
   xmlns:sodipodi="http://sodipodi.sourceforge.net/DTD/sodipodi-0.dtd"
   xmlns:inkscape="http://www.inkscape.org/namespaces/inkscape"
   width="40"
   height="40"
   viewBox="0 0 12.7 12.7"
   version="1.1"
   id="svg8"
   sodipodi:docname="order.svg"
   inkscape:version="1.0.2 (e86c870879, 2021-01-15, custom)">
  <defs
     id="defs2" />
  <sodipodi:namedview
     id="base"
     pagecolor="#ffffff"
     bordercolor="#666666"
     borderopacity="1.0"
     inkscape:pageopacity="0.0"
     inkscape:pageshadow="2"
     inkscape:zoom="22.4"
     inkscape:cx="10.02855"
     inkscape:cy="22.426628"
     inkscape:document-units="mm"
     inkscape:current-layer="layer1"
     inkscape:document-rotation="0"
     showgrid="false"
     units="px"
     inkscape:window-width="2560"
     inkscape:window-height="1377"
     inkscape:window-x="1912"
     inkscape:window-y="-8"
     inkscape:window-maximized="1" />
  <metadata
     id="metadata5">
    <rdf:RDF>
      <cc:Work
         rdf:about="">
        <dc:format>image/svg+xml</dc:format>
        <dc:type
           rdf:resource="http://purl.org/dc/dcmitype/StillImage" />
        <dc:title></dc:title>
      </cc:Work>
    </rdf:RDF>
  </metadata>
  <g
     inkscape:label="Layer 1"
     inkscape:groupmode="layer"
     id="layer1">
    <g
       id="g80"
       transform="matrix(0.01402104,0,0,0.01268324,2.8443322,3.8409317)"
       style="fill:#ffffff;fill-opacity:1">
      <g
         id="g14"
         style="fill:#ffffff;fill-opacity:1">
	<g
   id="g12"
   style="fill:#ffffff;fill-opacity:1">
		<path
   id="path10"
   style="stroke-width:0.0452561;fill:#ffffff;fill-opacity:1"
   d="M -0.044921875 -0.044921875 L -0.044921875 47.955078 L 47.955078 47.955078 L 47.955078 -0.044921875 L -0.044921875 -0.044921875 z M 17.306641 12.544922 C 17.549613 12.544922 17.791595 12.617598 17.941406 12.763672 L 22.710938 17.402344 C 23.102608 17.782417 22.731323 18.328125 22.076172 18.328125 L 19.679688 18.328125 L 19.679688 29.34375 C 19.679688 29.664187 19.335849 29.923828 18.896484 29.923828 L 15.716797 29.923828 C 15.277433 29.923828 14.921875 29.664187 14.921875 29.34375 L 14.921875 18.328125 L 12.537109 18.328125 C 11.882541 18.328125 11.508296 17.782803 11.900391 17.402344 L 16.669922 12.763672 C 16.819733 12.617598 17.063668 12.544922 17.306641 12.544922 z M 28.585938 17.818359 L 31.765625 17.818359 C 32.204989 17.818359 32.550781 18.076282 32.550781 18.396484 L 32.550781 29.404297 L 34.945312 29.404297 C 35.600411 29.404297 35.973702 29.950285 35.582031 30.330078 L 30.8125 34.964844 C 30.495602 35.273576 29.85839 35.274039 29.541016 34.964844 L 24.771484 30.330078 C 24.37939 29.949898 24.751629 29.404297 25.40625 29.404297 L 27.791016 29.404297 L 27.791016 18.396484 C 27.791016 18.076282 28.146573 17.818359 28.585938 17.818359 z "
   transform="matrix(18.87045,0,0,20.860863,-202.86171,-302.83521)" />

	</g>

</g>
      <g
         id="g20"
         style="fill:#ffffff;fill-opacity:1">
	<g
   id="g18"
   style="fill:#ffffff;fill-opacity:1">
		
	</g>

</g>
      <g
         id="g22"
         style="fill:#ffffff;fill-opacity:1">
</g>
      <g
         id="g24"
         style="fill:#ffffff;fill-opacity:1">
</g>
      <g
         id="g26"
         style="fill:#ffffff;fill-opacity:1">
</g>
      <g
         id="g28"
         style="fill:#ffffff;fill-opacity:1">
</g>
      <g
         id="g30"
         style="fill:#ffffff;fill-opacity:1">
</g>
      <g
         id="g32"
         style="fill:#ffffff;fill-opacity:1">
</g>
      <g
         id="g34"
         style="fill:#ffffff;fill-opacity:1">
</g>
      <g
         id="g36"
         style="fill:#ffffff;fill-opacity:1">
</g>
      <g
         id="g38"
         style="fill:#ffffff;fill-opacity:1">
</g>
      <g
         id="g40"
         style="fill:#ffffff;fill-opacity:1">
</g>
      <g
         id="g42"
         style="fill:#ffffff;fill-opacity:1">
</g>
      <g
         id="g44"
         style="fill:#ffffff;fill-opacity:1">
</g>
      <g
         id="g46"
         style="fill:#ffffff;fill-opacity:1">
</g>
      <g
         id="g48"
         style="fill:#ffffff;fill-opacity:1">
</g>
      <g
         id="g50"
         style="fill:#ffffff;fill-opacity:1">
</g>
    </g>
    <rect
       style="fill:#0000ff;fill-opacity:0;fill-rule:evenodd;stroke-width:0.264583"
       id="rect82"
       width="8.9958334"
       height="8.9958334"
       x="-0.011811757"
       y="-0.011811757" />
    <rect
       style="fill:#ffffff;fill-opacity:0;stroke-width:0.264583"
       id="rect913"
       width="8.9958334"
       height="8.9958334"
       x="-0.011811757"
       y="-0.011811757" />
  </g>
</svg>
