<?xml version="1.0" encoding="UTF-8" standalone="no"?>
<!-- Generator: Adobe Illustrator 18.1.1, SVG Export Plug-In . SVG Version: 6.00 Build 0)  -->

<svg
   xmlns:dc="http://purl.org/dc/elements/1.1/"
   xmlns:cc="http://creativecommons.org/ns#"
   xmlns:rdf="http://www.w3.org/1999/02/22-rdf-syntax-ns#"
   xmlns:svg="http://www.w3.org/2000/svg"
   xmlns="http://www.w3.org/2000/svg"
   xmlns:sodipodi="http://sodipodi.sourceforge.net/DTD/sodipodi-0.dtd"
   xmlns:inkscape="http://www.inkscape.org/namespaces/inkscape"
   version="1.1"
   id="Capa_1"
   x="0px"
   y="0px"
   viewBox="0 0 20 20"
   xml:space="preserve"
   inkscape:version="0.91 r13725"
   sodipodi:docname="unpin.svg"
   width="20"
   height="20"><metadata
     id="metadata45"><rdf:RDF><cc:Work
         rdf:about=""><dc:format>image/svg+xml</dc:format><dc:type
           rdf:resource="http://purl.org/dc/dcmitype/StillImage" /><dc:title></dc:title></cc:Work></rdf:RDF></metadata><defs
     id="defs43" /><sodipodi:namedview
     pagecolor="#ffffff"
     bordercolor="#666666"
     borderopacity="1"
     objecttolerance="10"
     gridtolerance="10"
     guidetolerance="10"
     inkscape:pageopacity="0"
     inkscape:pageshadow="2"
     inkscape:window-width="1920"
     inkscape:window-height="1018"
     id="namedview41"
     showgrid="false"
     inkscape:zoom="13.230925"
     inkscape:cx="-2.229625"
     inkscape:cy="-6.1976017"
     inkscape:window-x="-8"
     inkscape:window-y="-8"
     inkscape:window-maximized="1"
     inkscape:current-layer="g5" /><g
     id="g3"
     transform="matrix(0,1.5830573,-1.5830573,0,24.306817,-3.3242752)"><g
       id="g5"
       transform="matrix(0.65869815,-0.66529194,0.66529194,0.65869815,-3.7275165,8.9730064)"><path
         style="fill:#666666;fill-opacity:0.42011833"
         d="m 10.82,9.144 c 0.502,-0.502 0.502,-1.314 0,-1.817 L 10.706,7.214 C 10.251,6.757 9.536,6.718 9.033,7.093 L 6.751,4.81 C 6.855,4.458 6.767,4.063 6.489,3.786 6.086,3.382 5.43,3.382 5.027,3.786 L 3.721,5.091 c -0.404,0.404 -0.405,1.059 0,1.463 0.276,0.278 0.673,0.364 1.024,0.261 L 7.027,9.097 C 6.652,9.6 6.693,10.314 7.149,10.77 l 0.114,0.114 c 0.501,0.502 1.315,0.502 1.816,0 l 0.408,-0.409 4.3,3.574 0.197,-0.198 -3.574,-4.298 0.41,-0.409 z"
         id="path7"
         inkscape:connector-curvature="0" /><path
         style="fill:#666666;fill-opacity:0"
         d="M 8.918,0 C 4,0 0,4 0,8.918 c 0,4.918 4,8.919 8.918,8.919 4.918,0 8.919,-4.001 8.919,-8.919 C 17.837,4 13.836,0 8.918,0 Z m 0,16.793 c -2,0 -3.823,-0.756 -5.213,-1.988 L 7.067,11.443 C 7.03,11.413 6.99,11.388 6.956,11.354 L 6.843,11.242 C 6.558,10.957 6.391,10.594 6.339,10.215 L 2.752,13.803 C 1.684,12.458 1.043,10.763 1.043,8.918 c 0,-4.343 3.532,-7.875 7.875,-7.875 1.845,0 3.54,0.642 4.884,1.708 L 10.11,6.443 c 0.381,0.054 0.749,0.222 1.027,0.502 l 0.113,0.111 c 0.034,0.035 0.06,0.074 0.092,0.111 l 3.463,-3.463 c 1.232,1.391 1.988,3.214 1.988,5.214 0,4.343 -3.532,7.875 -7.875,7.875 z"
         id="path9"
         inkscape:connector-curvature="0" /></g></g><g
     id="g11"
     transform="translate(0,2.1630001)" /><g
     id="g13"
     transform="translate(0,2.1630001)" /><g
     id="g15"
     transform="translate(0,2.1630001)" /><g
     id="g17"
     transform="translate(0,2.1630001)" /><g
     id="g19"
     transform="translate(0,2.1630001)" /><g
     id="g21"
     transform="translate(0,2.1630001)" /><g
     id="g23"
     transform="translate(0,2.1630001)" /><g
     id="g25"
     transform="translate(0,2.1630001)" /><g
     id="g27"
     transform="translate(0,2.1630001)" /><g
     id="g29"
     transform="translate(0,2.1630001)" /><g
     id="g31"
     transform="translate(0,2.1630001)" /><g
     id="g33"
     transform="translate(0,2.1630001)" /><g
     id="g35"
     transform="translate(0,2.1630001)" /><g
     id="g37"
     transform="translate(0,2.1630001)" /><g
     id="g39"
     transform="translate(0,2.1630001)" /></svg>