<?xml version="1.0" encoding="UTF-8" standalone="no"?>
<!-- Generator: Adobe Illustrator 19.1.1, SVG Export Plug-In . SVG Version: 6.00 Build 0)  -->

<svg
   xmlns:dc="http://purl.org/dc/elements/1.1/"
   xmlns:cc="http://creativecommons.org/ns#"
   xmlns:rdf="http://www.w3.org/1999/02/22-rdf-syntax-ns#"
   xmlns:svg="http://www.w3.org/2000/svg"
   xmlns="http://www.w3.org/2000/svg"
   xmlns:sodipodi="http://sodipodi.sourceforge.net/DTD/sodipodi-0.dtd"
   xmlns:inkscape="http://www.inkscape.org/namespaces/inkscape"
   version="1.1"
   id="Layer_1"
   x="0px"
   y="0px"
   viewBox="-3 5 40 40"
   xml:space="preserve"
   sodipodi:docname="prev.svg"
   width="40"
   height="40"
   inkscape:version="0.92.4 (5da689c313, 2019-01-14)"><metadata
   id="metadata11"><rdf:RDF><cc:Work
       rdf:about=""><dc:format>image/svg+xml</dc:format><dc:type
         rdf:resource="http://purl.org/dc/dcmitype/StillImage" /><dc:title></dc:title></cc:Work></rdf:RDF></metadata><defs
   id="defs9" /><sodipodi:namedview
   pagecolor="#ffffff"
   bordercolor="#666666"
   borderopacity="1"
   objecttolerance="10"
   gridtolerance="10"
   guidetolerance="10"
   inkscape:pageopacity="0"
   inkscape:pageshadow="2"
   inkscape:window-width="1920"
   inkscape:window-height="1017"
   id="namedview7"
   showgrid="false"
   inkscape:zoom="14.75"
   inkscape:cx="8"
   inkscape:cy="18.847458"
   inkscape:window-x="1912"
   inkscape:window-y="-8"
   inkscape:window-maximized="1"
   inkscape:current-layer="Layer_1" />
<path
   style="fill:#ffffff;stroke-width:1.52307689;fill-opacity:1"
   d="M 0 0 L 0 40.134766 L 40.134766 40.134766 L 40.134766 0 L 0 0 z M 18.791016 11.337891 C 19.552555 11.337891 20.009766 11.947446 20.009766 12.708984 L 20.009766 16.972656 L 28.691406 16.972656 C 29.300637 16.972656 29.910156 17.582212 29.910156 18.34375 L 29.910156 21.238281 C 29.910156 21.99982 29.300637 22.609375 28.691406 22.609375 L 20.009766 22.609375 L 20.009766 26.873047 C 20.009766 27.482278 19.552555 28.244141 18.791016 28.244141 C 18.181786 28.244141 17.878834 27.787037 17.574219 27.482422 L 10.871094 21.085938 C 10.414171 20.629015 10.109375 20.324075 10.109375 19.714844 C 10.109375 19.105613 10.414171 18.800673 10.871094 18.34375 L 17.574219 12.099609 C 17.878834 11.794993 18.181786 11.337891 18.791016 11.337891 z "
   transform="translate(-3,5)"
   id="path4" />
</svg>