<?xml version="1.0" encoding="UTF-8" standalone="no"?>
<!-- Generator: Adobe Illustrator 18.1.1, SVG Export Plug-In . SVG Version: 6.00 Build 0)  -->

<svg
   xmlns:dc="http://purl.org/dc/elements/1.1/"
   xmlns:cc="http://creativecommons.org/ns#"
   xmlns:rdf="http://www.w3.org/1999/02/22-rdf-syntax-ns#"
   xmlns:svg="http://www.w3.org/2000/svg"
   xmlns="http://www.w3.org/2000/svg"
   xmlns:sodipodi="http://sodipodi.sourceforge.net/DTD/sodipodi-0.dtd"
   xmlns:inkscape="http://www.inkscape.org/namespaces/inkscape"
   version="1.1"
   id="Capa_1"
   x="0px"
   y="0px"
   viewBox="0 0 40 40"
   xml:space="preserve"
   sodipodi:docname="promote.svg"
   inkscape:version="0.92.4 (5da689c313, 2019-01-14)"
   width="40"
   height="40"><metadata
   id="metadata43"><rdf:RDF><cc:Work
       rdf:about=""><dc:format>image/svg+xml</dc:format><dc:type
         rdf:resource="http://purl.org/dc/dcmitype/StillImage" /><dc:title></dc:title></cc:Work></rdf:RDF></metadata><defs
   id="defs41" /><sodipodi:namedview
   pagecolor="#ffffff"
   bordercolor="#666666"
   borderopacity="1"
   objecttolerance="10"
   gridtolerance="10"
   guidetolerance="10"
   inkscape:pageopacity="0"
   inkscape:pageshadow="2"
   inkscape:window-width="1920"
   inkscape:window-height="1017"
   id="namedview39"
   showgrid="false"
   inkscape:zoom="9.0769231"
   inkscape:cx="13"
   inkscape:cy="13"
   inkscape:window-x="1912"
   inkscape:window-y="-8"
   inkscape:window-maximized="1"
   inkscape:current-layer="Capa_1"
   inkscape:pagecheckerboard="true" />
<g
   id="g6"
   transform="rotate(180,16.529661,14.98305)">
	<path
   style="fill:#ffffff;fill-opacity:1"
   d="M 0,0 V 40 H 40 V 0 Z m 17.941406,10.033203 h 4 c 1.656,0 3,1.343 3,3 v 8 h 3.302735 c 1.273,0 1.682609,0.241172 0.474609,1.451172 l -6.568359,6.570313 c -2.205,2.205998 -2.177907,2.199999 -4.378907,0 l -6.568359,-6.56836 c -1.207,-1.211 -0.929531,-1.453125 0.480469,-1.453125 h 3.257812 v -8 c 0,-1.657 1.344,-3 3,-3 z m 4.134766,16.416016 c 0.0063,0.0025 0.01295,0.0047 0.01563,0 z"
   transform="translate(-6.940678,-10.033899)"
   id="path2"
   inkscape:connector-curvature="0" />
	
</g>
<g
   id="g8"
   transform="translate(0,14)">
</g>
<g
   id="g10"
   transform="translate(0,14)">
</g>
<g
   id="g12"
   transform="translate(0,14)">
</g>
<g
   id="g14"
   transform="translate(0,14)">
</g>
<g
   id="g16"
   transform="translate(0,14)">
</g>
<g
   id="g18"
   transform="translate(0,14)">
</g>
<g
   id="g20"
   transform="translate(0,14)">
</g>
<g
   id="g22"
   transform="translate(0,14)">
</g>
<g
   id="g24"
   transform="translate(0,14)">
</g>
<g
   id="g26"
   transform="translate(0,14)">
</g>
<g
   id="g28"
   transform="translate(0,14)">
</g>
<g
   id="g30"
   transform="translate(0,14)">
</g>
<g
   id="g32"
   transform="translate(0,14)">
</g>
<g
   id="g34"
   transform="translate(0,14)">
</g>
<g
   id="g36"
   transform="translate(0,14)">
</g>
</svg>