<?xml version="1.0" encoding="UTF-8" standalone="no"?>
<svg
   xmlns:dc="http://purl.org/dc/elements/1.1/"
   xmlns:cc="http://creativecommons.org/ns#"
   xmlns:rdf="http://www.w3.org/1999/02/22-rdf-syntax-ns#"
   xmlns:svg="http://www.w3.org/2000/svg"
   xmlns="http://www.w3.org/2000/svg"
   xmlns:sodipodi="http://sodipodi.sourceforge.net/DTD/sodipodi-0.dtd"
   xmlns:inkscape="http://www.inkscape.org/namespaces/inkscape"
   enable-background="new 0 0 24 24"
   height="34"
   id="Layer_1"
   version="1.1"
   viewBox="0 0 34 34"
   width="34"
   xml:space="preserve"
   inkscape:version="0.92.4 (5da689c313, 2019-01-14)"
   sodipodi:docname="reverse-direction.svg"><metadata
     id="metadata4147"><rdf:RDF><cc:Work
         rdf:about=""><dc:format>image/svg+xml</dc:format><dc:type
           rdf:resource="http://purl.org/dc/dcmitype/StillImage" /><dc:title></dc:title></cc:Work></rdf:RDF></metadata><defs
     id="defs4145" /><sodipodi:namedview
     pagecolor="#ffffff"
     bordercolor="#666666"
     borderopacity="1"
     objecttolerance="10"
     gridtolerance="10"
     guidetolerance="10"
     inkscape:pageopacity="0"
     inkscape:pageshadow="2"
     inkscape:window-width="1920"
     inkscape:window-height="1017"
     id="namedview4143"
     showgrid="false"
     inkscape:zoom="17.6875"
     inkscape:cx="3.5689331"
     inkscape:cy="11.589934"
     inkscape:window-x="1912"
     inkscape:window-y="-8"
     inkscape:window-maximized="1"
     inkscape:current-layer="g4137"
     inkscape:pagecheckerboard="true"
     inkscape:lockguides="true" /><g
     id="g4137"
     transform="translate(0,10)"><path
       style="fill:#ffffff;fill-opacity:1"
       d="M 0 0 L 0 34 L 34 34 L 34 0 L 0 0 z M 22.5 5.9433594 L 29 12.443359 L 25 12.443359 L 25 22.693359 L 25 26.443359 L 25 27.443359 L 24 27.443359 L 21 27.443359 L 20 27.443359 L 20 26.443359 L 20 22.693359 L 20 12.443359 L 16 12.443359 L 22.5 5.9433594 z M 9 6.4433594 L 10 6.4433594 L 13 6.4433594 L 14 6.4433594 L 14 7.4433594 L 14 11.193359 L 14 21.443359 L 18 21.443359 L 11.5 27.943359 L 5 21.443359 L 9 21.443359 L 9 11.193359 L 9 7.4433594 L 9 6.4433594 z "
       transform="translate(0,-10)"
       id="polygon4139" /></g></svg>