<?xml version="1.0" encoding="UTF-8" standalone="no"?>
<!-- Generator: Adobe Illustrator 21.1.0, SVG Export Plug-In . SVG Version: 6.00 Build 0)  -->

<svg
   xmlns:dc="http://purl.org/dc/elements/1.1/"
   xmlns:cc="http://creativecommons.org/ns#"
   xmlns:rdf="http://www.w3.org/1999/02/22-rdf-syntax-ns#"
   xmlns:svg="http://www.w3.org/2000/svg"
   xmlns="http://www.w3.org/2000/svg"
   xmlns:sodipodi="http://sodipodi.sourceforge.net/DTD/sodipodi-0.dtd"
   xmlns:inkscape="http://www.inkscape.org/namespaces/inkscape"
   version="1.1"
   id="Layer_1"
   x="0px"
   y="0px"
   viewBox="0 0 36 36"
   xml:space="preserve"
   inkscape:version="0.92.4 (5da689c313, 2019-01-14)"
   sodipodi:docname="rotate.svg"
   width="36"
   height="36"><metadata
     id="metadata17"><rdf:RDF><cc:Work
         rdf:about=""><dc:format>image/svg+xml</dc:format><dc:type
           rdf:resource="http://purl.org/dc/dcmitype/StillImage" /><dc:title></dc:title></cc:Work></rdf:RDF></metadata><defs
     id="defs15" /><sodipodi:namedview
     pagecolor="#ffffff"
     bordercolor="#666666"
     borderopacity="1"
     objecttolerance="10"
     gridtolerance="10"
     guidetolerance="10"
     inkscape:pageopacity="0"
     inkscape:pageshadow="2"
     inkscape:window-width="1920"
     inkscape:window-height="1017"
     id="namedview13"
     showgrid="false"
     inkscape:zoom="15.865546"
     inkscape:cx="2.8667694"
     inkscape:cy="14.842526"
     inkscape:window-x="-8"
     inkscape:window-y="-8"
     inkscape:window-maximized="1"
     inkscape:current-layer="g889" /><style
     type="text/css"
     id="style3">
	.st0{fill:#F79233;}
	.st1{fill:#EEEEEE;}
</style><circle
     class="st0"
     cx="29.5"
     cy="5.8999996"
     r="28.700001"
     id="circle5"
     style="fill:#ffffff;fill-opacity:0" /><g
     id="g889"
     transform="matrix(0.0529892,0,0,0.0529892,5,5.0000012)"
     style="fill:#eeeeee;fill-opacity:1"><g
       id="g823"
       style="fill:#ababab;fill-opacity:1">
	<g
   id="g821"
   style="fill:#ababab;fill-opacity:1">
		<path
   id="path819"
   d="M 245.333,0 C 110.059,0 0,110.059 0,245.333 0,380.607 110.059,490.666 245.333,490.666 380.607,490.666 490.666,380.607 490.666,245.333 490.666,110.059 380.608,0 245.333,0 Z m 0,448 C 133.589,448 42.666,357.077 42.666,245.333 42.666,133.589 133.589,42.667 245.333,42.667 357.077,42.667 448,133.589 448,245.333 448,357.077 357.077,448 245.333,448 Z"
   inkscape:connector-curvature="0"
   style="fill:#ababab;fill-opacity:1" />
	</g>
</g><g
       id="g838"
       transform="rotate(-45,245.33916,245.34235)"><g
         style="fill:#ababab;fill-opacity:1"
         id="g829">
	<g
   style="fill:#ababab;fill-opacity:1"
   id="g827">
		<path
   style="fill:#ababab;fill-opacity:1"
   inkscape:connector-curvature="0"
   d="m 245.34937,83.812321 c -4.38972,-0.01556 -8.32689,2.654479 -9.9108,6.713271 L 175.09902,241.3748 c -1.0253,2.53427 -1.01116,5.38533 0,7.93516 l 60.33955,150.84921 c 1.61432,4.05808 5.53593,6.71256 9.9108,6.71327 2.86591,-0.0304 5.56635,-1.19218 7.52716,-3.15299 0.9956,-0.99561 1.79463,-2.21749 2.3688,-3.57513 l 60.33955,-150.84921 c 1.01045,-2.54912 1.01116,-5.38533 0,-7.93516 L 255.24533,90.510743 c -1.62917,-4.043236 -5.55149,-6.698422 -9.89596,-6.698422 z m 15.06986,176.599919 c -8.31204,8.31204 -21.85808,8.31133 -30.16941,0 -8.31204,-8.31204 -8.31134,-21.85809 0,-30.16942 8.31204,-8.31204 21.85808,-8.31133 30.16941,0 8.31204,8.31063 8.31204,21.85738 0,30.16942 z"
   id="path825" />
	</g>
</g></g><g
       id="g831"
       style="fill:#eeeeee;fill-opacity:1">
</g><g
       id="g833"
       style="fill:#eeeeee;fill-opacity:1">
</g><g
       id="g835"
       style="fill:#eeeeee;fill-opacity:1">
</g><g
       id="g837"
       style="fill:#eeeeee;fill-opacity:1">
</g><g
       id="g839"
       style="fill:#eeeeee;fill-opacity:1">
</g><g
       id="g841"
       style="fill:#eeeeee;fill-opacity:1">
</g><g
       id="g843"
       style="fill:#eeeeee;fill-opacity:1">
</g><g
       id="g845"
       style="fill:#eeeeee;fill-opacity:1">
</g><g
       id="g847"
       style="fill:#eeeeee;fill-opacity:1">
</g><g
       id="g849"
       style="fill:#eeeeee;fill-opacity:1">
</g><g
       id="g851"
       style="fill:#eeeeee;fill-opacity:1">
</g><g
       id="g853"
       style="fill:#eeeeee;fill-opacity:1">
</g><g
       id="g855"
       style="fill:#eeeeee;fill-opacity:1">
</g><g
       id="g857"
       style="fill:#eeeeee;fill-opacity:1">
</g><g
       id="g859"
       style="fill:#eeeeee;fill-opacity:1">
</g></g></svg>