<?xml version="1.0" encoding="UTF-8" standalone="no"?>
<!-- Generator: Adobe Illustrator 18.1.1, SVG Export Plug-In . SVG Version: 6.00 Build 0)  -->

<svg
   xmlns:dc="http://purl.org/dc/elements/1.1/"
   xmlns:cc="http://creativecommons.org/ns#"
   xmlns:rdf="http://www.w3.org/1999/02/22-rdf-syntax-ns#"
   xmlns:svg="http://www.w3.org/2000/svg"
   xmlns="http://www.w3.org/2000/svg"
   xmlns:sodipodi="http://sodipodi.sourceforge.net/DTD/sodipodi-0.dtd"
   xmlns:inkscape="http://www.inkscape.org/namespaces/inkscape"
   version="1.1"
   id="Capa_1"
   x="0px"
   y="0px"
   viewBox="0 0 41.6668 41.6668"
   xml:space="preserve"
   width="40"
   height="40"
   inkscape:version="0.92.4 (5da689c313, 2019-01-14)"
   sodipodi:docname="streetview.svg"><sodipodi:namedview
     pagecolor="#ffffff"
     bordercolor="#666666"
     borderopacity="1"
     objecttolerance="10"
     gridtolerance="10"
     guidetolerance="10"
     inkscape:pageopacity="0"
     inkscape:pageshadow="2"
     inkscape:window-width="1920"
     inkscape:window-height="1017"
     id="namedview7"
     showgrid="false"
     inkscape:pagecheckerboard="true"
     inkscape:zoom="4.9166667"
     inkscape:cx="24"
     inkscape:cy="24"
     inkscape:window-x="-8"
     inkscape:window-y="-8"
     inkscape:window-maximized="1"
     inkscape:current-layer="Capa_1" /><metadata
     id="metadata4175"><rdf:RDF><cc:Work
         rdf:about=""><dc:format>image/svg+xml</dc:format><dc:type
           rdf:resource="http://purl.org/dc/dcmitype/StillImage" /><dc:title></dc:title></cc:Work></rdf:RDF></metadata><defs
     id="defs4173" /><g
     id="g4137"
     transform="matrix(0.50000159,0,0,0.50000159,9.1889178,21.115755)"><path
       style="fill:#ffffff;stroke-width:0.47999999;fill-opacity:1"
       d="M 0 0 L 0 40 L 40 40 L 40 0 L 0 0 z M 19.898438 8.2714844 C 21.427718 8.2714844 22.667969 9.5107425 22.667969 11.039062 C 22.667969 12.568342 21.427718 13.808594 19.898438 13.808594 C 18.369158 13.808594 17.128906 12.570296 17.128906 11.041016 C 17.128906 9.5117357 18.369158 8.2714844 19.898438 8.2714844 z M 19.912109 14.748047 C 20.93931 14.748047 21.958328 14.819122 22.486328 14.919922 C 23.772728 15.069682 24.513672 16.105805 24.513672 16.578125 L 24.513672 22.117188 C 24.513672 22.625988 24.098644 23.041016 23.589844 23.041016 L 22.667969 23.041016 L 22.667969 28.578125 C 22.667969 29.085965 22.252941 29.501953 21.744141 29.501953 L 18.052734 29.501953 C 17.543934 29.501953 17.128906 29.086925 17.128906 28.578125 L 17.128906 23.041016 L 16.207031 23.041016 C 15.698231 23.041016 15.283203 22.625988 15.283203 22.117188 L 15.283203 16.578125 C 15.283203 16.106765 16.023154 15.070642 17.308594 14.919922 C 17.842354 14.819122 18.875309 14.747087 19.912109 14.748047 z M 24.683594 25.273438 C 27.132554 25.700637 30.052734 26.618765 30.052734 28.578125 C 30.052734 31.114445 24.788678 32.271484 19.898438 32.271484 C 15.008198 32.271484 9.7441406 31.114445 9.7441406 28.578125 C 9.7441406 26.626445 12.648464 25.706464 15.083984 25.277344 C 15.587984 25.189984 16.065977 25.525264 16.154297 26.027344 C 16.242617 26.529424 15.906377 27.007383 15.404297 27.095703 C 12.466697 27.611223 11.637844 28.42095 11.589844 28.59375 C 11.730964 29.07759 14.500358 30.425781 19.898438 30.425781 C 25.296518 30.425781 28.066904 29.077093 28.208984 28.564453 C 28.160024 28.420453 27.323954 27.60831 24.365234 27.09375 C 23.863154 27.00639 23.527874 26.525517 23.615234 26.023438 C 23.702594 25.522318 24.172874 25.187998 24.683594 25.273438 z "
       transform="matrix(2.0833334,0,0,2.0833334,-18.377777,-42.231376)"
       id="path4139" /></g></svg>