<?xml version="1.0" encoding="UTF-8" standalone="no"?>
<!-- Generator: Adobe Illustrator 18.1.1, SVG Export Plug-In . SVG Version: 6.00 Build 0)  -->

<svg
   xmlns:dc="http://purl.org/dc/elements/1.1/"
   xmlns:cc="http://creativecommons.org/ns#"
   xmlns:rdf="http://www.w3.org/1999/02/22-rdf-syntax-ns#"
   xmlns:svg="http://www.w3.org/2000/svg"
   xmlns="http://www.w3.org/2000/svg"
   xmlns:sodipodi="http://sodipodi.sourceforge.net/DTD/sodipodi-0.dtd"
   xmlns:inkscape="http://www.inkscape.org/namespaces/inkscape"
   version="1.1"
   id="Capa_1"
   x="0px"
   y="0px"
   viewBox="0 0 50 50"
   xml:space="preserve"
   width="48"
   height="48"
   inkscape:version="0.91 r13725"
   sodipodi:docname="streetview.svg"><metadata
     id="metadata4175"><rdf:RDF><cc:Work
         rdf:about=""><dc:format>image/svg+xml</dc:format><dc:type
           rdf:resource="http://purl.org/dc/dcmitype/StillImage" /><dc:title></dc:title></cc:Work></rdf:RDF></metadata><defs
     id="defs4173" /><g
     id="g4137"
     transform="translate(2.0833334,25.000001)"><path
       d="M 44.231001,17.308 C 44.231001,22.592 33.265001,25 23.077,25 12.889,25 1.923,22.592 1.923,17.308 c 0,-4.066 6.0500001,-5.984 11.124,-6.878 1.05,-0.182 2.044,0.516 2.228,1.562 0.184,1.046 -0.514,2.044 -1.56,2.228 -6.1199999,1.074 -7.8479999,2.758 -7.9479999,3.118 0.294,1.008 6.0639999,3.816 17.3099999,3.816 11.246001,0 17.016001,-2.808 17.312001,-3.876 -0.102,-0.3 -1.84,-1.994 -8.004,-3.066 -1.046,-0.182 -1.746,-1.18 -1.564,-2.226 0.182,-1.044 1.162,-1.742 2.226,-1.564 5.102,0.89 11.184,2.804 11.184,6.886 z M 15.385,5.7699996 l 1.922,0 0,11.5380004 c 0,1.06 0.864,1.922 1.924,1.922 l 7.692001,0 c 1.06,0 1.924,-0.864 1.924,-1.922 l 0,-11.5380004 1.922,0 c 1.06,0 1.924,-0.864 1.924,-1.9240001 l 0,-11.5380002 c 0,-0.9840001 -1.544,-3.1440003 -4.224,-3.4560003 -1.1,-0.21 -3.222,-0.36 -5.362001,-0.36 -2.16,-0.002 -4.312,0.15 -5.424,0.36 -2.678,0.314 -4.222,2.4740002 -4.222,3.4560003 l 0,11.5380002 c 0,1.0600001 0.864,1.9240001 1.924,1.9240001 z m 7.692,-19.2320006 c 3.186001,0 5.770001,-2.584 5.770001,-5.77 0,-3.184 -2.584,-5.768 -5.770001,-5.768 -3.186,0 -5.77,2.584 -5.77,5.77 0,3.186 2.584,5.768 5.77,5.768 z"
       id="path4139"
       inkscape:connector-curvature="0"
       style="fill:#CBCBCB" /></g></svg>