<?xml version="1.0" encoding="UTF-8" standalone="no"?>
<!-- Generator: Adobe Illustrator 19.1.1, SVG Export Plug-In . SVG Version: 6.00 Build 0)  -->

<svg
   xmlns:dc="http://purl.org/dc/elements/1.1/"
   xmlns:cc="http://creativecommons.org/ns#"
   xmlns:rdf="http://www.w3.org/1999/02/22-rdf-syntax-ns#"
   xmlns:svg="http://www.w3.org/2000/svg"
   xmlns="http://www.w3.org/2000/svg"
   xmlns:sodipodi="http://sodipodi.sourceforge.net/DTD/sodipodi-0.dtd"
   xmlns:inkscape="http://www.inkscape.org/namespaces/inkscape"
   version="1.1"
   id="Layer_1"
   x="0px"
   y="0px"
   viewBox="244 -244 40 40"
   xml:space="preserve"
   sodipodi:docname="zoom.svg"
   width="40"
   height="40"
   inkscape:version="0.92.4 (5da689c313, 2019-01-14)"><metadata
   id="metadata11"><rdf:RDF><cc:Work
       rdf:about=""><dc:format>image/svg+xml</dc:format><dc:type
         rdf:resource="http://purl.org/dc/dcmitype/StillImage" /><dc:title></dc:title></cc:Work></rdf:RDF></metadata><defs
   id="defs9" /><sodipodi:namedview
   pagecolor="#ffffff"
   bordercolor="#666666"
   borderopacity="1"
   objecttolerance="10"
   gridtolerance="10"
   guidetolerance="10"
   inkscape:pageopacity="0"
   inkscape:pageshadow="2"
   inkscape:window-width="1920"
   inkscape:window-height="1017"
   id="namedview7"
   showgrid="false"
   inkscape:zoom="14.75"
   inkscape:cx="2.03652"
   inkscape:cy="21.68705"
   inkscape:window-x="1912"
   inkscape:window-y="-8"
   inkscape:window-maximized="1"
   inkscape:current-layer="Layer_1"
   inkscape:pagecheckerboard="true" />
<path
   style="fill:#ffffff;stroke-width:0.04687393;fill-opacity:1"
   d="M -0.13476562 -0.068359375 L -0.13476562 40.068359 L 40.068359 40.068359 L 40.068359 -0.068359375 L -0.13476562 -0.068359375 z M 18.517578 8 C 24.325248 8 29.037109 12.711861 29.037109 18.519531 C 29.037109 20.605431 28.408541 22.541804 27.363281 24.177734 L 31.34375 28.152344 C 32.22025 29.033594 32.219391 30.458654 31.337891 31.339844 C 30.456651 32.221084 29.031631 32.221084 28.150391 31.339844 L 24.171875 27.363281 C 22.535965 28.413231 20.604252 29.037109 18.513672 29.037109 C 12.710682 29.037109 8 24.327191 8 18.519531 C 8 12.711861 12.709898 8 18.517578 8 z M 18.517578 11.005859 C 14.369258 11.005859 11.003906 14.371211 11.003906 18.519531 C 11.003906 22.667891 14.369258 26.033203 18.517578 26.033203 C 22.665938 26.033203 26.033203 22.672581 26.033203 18.519531 C 26.033203 14.371211 22.665938 11.005859 18.517578 11.005859 z M 17.013672 14.009766 L 20.017578 14.009766 L 20.017578 17.013672 L 23.023438 17.013672 L 23.023438 20.019531 L 20.017578 20.019531 L 20.017578 23.023438 L 17.013672 23.023438 L 17.013672 20.019531 L 14.009766 20.019531 L 14.009766 17.013672 L 17.013672 17.013672 L 17.013672 14.009766 z "
   transform="translate(244,-244)"
   id="path4" />
</svg>