<?xml version="1.0" encoding="utf-8"?>
<!-- Generator: Adobe Illustrator 19.1.1, SVG Export Plug-In . SVG Version: 6.00 Build 0)  -->
<svg version="1.1" id="Layer_1" xmlns="http://www.w3.org/2000/svg" xmlns:xlink="http://www.w3.org/1999/xlink" x="0px" y="0px"
	 viewBox="0 0 48 48" style="enable-background:new 0 0 48 48;" xml:space="preserve">
<style type="text/css">
	.st0{fill:#EEEEEE;}
</style>
<g>
	<g>
		<g>
			<g>
				<path class="st0" d="M24.1,8c-8.8,0-16,7.2-16,16c0,8.8,7.2,16,16,16c8.8,0,16-7.2,16-16C40.1,15.2,33,8,24.1,8z M31.6,18.1
					L25.6,24l5.3,5.9c0.4,0.4,0.4,1.1,0,1.5c-0.4,0.4-1.1,0.4-1.5,0l-5.3-5.9l-5.9,5.9c-0.4,0.4-1.1,0.4-1.5,0
					c-0.4-0.4-0.4-1.1,0-1.5l5.9-5.9l-5.3-5.9c-0.4-0.4-0.4-1.1,0-1.5s1.1-0.4,1.5,0l5.3,5.9l5.9-5.9c0.4-0.4,1.1-0.4,1.5,0
					C32,17,32,17.7,31.6,18.1z"/>
			</g>
		</g>
	</g>
	<g>
	</g>
	<g>
	</g>
	<g>
	</g>
	<g>
	</g>
	<g>
	</g>
	<g>
	</g>
	<g>
	</g>
	<g>
	</g>
	<g>
	</g>
	<g>
	</g>
	<g>
	</g>
	<g>
	</g>
	<g>
	</g>
	<g>
	</g>
	<g>
	</g>
</g>
</svg>
