<?xml version="1.0" encoding="utf-8"?>
<!-- Generator: Adobe Illustrator 19.1.1, SVG Export Plug-In . SVG Version: 6.00 Build 0)  -->
<svg version="1.1" id="Layer_1" xmlns="http://www.w3.org/2000/svg" xmlns:xlink="http://www.w3.org/1999/xlink" x="0px" y="0px"
	 viewBox="0 0 48 48" style="enable-background:new 0 0 48 48;" xml:space="preserve">
<style type="text/css">
	.st0{fill:#EEEEEE;}
</style>
<g>
	<path class="st0" d="M37.6,30.2L26.4,10.8C25.9,9.9,25,9.4,24,9.4s-1.9,0.5-2.4,1.4L10.4,30.2c-0.5,0.9-0.5,1.9,0,2.7
		c0.5,0.9,1.4,1.4,2.4,1.4h22.5c1,0,1.9-0.5,2.4-1.4C38.1,32.1,38.1,31.1,37.6,30.2z M24,31.2c-1,0-1.8-0.8-1.8-1.8
		c0-1,0.8-1.8,1.8-1.8c1,0,1.8,0.8,1.8,1.8C25.8,30.4,25,31.2,24,31.2z M25.8,23.5c0,1-0.8,1.8-1.8,1.8s-1.8-0.8-1.8-1.8v-8.3
		c0-0.5,0.4-0.9,0.9-0.9h1.9c0.5,0,0.9,0.4,0.9,0.9L25.8,23.5L25.8,23.5z"/>
	<g>
	</g>
	<g>
	</g>
	<g>
	</g>
	<g>
	</g>
	<g>
	</g>
	<g>
	</g>
	<g>
	</g>
	<g>
	</g>
	<g>
	</g>
	<g>
	</g>
	<g>
	</g>
	<g>
	</g>
	<g>
	</g>
	<g>
	</g>
	<g>
	</g>
</g>
</svg>
