<?xml version="1.0" encoding="UTF-8" standalone="no"?>
<svg
   xmlns:dc="http://purl.org/dc/elements/1.1/"
   xmlns:cc="http://creativecommons.org/ns#"
   xmlns:rdf="http://www.w3.org/1999/02/22-rdf-syntax-ns#"
   xmlns:svg="http://www.w3.org/2000/svg"
   xmlns="http://www.w3.org/2000/svg"
   xmlns:sodipodi="http://sodipodi.sourceforge.net/DTD/sodipodi-0.dtd"
   xmlns:inkscape="http://www.inkscape.org/namespaces/inkscape"
   version="1.1"
   id="Layer_1"
   x="0px"
   y="0px"
   viewBox="0 0 48 48"
   xml:space="preserve"
   inkscape:version="1.0.1 (3bc2e813f5, 2020-09-07)"
   sodipodi:docname="doodle.svg"
   width="48"
   height="48"><metadata
     id="metadata17"><rdf:RDF><cc:Work
         rdf:about=""><dc:format>image/svg+xml</dc:format><dc:type
           rdf:resource="http://purl.org/dc/dcmitype/StillImage" /><dc:title></dc:title></cc:Work></rdf:RDF></metadata><defs
     id="defs15" /><sodipodi:namedview
     pagecolor="#ffffff"
     bordercolor="#666666"
     borderopacity="1"
     objecttolerance="10"
     gridtolerance="10"
     guidetolerance="10"
     inkscape:pageopacity="0"
     inkscape:pageshadow="2"
     inkscape:window-width="1278"
     inkscape:window-height="1368"
     id="namedview13"
     showgrid="false"
     inkscape:zoom="3.9663866"
     inkscape:cx="29.75"
     inkscape:cy="29.75"
     inkscape:window-x="1913"
     inkscape:window-y="0"
     inkscape:window-maximized="0"
     inkscape:current-layer="Layer_1"
     inkscape:document-rotation="0" /><style
     type="text/css"
     id="style3">
	.st0{fill:#F79233;}
	.st1{fill:#EEEEEE;}
</style><circle
     class="st0"
     cx="29.5"
     cy="17.9"
     r="28.700001"
     id="circle5"
     style="fill:#ffffff;fill-opacity:0" /><g
     id="g895"
     transform="matrix(0.07741556,0,0,0.07741556,9.2860169,8.8935439)"
     style="fill:#eeeeee;fill-opacity:1"><g
       id="g838"
       style="fill:#eeeeee;fill-opacity:1">
	<g
   id="g836"
   style="fill:#eeeeee;fill-opacity:1">
		<path
   d="m 334.827,202.24 c -3.2,-35.2 -23.253,-89.493 -85.973,-89.493 -48,0 -89.28,40.747 -105.28,60.693 -12.373,15.467 -43.84,52.8 -48.747,58.133 -5.44,6.293 -14.4,17.92 -23.787,17.92 -9.493,0 -15.253,-17.813 -7.787,-41.067 7.467,-23.36 29.867,-61.013 39.467,-74.987 16.747,-24.32 27.627,-41.067 27.627,-69.973 C 130.347,16.533 95.36,1.813 76.8,1.813 48.64,1.813 24.107,23.146 18.667,28.586 11.093,36.267 4.693,42.56 0,48.32 L 37.547,84.587 C 52.48,69.333 67.413,55.68 74.133,58.453 84.693,62.826 73.92,80.64 67.733,90.986 62.4,99.947 6.72,173.867 6.72,225.6 c 0,27.307 10.133,49.92 28.693,63.573 16,11.84 37.013,15.467 56.32,9.813 22.827,-6.72 41.6,-29.76 65.28,-58.987 25.813,-31.787 60.373,-73.387 87.04,-73.387 34.773,0 35.2,21.547 37.547,38.293 -80.853,13.867 -114.88,78.4 -114.88,114.773 0,36.373 30.72,66.027 68.373,66.027 34.667,0 91.627,-28.373 100.053,-130.133 h 52.373 V 202.24 Z m -99.094,131.307 v 0 c -6.613,0 -15.68,-5.547 -15.68,-15.467 0,-12.8 15.467,-46.933 61.333,-58.987 -6.613,57.494 -30.719,74.454 -45.653,74.454 z"
   id="path834"
   style="fill:#eeeeee;fill-opacity:1" />
	</g>
</g><g
       id="g840"
       style="fill:#eeeeee;fill-opacity:1">
</g><g
       id="g842"
       style="fill:#eeeeee;fill-opacity:1">
</g><g
       id="g844"
       style="fill:#eeeeee;fill-opacity:1">
</g><g
       id="g846"
       style="fill:#eeeeee;fill-opacity:1">
</g><g
       id="g848"
       style="fill:#eeeeee;fill-opacity:1">
</g><g
       id="g850"
       style="fill:#eeeeee;fill-opacity:1">
</g><g
       id="g852"
       style="fill:#eeeeee;fill-opacity:1">
</g><g
       id="g854"
       style="fill:#eeeeee;fill-opacity:1">
</g><g
       id="g856"
       style="fill:#eeeeee;fill-opacity:1">
</g><g
       id="g858"
       style="fill:#eeeeee;fill-opacity:1">
</g><g
       id="g860"
       style="fill:#eeeeee;fill-opacity:1">
</g><g
       id="g862"
       style="fill:#eeeeee;fill-opacity:1">
</g><g
       id="g864"
       style="fill:#eeeeee;fill-opacity:1">
</g><g
       id="g866"
       style="fill:#eeeeee;fill-opacity:1">
</g><g
       id="g868"
       style="fill:#eeeeee;fill-opacity:1">
</g></g></svg>
