<?xml version="1.0" encoding="UTF-8" standalone="no"?>
<!-- Generator: Adobe Illustrator 16.0.0, SVG Export Plug-In . SVG Version: 6.00 Build 0)  -->

<svg
   xmlns:dc="http://purl.org/dc/elements/1.1/"
   xmlns:cc="http://creativecommons.org/ns#"
   xmlns:rdf="http://www.w3.org/1999/02/22-rdf-syntax-ns#"
   xmlns:svg="http://www.w3.org/2000/svg"
   xmlns="http://www.w3.org/2000/svg"
   xmlns:sodipodi="http://sodipodi.sourceforge.net/DTD/sodipodi-0.dtd"
   xmlns:inkscape="http://www.inkscape.org/namespaces/inkscape"
   version="1.1"
   id="Capa_1"
   x="0px"
   y="0px"
   width="48"
   height="48"
   viewBox="0 0 48.000001 48.000001"
   xml:space="preserve"
   inkscape:version="0.91 r13725"
   sodipodi:docname="layers.svg"><metadata
     id="metadata4183"><rdf:RDF><cc:Work
         rdf:about=""><dc:format>image/svg+xml</dc:format><dc:type
           rdf:resource="http://purl.org/dc/dcmitype/StillImage" /><dc:title></dc:title></cc:Work></rdf:RDF></metadata><defs
     id="defs4181" />
     <g id="g4137"
     transform="matrix(0.58343016,0,0,0.58343016,7.6879473,7.8515598)"><g
       id="g4139"><g
         id="g4141"><path style="fill:#EEEEEE"
           d="m 54.497,39.614 -10.363,-4.49 -14.917,5.968 c -0.537,0.214 -1.165,0.319 -1.793,0.319 -0.627,0 -1.254,-0.104 -1.79,-0.318 L 10.713,35.125 0.351,39.614 c -0.472,0.203 -0.467,0.524 0.01,0.716 L 26.56,50.81 c 0.477,0.191 1.251,0.191 1.729,0 L 54.488,40.33 c 0.476,-0.191 0.481,-0.513 0.009,-0.716 z"
           id="path4143"
           inkscape:connector-curvature="0" /><path style="fill:#EEEEEE"
           d="M 54.497,27.512 44.133,23.021 29.217,28.987 c -0.536,0.215 -1.165,0.321 -1.792,0.321 -0.628,0 -1.256,-0.106 -1.793,-0.321 L 10.714,23.021 0.351,27.512 c -0.472,0.203 -0.467,0.523 0.01,0.716 L 26.56,38.706 c 0.477,0.19 1.251,0.19 1.729,0 L 54.488,28.227 c 0.476,-0.191 0.481,-0.511 0.009,-0.715 z"
           id="path4145"
           inkscape:connector-curvature="0" /><path style="fill:#EEEEEE"
           d="m 0.361,16.125 13.662,5.465 12.537,5.015 c 0.477,0.191 1.251,0.191 1.729,0 L 40.83,21.589 54.488,16.126 c 0.477,-0.191 0.48,-0.511 0.01,-0.716 L 28.277,4.048 c -0.471,-0.204 -1.236,-0.204 -1.708,0 L 0.351,15.41 c -0.472,0.204 -0.467,0.525 0.01,0.715 z"
           id="path4147"
           inkscape:connector-curvature="0" /></g></g></g></svg>