<?xml version="1.0" encoding="UTF-8" standalone="no"?>
<!-- Created with Inkscape (http://www.inkscape.org/) -->

<svg
   xmlns:dc="http://purl.org/dc/elements/1.1/"
   xmlns:cc="http://creativecommons.org/ns#"
   xmlns:rdf="http://www.w3.org/1999/02/22-rdf-syntax-ns#"
   xmlns:svg="http://www.w3.org/2000/svg"
   xmlns="http://www.w3.org/2000/svg"
   xmlns:sodipodi="http://sodipodi.sourceforge.net/DTD/sodipodi-0.dtd"
   xmlns:inkscape="http://www.inkscape.org/namespaces/inkscape"
   width="48"
   height="48"
   viewBox="0 0 48 48"
   id="svg2"
   version="1.1"
   inkscape:version="0.91 r13725"
   sodipodi:docname="local.svg">
  <defs
     id="defs4" />
  <metadata
     id="metadata7">
    <rdf:RDF>
      <cc:Work
         rdf:about="">
        <dc:format>image/svg+xml</dc:format>
        <dc:type
           rdf:resource="http://purl.org/dc/dcmitype/StillImage" />
        <dc:title></dc:title>
      </cc:Work>
    </rdf:RDF>
  </metadata>
  <g
     inkscape:label="Layer 1"
     inkscape:groupmode="layer"
     id="layer1"
     transform="translate(0,-1004.3622)">
    <g
       id="g5321"
       transform="translate(-4.8571447,1009.3979)">
      <g
         transform="translate(0,16)"
         id="g4141" />
      <g
         transform="translate(0,16)"
         id="g4143" />
      <g
         transform="translate(0,16)"
         id="g4145" />
      <g
         transform="translate(0,16)"
         id="g4147" />
      <g
         transform="translate(0,16)"
         id="g4149" />
      <g
         transform="translate(0,16)"
         id="g4151" />
      <g
         transform="translate(0,16)"
         id="g4153" />
      <g
         transform="translate(0,16)"
         id="g4155" />
      <g
         transform="translate(0,16)"
         id="g4157" />
      <g
         transform="translate(0,16)"
         id="g4159" />
      <g
         transform="translate(0,16)"
         id="g4161" />
      <g
         transform="translate(0,16)"
         id="g4163" />
      <g
         transform="translate(0,16)"
         id="g4165" />
      <g
         transform="translate(0,16)"
         id="g4167" />
      <g
         transform="translate(0,16)"
         id="g4169" />
      <g
         id="g6134"
         transform="matrix(0.03648528,0,0,0.03648528,5.0000021,26.726263)"
         style="fill:#202a31;fill-opacity:0.53846154">
        <g
           id="g6088"
           style="fill:#202a31;fill-opacity:0.53846154"
           transform="matrix(2.0000001,0,0,2.0000001,225.13972,-646.70413)">
          <g
             id="g6090"
             style="fill:#eeeeee;fill-opacity:1">
            <path
               id="path6092"
               d="M 433.978,243.531 377.724,70.519 c -3.237,-10.089 -9.232,-18.274 -17.986,-24.554 -8.754,-6.28 -18.371,-9.419 -28.836,-9.419 l -223.265,0 c -10.472,0 -20.08,3.137 -28.837,9.419 -8.757,6.28 -14.753,14.465 -17.987,24.554 L 4.568,243.531 C 1.523,253.052 0,260.189 0,264.947 l 0,91.361 c 0,12.559 4.471,23.308 13.417,32.257 8.947,8.949 19.701,13.422 32.264,13.422 l 347.176,0 c 12.56,0 23.315,-4.473 32.265,-13.422 8.945,-8.949 13.411,-19.698 13.411,-32.257 l 0,-91.361 c 0,-4.758 -1.51,-11.895 -4.555,-21.416 z M 95.646,81.649 c 0.763,-2.474 2.284,-4.521 4.568,-6.136 2.286,-1.619 4.759,-2.428 7.423,-2.428 l 223.262,0 c 2.666,0 5.144,0.81 7.426,2.428 2.283,1.615 3.806,3.662 4.565,6.136 l 44.823,137.617 -336.891,0 44.824,-137.617 z m 306.355,274.66 c 0,2.471 -0.911,4.609 -2.718,6.42 -1.813,1.81 -3.949,2.707 -6.42,2.707 l -347.182,0 c -2.474,0 -4.615,-0.897 -6.423,-2.707 -1.807,-1.811 -2.712,-3.949 -2.712,-6.42 l 0,-91.361 c 0,-2.479 0.905,-4.613 2.712,-6.428 1.809,-1.803 3.949,-2.703 6.423,-2.703 l 347.183,0 c 2.471,0 4.609,0.896 6.42,2.703 1.807,1.814 2.714,3.949 2.714,6.428 l 0,91.361 0.003,0 z"
               inkscape:connector-curvature="0"
               style="fill:#eeeeee;fill-opacity:1" />
            <path
               id="path6094"
               d="m 274.087,287.786 c -6.283,0 -11.662,2.231 -16.132,6.708 -4.473,4.476 -6.714,9.852 -6.714,16.132 0,6.279 2.237,11.659 6.714,16.132 4.473,4.477 9.849,6.707 16.132,6.707 6.283,0 11.663,-2.23 16.132,-6.707 4.47,-4.47 6.715,-9.849 6.715,-16.132 0,-6.28 -2.238,-11.663 -6.715,-16.132 -4.475,-4.473 -9.848,-6.708 -16.132,-6.708 z"
               inkscape:connector-curvature="0"
               style="fill:#eeeeee;fill-opacity:1" />
            <path
               id="path6096"
               d="m 347.178,287.786 c -6.283,0 -11.663,2.238 -16.136,6.708 -4.473,4.476 -6.707,9.852 -6.707,16.132 0,6.279 2.234,11.659 6.707,16.132 4.473,4.477 9.853,6.707 16.136,6.707 6.276,0 11.663,-2.23 16.132,-6.707 4.47,-4.47 6.715,-9.849 6.715,-16.132 0,-6.28 -2.238,-11.663 -6.715,-16.132 -4.477,-4.473 -9.855,-6.708 -16.132,-6.708 z"
               inkscape:connector-curvature="0"
               style="fill:#eeeeee;fill-opacity:1" />
          </g>
        </g>
        <g
           id="g6098"
           style="fill:#202a31;fill-opacity:0.53846154" />
        <g
           id="g6100"
           style="fill:#202a31;fill-opacity:0.53846154" />
        <g
           id="g6102"
           style="fill:#202a31;fill-opacity:0.53846154" />
        <g
           id="g6104"
           style="fill:#202a31;fill-opacity:0.53846154" />
        <g
           id="g6106"
           style="fill:#202a31;fill-opacity:0.53846154" />
        <g
           id="g6108"
           style="fill:#202a31;fill-opacity:0.53846154" />
        <g
           id="g6110"
           style="fill:#202a31;fill-opacity:0.53846154" />
        <g
           id="g6112"
           style="fill:#202a31;fill-opacity:0.53846154" />
        <g
           id="g6114"
           style="fill:#202a31;fill-opacity:0.53846154" />
        <g
           id="g6116"
           style="fill:#202a31;fill-opacity:0.53846154" />
        <g
           id="g6118"
           style="fill:#202a31;fill-opacity:0.53846154" />
        <g
           id="g6120"
           style="fill:#202a31;fill-opacity:0.53846154" />
        <g
           id="g6122"
           style="fill:#202a31;fill-opacity:0.53846154" />
        <g
           id="g6124"
           style="fill:#202a31;fill-opacity:0.53846154" />
        <g
           id="g6126"
           style="fill:#202a31;fill-opacity:0.53846154" />
      </g>
    </g>
  </g>
</svg>
