<?xml version="1.0" encoding="UTF-8" standalone="no"?>
<!-- Generator: Adobe Illustrator 21.1.0, SVG Export Plug-In . SVG Version: 6.00 Build 0)  -->

<svg
   xmlns:dc="http://purl.org/dc/elements/1.1/"
   xmlns:cc="http://creativecommons.org/ns#"
   xmlns:rdf="http://www.w3.org/1999/02/22-rdf-syntax-ns#"
   xmlns:svg="http://www.w3.org/2000/svg"
   xmlns="http://www.w3.org/2000/svg"
   xmlns:sodipodi="http://sodipodi.sourceforge.net/DTD/sodipodi-0.dtd"
   xmlns:inkscape="http://www.inkscape.org/namespaces/inkscape"
   version="1.1"
   id="Layer_1"
   x="0px"
   y="0px"
   viewBox="0 0 48 48"
   xml:space="preserve"
   inkscape:version="0.91 r13725"
   sodipodi:docname="locate.svg"
   width="48"
   height="48"><metadata
     id="metadata17"><rdf:RDF><cc:Work
         rdf:about=""><dc:format>image/svg+xml</dc:format><dc:type
           rdf:resource="http://purl.org/dc/dcmitype/StillImage" /><dc:title></dc:title></cc:Work></rdf:RDF></metadata><defs
     id="defs15" /><sodipodi:namedview
     pagecolor="#ffffff"
     bordercolor="#666666"
     borderopacity="1"
     objecttolerance="10"
     gridtolerance="10"
     guidetolerance="10"
     inkscape:pageopacity="0"
     inkscape:pageshadow="2"
     inkscape:window-width="1040"
     inkscape:window-height="480"
     id="namedview13"
     showgrid="false"
     inkscape:zoom="3.9663866"
     inkscape:cx="29.75"
     inkscape:cy="29.75"
     inkscape:window-x="0"
     inkscape:window-y="0"
     inkscape:window-maximized="0"
     inkscape:current-layer="Layer_1" /><style
     type="text/css"
     id="style3">
	.st0{fill:#F79233;}
	.st1{fill:#EEEEEE;}
</style><circle
     class="st0"
     cx="29.5"
     cy="17.9"
     r="28.700001"
     id="circle5"
     style="fill:#ffffff;fill-opacity:0" /><g
     id="g7"
     transform="matrix(0.73883179,0,0,0.73883179,2.049827,3.1718124)"><g
       id="g9"><path
         class="st1"
         d="M 33.1,49.8 45.5,14 c 0.3,-0.8 0.9,-2.7 0.3,-3.3 -0.7,-0.5 -2.4,0.3 -3.1,0.7 L 8,26.4 c -0.8,0.4 -1.3,1.2 -1.3,2.1 0,0.9 0.5,1.7 1.3,1.7 l 17.2,2.9 c 0.7,0.5 0.5,0.3 0.7,1 L 29,49.9 c 0.4,0.8 1.2,1.3 2.1,1.3 0.9,-0.1 1.7,-0.6 2,-1.4 z"
         id="path11"
         inkscape:connector-curvature="0"
         style="fill:#eeeeee" /></g></g></svg>