<?xml version="1.0" encoding="utf-8"?>
<!-- Generator: Adobe Illustrator 19.1.1, SVG Export Plug-In . SVG Version: 6.00 Build 0)  -->
<svg version="1.1" id="Layer_1" xmlns="http://www.w3.org/2000/svg" xmlns:xlink="http://www.w3.org/1999/xlink" x="0px" y="0px"
	 viewBox="0 0 48 48" style="enable-background:new 0 0 48 48;" xml:space="preserve">
<style type="text/css">
	.st0{fill:#EEEEEE;}
</style>
<g>
	<path class="st0" d="M40.6,17l-8-8.4c-1.1,1.1-2.4,2.3-3.4,3.2c-0.6,0.6-2.7,2.5-2.8,2.7c-0.1,0.1-1,0.9-1.8,1.7
		c0,0-0.1,0.1-0.1,0.1c-0.1,0.1-0.1,0.1-0.2,0.2c-1.7,1.7-3.5,3.5-4.1,3.9c-0.1,0.1-0.7,0.7-0.9,0.8c0,0,0,0,0,0L8.9,31l8,8.5
		L40.6,17z M11.7,31l1.3-1.2l1.8,1.9l1.4-1.3l-1.8-1.9l1.4-1.3l3.1,3.3l1.4-1.3l-3.1-3.3l1.4-1.3l1.8,1.9l1.4-1.3L20,23.2l1.4-1.3
		l1.8,1.9l1.4-1.3l-1.8-1.9l1.4-1.3l3.1,3.3l1.4-1.3l-3.1-3.3l1.4-1.3l1.8,1.9l1.4-1.3l-1.8-1.9l1.4-1.3l1.8,1.9l1.4-1.3l-1.8-1.9
		l1.3-1.2l5.4,5.7L17,36.7L11.7,31z"/>
	<g>
	</g>
	<g>
	</g>
	<g>
	</g>
	<g>
	</g>
	<g>
	</g>
	<g>
	</g>
	<g>
	</g>
	<g>
	</g>
	<g>
	</g>
	<g>
	</g>
	<g>
	</g>
	<g>
	</g>
	<g>
	</g>
	<g>
	</g>
	<g>
	</g>
</g>
</svg>
