<?xml version="1.0" encoding="UTF-8" standalone="no"?>
<svg
   xmlns:dc="http://purl.org/dc/elements/1.1/"
   xmlns:cc="http://creativecommons.org/ns#"
   xmlns:rdf="http://www.w3.org/1999/02/22-rdf-syntax-ns#"
   xmlns:svg="http://www.w3.org/2000/svg"
   xmlns="http://www.w3.org/2000/svg"
   xmlns:sodipodi="http://sodipodi.sourceforge.net/DTD/sodipodi-0.dtd"
   xmlns:inkscape="http://www.inkscape.org/namespaces/inkscape"
   enable-background="new 0 0 32 32"
   height="48"
   id="svg2"
   version="1.1"
   viewBox="0 0 48 48"
   width="48"
   xml:space="preserve"
   inkscape:version="0.91 r13725"
   sodipodi:docname="network-edit.svg"><metadata
     id="metadata17"><rdf:RDF><cc:Work
         rdf:about=""><dc:format>image/svg+xml</dc:format><dc:type
           rdf:resource="http://purl.org/dc/dcmitype/StillImage" /><dc:title></dc:title></cc:Work></rdf:RDF></metadata><defs
     id="defs15" /><sodipodi:namedview
     pagecolor="#ffffff"
     bordercolor="#666666"
     borderopacity="1"
     objecttolerance="10"
     gridtolerance="10"
     guidetolerance="10"
     inkscape:pageopacity="0"
     inkscape:pageshadow="2"
     inkscape:window-width="1920"
     inkscape:window-height="1018"
     id="namedview13"
     showgrid="false"
     inkscape:zoom="7.375"
     inkscape:cx="-4"
     inkscape:cy="16"
     inkscape:window-x="-8"
     inkscape:window-y="-8"
     inkscape:window-maximized="1"
     inkscape:current-layer="network_x5F_edit" /><g
     id="background"
     transform="translate(0,16)"><rect
       height="32"
       width="32"
       id="rect4"
       x="0"
       y="0"
       style="fill:none" /></g><g
     id="network_x5F_edit"
     transform="matrix(1.0666667,0,0,1.0666667,5.9683616,6.1378534)"><g
       id="g4173"
       transform="matrix(0.93750003,0,0,0.93750003,1.0565413,1.2341096)"><path
         inkscape:connector-curvature="0"
         id="path7"
         d="m 6.9052712,1.7457627 c -2.7610002,0 -5.0006103,2.2386099 -5.0006103,5.0006104 0,2.4189993 1.7188536,4.4350699 4.0008547,4.8980709 l 0,8.201293 c -2.2820011,0.463001 -4.0008547,2.479902 -4.0008547,4.899903 0,2.762998 2.2396101,5.00061 5.0006103,5.00061 2.7610002,0 4.9987788,-2.237612 4.9987788,-5.00061 0,-2.420001 -1.717023,-4.437903 -3.9990232,-4.899903 l 0,-8.199463 c 0.6379997,-0.129999 1.2291506,-0.38359 1.7541506,-0.73059 l 6.2164296,6.216431 c -1.230999,1.537999 -1.970214,3.488013 -1.970214,5.614013 0,4.971 4.026634,8.997633 8.999633,8.999633 4.971,-0.002 8.997636,-4.028633 8.999633,-8.999633 -0.002,-3.919 -2.507365,-7.241783 -6.000365,-8.477783 l 0,-2.623901 c 2.281,-0.463001 4.000854,-2.4790716 4.000854,-4.8980709 0,-2.7620005 -2.23961,-5.0006104 -5.00061,-5.0006104 -2.761,0 -5.00061,2.2386099 -5.00061,5.0006104 0,2.4189993 1.719855,4.4350699 4.000854,4.8980709 l 0,2.158813 c -0.329,-0.036 -0.661756,-0.05859 -0.999756,-0.05859 -2.125999,0 -4.075845,0.740046 -5.615844,1.972046 l -6.2146,-6.2164297 C 11.596583,8.7092827 11.90405,7.7653768 11.90405,6.7463771 11.90405,3.9843766 9.6662714,1.7457667 6.9052712,1.7457667 Z M 6.8228734,4.3733263 A 2.34375,2.309283 0 0 1 9.1666233,6.6822856 2.34375,2.309283 0 0 1 6.8228734,8.9912459 2.34375,2.309283 0 0 1 4.4791235,6.6822856 2.34375,2.309283 0 0 1 6.8228734,4.3733263 Z M 24.944821,4.5216416 a 2.34375,2.309283 0 0 1 2.34375,2.3089593 2.34375,2.309283 0 0 1 -2.34375,2.3089603 2.34375,2.309283 0 0 1 -2.34375,-2.3089603 2.34375,2.309283 0 0 1 2.34375,-2.3089593 z M 22.905026,15.861362 c 3.799,0.008 6.873935,3.083766 6.882935,6.884766 -0.009,3.799 -3.083935,6.873934 -6.882935,6.882934 -3.801,-0.009 -6.875765,-3.083934 -6.884765,-6.882934 0.009,-3.801 3.083765,-6.876766 6.884765,-6.884766 z M 6.8942846,22.317661 a 2.34375,2.309283 0 0 1 2.34375,2.30896 2.34375,2.309283 0 0 1 -2.34375,2.30896 2.34375,2.309283 0 0 1 -2.3437499,-2.30896 2.34375,2.309283 0 0 1 2.3437499,-2.30896 z"
         style="fill:#eeeeee;fill-opacity:1" /><polygon
         transform="translate(-0.09521486,-0.25451619)"
         style="fill:#eeeeee;fill-opacity:1"
         id="polygon9"
         points="19,24 22,27 19,27 " /><rect
         style="fill:#eeeeee;fill-opacity:1"
         id="rect11"
         y="-34.400806"
         x="-5.0630341"
         width="7.0709324"
         transform="matrix(-0.70710678,0.70710678,-0.70710678,-0.70710678,0,0)"
         height="4.2429595" /></g></g></svg>