<?xml version="1.0" encoding="UTF-8" standalone="no"?>
<!-- Created with Inkscape (http://www.inkscape.org/) -->

<svg
   xmlns:dc="http://purl.org/dc/elements/1.1/"
   xmlns:cc="http://creativecommons.org/ns#"
   xmlns:rdf="http://www.w3.org/1999/02/22-rdf-syntax-ns#"
   xmlns:svg="http://www.w3.org/2000/svg"
   xmlns="http://www.w3.org/2000/svg"
   xmlns:sodipodi="http://sodipodi.sourceforge.net/DTD/sodipodi-0.dtd"
   xmlns:inkscape="http://www.inkscape.org/namespaces/inkscape"
   width="48"
   height="48"
   viewBox="0 0 12.7 12.7"
   version="1.1"
   id="svg8"
   inkscape:version="0.92.4 (5da689c313, 2019-01-14)"
   sodipodi:docname="options.svg">
  <defs
     id="defs2" />
  <sodipodi:namedview
     id="base"
     pagecolor="#ffffff"
     bordercolor="#666666"
     borderopacity="1.0"
     inkscape:pageopacity="0.0"
     inkscape:pageshadow="2"
     inkscape:zoom="11.2"
     inkscape:cx="28.326772"
     inkscape:cy="16.0687"
     inkscape:document-units="mm"
     inkscape:current-layer="g91"
     showgrid="false"
     units="px"
     inkscape:window-width="1920"
     inkscape:window-height="1017"
     inkscape:window-x="1912"
     inkscape:window-y="-8"
     inkscape:window-maximized="1" />
  <metadata
     id="metadata5">
    <rdf:RDF>
      <cc:Work
         rdf:about="">
        <dc:format>image/svg+xml</dc:format>
        <dc:type
           rdf:resource="http://purl.org/dc/dcmitype/StillImage" />
        <dc:title></dc:title>
      </cc:Work>
    </rdf:RDF>
  </metadata>
  <g
     inkscape:label="Layer 1"
     inkscape:groupmode="layer"
     id="layer1"
     transform="translate(0,-284.3)">
    <g
       id="g91"
       transform="matrix(0.01653646,0,0,0.01653646,2.031622,289.54442)">
      <path
         id="path74"
         d="m 320,64 c 0,35.347656 -28.65234,64 -64,64 -35.34766,0 -64,-28.652344 -64,-64 0,-35.347656 28.65234,-64 64,-64 35.34766,0 64,28.652344 64,64 z m 0,0"
         inkscape:connector-curvature="0"
         style="stroke:#eeeeee;stroke-opacity:1;fill:#eeeeee;fill-opacity:1" />
      <path
         id="path76"
         d="M 128,64 C 128,99.347656 99.347656,128 64,128 28.652344,128 0,99.347656 0,64 0,28.652344 28.652344,0 64,0 c 35.347656,0 64,28.652344 64,64 z m 0,0"
         inkscape:connector-curvature="0"
         style="stroke:#eeeeee;stroke-opacity:1;fill:#eeeeee;fill-opacity:1" />
      <path
         id="path78"
         d="m 512,64 c 0,35.347656 -28.65234,64 -64,64 -35.34766,0 -64,-28.652344 -64,-64 0,-35.347656 28.65234,-64 64,-64 35.34766,0 64,28.652344 64,64 z m 0,0"
         inkscape:connector-curvature="0"
         style="fill:#eeeeee;fill-opacity:1" />
    </g>
  </g>
  <style
     id="style10"
     type="text/css">
	.st0{fill:#EEEEEE;}
</style>
</svg>
