<?xml version="1.0" encoding="UTF-8" standalone="no"?>
<!-- Generator: Adobe Illustrator 18.1.1, SVG Export Plug-In . SVG Version: 6.00 Build 0)  -->

<svg
   xmlns:dc="http://purl.org/dc/elements/1.1/"
   xmlns:cc="http://creativecommons.org/ns#"
   xmlns:rdf="http://www.w3.org/1999/02/22-rdf-syntax-ns#"
   xmlns:svg="http://www.w3.org/2000/svg"
   xmlns="http://www.w3.org/2000/svg"
   xmlns:sodipodi="http://sodipodi.sourceforge.net/DTD/sodipodi-0.dtd"
   xmlns:inkscape="http://www.inkscape.org/namespaces/inkscape"
   version="1.1"
   id="Capa_1"
   x="0px"
   y="0px"
   viewBox="0 0 40.000001 40.000001"
   xml:space="preserve"
   inkscape:version="0.91 r13725"
   sodipodi:docname="phone-menu-btn.svg"
   width="40"
   height="40"><metadata
     id="metadata4811"><rdf:RDF><cc:Work
         rdf:about=""><dc:format>image/svg+xml</dc:format><dc:type
           rdf:resource="http://purl.org/dc/dcmitype/StillImage" /><dc:title></dc:title></cc:Work></rdf:RDF></metadata><defs
     id="defs4809" /><sodipodi:namedview
     pagecolor="#ffffff"
     bordercolor="#666666"
     borderopacity="1"
     objecttolerance="10"
     gridtolerance="10"
     guidetolerance="10"
     inkscape:pageopacity="0"
     inkscape:pageshadow="2"
     inkscape:window-width="1920"
     inkscape:window-height="1018"
     id="namedview4807"
     showgrid="false"
     inkscape:zoom="3.3655878"
     inkscape:cx="154.34207"
     inkscape:cy="102.69788"
     inkscape:window-x="-8"
     inkscape:window-y="-8"
     inkscape:window-maximized="1"
     inkscape:current-layer="Capa_1" /><g
     id="g4767"
     transform="matrix(0.0806722,0,0,0.0806722,4.1373761,4.1542914)"><g
       id="g4769"><path style="fill: #eee"
         d="m 17,87.833 362.667,0 c 9.35,0 17,-7.65 17,-17 0,-9.35 -7.65,-17 -17,-17 L 17,53.833 c -9.35,0 -17,7.65 -17,17 0,9.35 7.65,17 17,17 z"
         id="path4771"
         inkscape:connector-curvature="0" /><path style="fill: #eee"
         d="m 17,215.333 362.667,0 c 9.35,0 17,-7.65 17,-17 0,-9.35 -7.65,-17 -17,-17 l -362.667,0 c -9.35,0 -17,7.65 -17,17 0,9.35 7.65,17 17,17 z"
         id="path4773"
         inkscape:connector-curvature="0" /><path style="fill: #eee"
         d="m 17,342.833 362.667,0 c 9.35,0 17,-7.65 17,-17 0,-9.35 -7.65,-17 -17,-17 l -362.667,0 c -9.35,0 -17,7.65 -17,17 0,9.35 7.65,17 17,17 z"
         id="path4775"
         inkscape:connector-curvature="0" /></g></g></svg>