<?xml version="1.0" encoding="utf-8"?>
<!-- Generator: Adobe Illustrator 19.1.1, SVG Export Plug-In . SVG Version: 6.00 Build 0)  -->
<svg version="1.1" id="Layer_1" xmlns="http://www.w3.org/2000/svg" xmlns:xlink="http://www.w3.org/1999/xlink" x="0px" y="0px"
	 viewBox="0 0 48 48" style="enable-background:new 0 0 48 48;" xml:space="preserve">
<style type="text/css">
	.st0{fill:#EEEEEE;}
</style>
<g>
	<g>
		<g>
			<rect x="18.4" y="32" class="st0" width="10" height="2"/>
			<path class="st0" d="M16.4,10h16v4h2v-4c0-1.1-0.9-2-2-2h-16c-1.1,0-2,0.9-2,2v4h2V10z"/>
			<rect x="18.4" y="28" class="st0" width="12" height="2"/>
			<path class="st0" d="M38.4,16h-28c-1.1,0-2,0.9-2,2v12c0,1.1,0.9,2,2,2h4v6c0,1.1,0.9,2,2,2h16c1.1,0,2-0.9,2-2v-6h4
				c1.1,0,2-0.9,2-2V18C40.4,16.9,39.5,16,38.4,16z M32.4,38h-16V26h16L32.4,38L32.4,38z M36.4,22c-1.1,0-2-0.9-2-2c0-1.1,0.9-2,2-2
				c1.1,0,2,0.9,2,2C38.4,21.1,37.5,22,36.4,22z"/>
		</g>
	</g>
	<g>
	</g>
	<g>
	</g>
	<g>
	</g>
	<g>
	</g>
	<g>
	</g>
	<g>
	</g>
	<g>
	</g>
	<g>
	</g>
	<g>
	</g>
	<g>
	</g>
	<g>
	</g>
	<g>
	</g>
	<g>
	</g>
	<g>
	</g>
	<g>
	</g>
</g>
</svg>
