<?xml version="1.0" encoding="utf-8"?>
<!-- Generator: Adobe Illustrator 19.1.1, SVG Export Plug-In . SVG Version: 6.00 Build 0)  -->
<svg version="1.1" id="Layer_1" xmlns="http://www.w3.org/2000/svg" xmlns:xlink="http://www.w3.org/1999/xlink" x="0px" y="0px"
	 viewBox="0 0 48 48" style="enable-background:new 0 0 48 48;" xml:space="preserve">
<style type="text/css">
	.st0{fill:#EEEEEE;}
</style>
<g>
	<g>
		<path class="st0" d="M37.9,18.1l-1.3,1.3l-8-8l1.3-1.3c1.5-1.5,3.8-1.5,5.3,0l2.7,2.7C39.4,14.2,39.4,16.6,37.9,18.1z M19.3,34
			c-0.4,0.4-0.4,1,0,1.3c0.4,0.4,1,0.4,1.3,0l14.6-14.6l-1.3-1.3L19.3,34z M12.7,27.3c-0.4,0.4-0.4,1,0,1.3c0.4,0.4,1,0.4,1.3,0
			l14.6-14.6l-1.3-1.3L12.7,27.3z M29.9,15.4L15.4,30c-0.7,0.7-0.7,1.9,0,2.7c0.7,0.7,1.9,0.7,2.7,0l14.6-14.6L29.9,15.4z M18,36.6
			c-0.4-0.4-0.7-1-0.7-1.6c-0.2,0-0.4,0.1-0.6,0.1c-1,0-1.9-0.4-2.7-1.1c-0.7-0.7-1.1-1.6-1.1-2.7c0-0.2,0-0.4,0.1-0.5
			c-0.6-0.1-1.2-0.3-1.6-0.8c0,0-0.1-0.1-0.1-0.1L9,39l9.1-2.3C18.1,36.7,18,36.6,18,36.6z"/>
	</g>
	<g>
	</g>
	<g>
	</g>
	<g>
	</g>
	<g>
	</g>
	<g>
	</g>
	<g>
	</g>
	<g>
	</g>
	<g>
	</g>
	<g>
	</g>
	<g>
	</g>
	<g>
	</g>
	<g>
	</g>
	<g>
	</g>
	<g>
	</g>
	<g>
	</g>
</g>
</svg>
