<svg id="Layer_1" data-name="Layer 1" xmlns="http://www.w3.org/2000/svg" width="36.69mm" height="10.17mm" viewBox="0 0 104 28.84">
  <defs>
    <style>
      .cls-1 {
        fill: #1d1d1b;
      }

      .cls-2 {
        fill: #00bf43;
      }
    </style>
  </defs>
  <title>IQGeo</title>
  <g>
    <rect class="cls-1" y="6" width="4" height="20"/>
    <path class="cls-1" d="M26.21,21.71a10,10,0,1,0-2.89,2.76L28,28.84,30.83,26ZM12,16a6,6,0,1,1,6,6A6,6,0,0,1,12,16Z"/>
    <path class="cls-1" d="M51.8,14H42v4h5.65A6,6,0,1,1,42,10h.16a6,6,0,0,1,4,1.67L49,8.85a9.88,9.88,0,0,0-3.46-2.2,10,10,0,1,0,0,18.7A10,10,0,0,0,51.8,18a10.1,10.1,0,0,0,0-4Z"/>
    <path class="cls-1" d="M74.8,14A10,10,0,1,0,72,23.15l-2.83-2.83a6,6,0,0,1-4,1.67H65a6,6,0,0,1-5.65-4H74.8a10.1,10.1,0,0,0,0-4ZM59.35,14a6,6,0,0,1,11.3,0Z"/>
    <path class="cls-1" d="M88,6A10,10,0,1,0,98,16,10,10,0,0,0,88,6Zm0,16a6,6,0,1,1,6-6A6,6,0,0,1,88,22Z"/>
    <path class="cls-2" d="M103,1A3.49,3.49,0,1,0,103,6,3.48,3.48,0,0,0,103,1Zm-1.41,3.53a1.5,1.5,0,1,1,0-2.12A1.49,1.49,0,0,1,101.56,4.56Z"/>
  </g>
</svg>
