<?xml version="1.0" encoding="UTF-8" standalone="no"?><svg
   xmlns="http://www.w3.org/2000/svg"
   version="1.1"
   viewBox="0 0 31.999999 31.999998"
   height="32"
   width="32">
  <g transform="translate(0,-1020.3622)" id="layer1">
    <g style="fill:#ff0000" transform="matrix(1,0,0,0.99056592,-7.1746996,1012.7771)">
      <path style="fill:#ff0000" d="M 35.3,19.1 C 35.2,18.8 35,18.7 34.7,18.6 L 26.5,17.4 30.3,9 C 30.4,8.8 30.4,8.5 30.2,8.3 30.1,8.1 29.8,8 29.6,8 L 21.8,8 C 21.4,8 20.6,8.1 20.6,8.5 L 17,23.6 c 0,0.4 0.3,0.7 0.6,0.7 l 5.7,0.8 -7.6,13.7 c -0.2,0.3 -0.1,0.7 0.2,0.9 0.1,0.1 0.3,0.1 0.4,0.1 0.2,0 0.4,-0.1 0.5,-0.2 l 18.3,-20 c 0.2,0 0.3,-0.3 0.2,-0.5 z"/>
    </g>
  </g>
</svg>
