<?xml version="1.0" encoding="UTF-8" standalone="no"?><svg xmlns="http://www.w3.org/2000/svg" x="0px" y="0px" width="32" height="32" viewBox="0 0 32 32" style="enable-background:new 0 0 32 32;"
   xml:space="preserve"><style>.st0{fill:#FF1300;} .st1{fill:#333333;}</style><path class="st0" d="m 15.862702,0.90443064 c -4.631776,0 -8.3950931,3.73421796 -8.3950931,8.45112396 0,1.0809584 0.1929907,2.1619154 0.578972,3.2428734 l 0,0 0,0.09825 c 0,0.09826 0.096495,0.09826 0.096495,0.196539 l 4.4303631,5.382486 3.592842,11.002723 3.592538,-10.365463 3.630518,-5.92147 0,-0.09825 c 0,-0.09825 0.0965,-0.09825 0.0965,-0.196538 l 0,-0.09825 c 0.385976,-0.982711 0.578967,-2.06367 0.578967,-3.2428964 0.192991,-4.7169061 -3.570327,-8.45112396 -8.202102,-8.45112396 z"/><path class="st1" d="m 16.053733,0.30287118 c -4.933767,0 -8.9976238,3.94896792 -8.9976238,8.86203522 0,1.0596776 0.1946147,2.3120316 0.6783172,3.3717146 l 0,0.09784 c 0,0.09635 0.096362,0.191921 0.096362,0.191921 4.3718596,4.905596 6.3236356,12.779103 8.2229436,19.010489 2.198568,-6.183416 3.983457,-14.390884 8.126581,-18.914536 l 0,-0.09596 c 0,-0.09635 0.09636,-0.191922 0.09636,-0.191922 l 0,-0.09784 c 0.386962,-1.059683 0.676428,-2.215698 0.676428,-3.3717145 0.09674,-4.9130574 -3.965606,-8.8620254 -8.899372,-8.8620254 z m 0,1.15526342 c 4.353323,0 7.931966,3.4695524 7.931966,7.804612 0,0.8670094 -0.289466,1.9266934 -0.676428,2.8900394 0,0.0963 -0.09636,0.09562 -0.09636,0.191915 l -0.09636,0.096 C 19.658099,16.958463 17.54615,22.880486 16.126658,28.365144 15.040565,23.323633 12.890726,17.482171 8.8945568,12.44066 l -0.096362,-0.09598 c 0,0 3.778e-4,-0.09598 -0.096362,-0.09598 -0.386962,-0.96335 -0.5800651,-2.022651 -0.5800652,-2.9859986 0,-4.335052 3.5786426,-7.8046047 7.9319656,-7.8046046 z" /></svg>