<?xml version="1.0" encoding="UTF-8" standalone="no"?>
<!-- Generated by IcoMoon.io -->

<svg
   xmlns:dc="http://purl.org/dc/elements/1.1/"
   xmlns:cc="http://creativecommons.org/ns#"
   xmlns:rdf="http://www.w3.org/1999/02/22-rdf-syntax-ns#"
   xmlns:svg="http://www.w3.org/2000/svg"
   xmlns="http://www.w3.org/2000/svg"
   xmlns:sodipodi="http://sodipodi.sourceforge.net/DTD/sodipodi-0.dtd"
   xmlns:inkscape="http://www.inkscape.org/namespaces/inkscape"
   version="1.1"
   width="10"
   height="10"
   viewBox="0 0 10 10"
   id="svg4121"
   inkscape:version="0.48.4 r9939"
   sodipodi:docname="rotation_handle.svg">
  <metadata
     id="metadata4129">
    <rdf:RDF>
      <cc:Work
         rdf:about="">
        <dc:format>image/svg+xml</dc:format>
        <dc:type
           rdf:resource="http://purl.org/dc/dcmitype/StillImage" />
      </cc:Work>
    </rdf:RDF>
  </metadata>
  <defs
     id="defs4127" />
  <sodipodi:namedview
     pagecolor="#ffffff"
     bordercolor="#666666"
     borderopacity="1"
     objecttolerance="10"
     gridtolerance="10"
     guidetolerance="10"
     inkscape:pageopacity="0"
     inkscape:pageshadow="2"
     inkscape:window-width="1920"
     inkscape:window-height="979"
     id="namedview4125"
     showgrid="false"
     inkscape:zoom="41.7193"
     inkscape:cx="8.2593624"
     inkscape:cy="8.320295"
     inkscape:window-x="0"
     inkscape:window-y="28"
     inkscape:window-maximized="1"
     inkscape:current-layer="svg4121" />
  <path
     d="m 10,4.375 v -2.5 L 9.3125,2.5625 C 8.5,1 6.875,0 5,0 2.25,0 0,2.25 0,5 0,7.75 2.25,10 5,10 6.5,10 7.875,9.3125 8.75,8.25 L 7.8125,7.4375 C 7.125,8.25 6.125,8.75 5,8.75 2.9375,8.75 1.25,7.0625 1.25,5 1.25,2.9375 2.9375,1.25 5,1.25 c 1.5,0 2.8125,0.9375 3.4375,2.1875 L 7.5,4.375 H 10 z"
     id="path4123"
     inkscape:connector-curvature="0"
     style="fill:rgba(128,0,0,0.6)" />
</svg>
