<?xml version="1.0" encoding="UTF-8" standalone="no"?>
<svg
   xmlns:svg="http://www.w3.org/2000/svg"
   xmlns="http://www.w3.org/2000/svg"
   xmlns:inkscape="http://www.inkscape.org/namespaces/inkscape"
   enable-background="new 0 0 32 32"
   height="14"
   version="1.1"
   viewBox="0 0 14 14"
   width="14"
   inkscape:version="0.91 r13725"><path
     d="M 13.442344,5.3564957 C 13.329809,5.0214312 13.040956,4.7761086 12.693195,4.7228505 L 9.3106494,4.2036892 7.8403837,1.052657 C 7.6855975,0.72178598 7.3544932,0.51001178 6.9904816,0.51001178 c -0.3640117,0 -0.695116,0.2117742 -0.8499022,0.54264522 L 4.6703137,4.2036892 1.2873619,4.7228505 C 0.9400071,4.7761086 0.65115412,5.0214312 0.53902554,5.3564957 0.42730322,5.6923989 0.51180592,6.0622699 0.75718876,6.3147215 L 3.2362054,8.8694312 2.6613433,12.413398 c -0.058502,0.356871 0.091409,0.715 0.3851373,0.923839 0.1612864,0.114484 0.3510112,0.172774 0.540736,0.172774 0.156005,0 0.3124163,-0.03942 0.454202,-0.117839 l 2.949063,-1.638838 2.9494692,1.638838 c 0.1417852,0.07842 0.2981962,0.117839 0.4537952,0.117839 0.189725,0 0.37945,-0.05829 0.541143,-0.172774 0.293728,-0.208839 0.442826,-0.566968 0.384731,-0.923839 L 10.744351,8.8694312 13.22418,6.3147215 c 0.244977,-0.252871 0.329073,-0.622742 0.218164,-0.9582258 z m -3.369139,2.854129 C 9.8651984,8.4244957 9.7709454,8.7260118 9.8184781,9.021657 l 0.5752679,3.543967 -2.9494687,-1.638 c -0.1413795,-0.07884 -0.2973845,-0.117839 -0.454202,-0.117839 -0.156005,0 -0.3124162,0.03942 -0.4537957,0.117839 l -2.9494692,1.638 0.5752683,-3.543967 C 4.2100178,8.7260118 4.1157648,8.4244957 3.9077581,8.2106247 L 1.4287415,5.655915 4.811287,5.135915 C 5.1204531,5.088528 5.3865553,4.888915 5.5194033,4.6041731 L 6.9904816,1.4539795 8.4611535,4.6045924 c 0.1332543,0.284742 0.3989503,0.4839355 0.7077101,0.531742 l 3.3833584,0.52 -2.479017,2.5542903 z"
     style="fill:#333333" /></svg>