<?xml version="1.0" encoding="utf-8"?>
<!-- Generator: Adobe Illustrator 21.1.0, SVG Export Plug-In . SVG Version: 6.00 Build 0)  -->
<svg version="1.1" xmlns="http://www.w3.org/2000/svg" xmlns:xlink="http://www.w3.org/1999/xlink" x="0px" y="0px"
	 viewBox="0 0 24 24" style="enable-background:new 0 0 24 24;" xml:space="preserve">
<style type="text/css">
	.st0{display:none;}
	.st1{display:inline;}
	.st2{fill:none;stroke:#595959;stroke-width:1.8791;stroke-miterlimit:10;}
	.st3{fill:none;stroke:#595959;stroke-width:3.0066;stroke-miterlimit:10;}
	.st4{fill:#C5C5C5;}
	.st5{fill:none;stroke:#000000;stroke-width:0.1879;stroke-miterlimit:10;}
	.st6{stroke:#000000;stroke-width:0.1879;stroke-miterlimit:10;}
	.st7{fill:none;stroke:#595959;stroke-width:2.8496;stroke-miterlimit:10;}
	.st8{fill:none;stroke:#000000;stroke-width:0.1781;stroke-miterlimit:10;}
	.st9{stroke:#000000;stroke-width:0.1781;stroke-miterlimit:10;}
	.st10{display:inline;fill:none;stroke:#595959;stroke-width:1.6919;stroke-miterlimit:10;}
	.st11{fill:#595959;}
	.st12{fill:none;stroke:#595959;stroke-width:1.5;stroke-miterlimit:10;}
	.st13{display:none;fill:none;stroke:#000000;stroke-width:0.1781;stroke-miterlimit:10;}
	.st14{display:none;stroke:#000000;stroke-width:0.1781;stroke-miterlimit:10;}
	.st15{fill:none;stroke:#595959;stroke-width:1.425;stroke-miterlimit:10;}
</style>
<g id="Layer_1" class="st0">
	<g class="st1">
		<g>
			<circle class="st2" cx="12" cy="12.1" r="7.6"/>
			<line class="st3" x1="12" y1="4.5" x2="12" y2="1.5"/>
			<line class="st3" x1="22.5" y1="12" x2="19.7" y2="12"/>
			<line class="st3" x1="4.5" y1="12.1" x2="1.5" y2="12.1"/>
			<line class="st3" x1="12" y1="22.5" x2="12" y2="19.6"/>
			<circle class="st4" cx="12" cy="12.1" r="3.9"/>
		</g>
		<g>
			<g>
				<polygon points="24.1,0 0,0 0,1.5 24.1,1.5 24.1,0 				"/>
			</g>
			<g>
				<polygon points="24.1,22.5 0,22.5 0,24.1 24.1,24.1 24.1,22.5 				"/>
			</g>
			<g>
				<polygon points="1.5,0 0,0 0,24.1 1.5,24.1 1.5,0 				"/>
			</g>
			<g>
				<polygon points="24.1,0 22.5,0 22.5,24.1 24.1,24.1 24.1,0 				"/>
			</g>
		</g>
	</g>
	<line class="st5" x1="24.1" y1="0" x2="0" y2="24.1"/>
	<line class="st6" x1="0" y1="0" x2="24.1" y2="24.1"/>
</g>
<g id="version_2" class="st0">
	<g class="st1">
		<line class="st7" x1="12" y1="4.9" x2="12" y2="0"/>
		<line class="st7" x1="24" y1="12" x2="19.3" y2="12"/>
		<line class="st7" x1="4.8" y1="12.1" x2="0" y2="12.1"/>
		<line class="st7" x1="12" y1="24" x2="12" y2="19.2"/>
		<circle class="st4" cx="12" cy="12.1" r="2.1"/>
	</g>
	<g>
		<g class="st1">
			<rect x="0.6" y="0.6" width="22.8" height="0.7"/>
		</g>
		<g class="st1">
			<rect x="0.6" y="22.7" width="22.8" height="0.7"/>
		</g>
		<g class="st1">
			<rect x="0.6" y="0.6" width="0.7" height="22.8"/>
		</g>
		<g class="st1">
			<rect x="22.7" y="0.6" width="0.7" height="22.8"/>
		</g>
	</g>
	<line class="st8" x1="23.4" y1="0.6" x2="0.6" y2="23.4"/>
	<line class="st9" x1="0.6" y1="0.6" x2="23.4" y2="23.4"/>
	<circle class="st10" cx="12" cy="12.1" r="6.8"/>
</g>
<g id="version_3">
	<g>
		<path class="st7" d="M12,0"/>
		<path class="st7" d="M12,4.9"/>
		<path class="st7" d="M0,12.1"/>
		<path class="st7" d="M4.8,12.1"/>
		<path class="st7" d="M12,19.2"/>
		<path class="st7" d="M12,24"/>
		<circle class="st11" cx="12" cy="12.1" r="2.4"/>
		<line class="st12" x1="24" y1="12.1" x2="17.7" y2="12.1"/>
		<line class="st12" x1="6.3" y1="12" x2="0" y2="12"/>
		<line class="st12" x1="12" y1="0" x2="12" y2="6.3"/>
		<line class="st12" x1="12" y1="17.7" x2="12" y2="24"/>
	</g>
	<g class="st0">
		<g class="st1">
			<rect x="0.6" y="0.6" width="22.8" height="0.7"/>
		</g>
		<g class="st1">
			<rect x="0.6" y="22.7" width="22.8" height="0.7"/>
		</g>
		<g class="st1">
			<rect x="0.6" y="0.6" width="0.7" height="22.8"/>
		</g>
		<g class="st1">
			<rect x="22.7" y="0.6" width="0.7" height="22.8"/>
		</g>
	</g>
	<line class="st13" x1="23.4" y1="0.6" x2="0.6" y2="23.4"/>
	<line class="st14" x1="0.6" y1="0.6" x2="23.4" y2="23.4"/>
	<circle class="st15" cx="12" cy="12.1" r="7.2"/>
</g>
<g id="version_4" class="st0">
	<g class="st1">
		<path class="st7" d="M12,0"/>
		<path class="st7" d="M12,4.9"/>
		<path class="st7" d="M0,12.1"/>
		<path class="st7" d="M4.8,12.1"/>
		<path class="st7" d="M12,19.2"/>
		<path class="st7" d="M12,24"/>
		<circle class="st11" cx="12" cy="12.1" r="2.4"/>
		<line class="st12" x1="12" y1="0" x2="12" y2="4.3"/>
		<line class="st12" x1="12" y1="19.7" x2="12" y2="24"/>
		<line class="st12" x1="19.7" y1="12" x2="24" y2="12"/>
		<line class="st12" x1="0" y1="12" x2="4.3" y2="12"/>
	</g>
	<g>
		<g class="st1">
			<rect x="0.6" y="0.6" width="22.8" height="0.7"/>
		</g>
		<g class="st1">
			<rect x="0.6" y="22.7" width="22.8" height="0.7"/>
		</g>
		<g class="st1">
			<rect x="0.6" y="0.6" width="0.7" height="22.8"/>
		</g>
		<g class="st1">
			<rect x="22.7" y="0.6" width="0.7" height="22.8"/>
		</g>
	</g>
	<line class="st8" x1="23.4" y1="0.6" x2="0.6" y2="23.4"/>
	<line class="st9" x1="0.6" y1="0.6" x2="23.4" y2="23.4"/>
</g>
</svg>
