<?xml version="1.0" encoding="UTF-8" standalone="no"?>
<svg
   xmlns:svg="http://www.w3.org/2000/svg"
   xmlns="http://www.w3.org/2000/svg"
   xmlns:sodipodi="http://sodipodi.sourceforge.net/DTD/sodipodi-0.dtd"
   xmlns:inkscape="http://www.inkscape.org/namespaces/inkscape"
   enable-background="new 0 0 32 32"
   height="14"
   version="1.1"
   viewBox="0 0 14 14"
   width="14"
   inkscape:version="0.91 r13725"><g
     id="location"
     transform="matrix(0.43125,0,0,0.43125,0.17912111,0.2)"><g
       id="g3362"><path
         style="clip-rule:evenodd;fill:#333333;fill-rule:evenodd"
         inkscape:connector-curvature="0"
         id="path3352"
         d="m 16.002,17.746 c 3.309,0 6,-2.692 6,-6 0,-3.308 -2.691,-6 -6,-6 -3.309,0 -6,2.691 -6,6 0,3.309 2.691,6 6,6 z m 0,-11 c 2.758,0 5,2.242 5,5 0,2.758 -2.242,5 -5,5 -2.758,0 -5,-2.242 -5,-5 0,-2.758 2.242,-5 5,-5 z" /><path
         style="clip-rule:evenodd;fill:#333333;fill-rule:evenodd"
         inkscape:connector-curvature="0"
         id="path3354"
         d="M 16,0 C 9.382,0 4,5.316 4,12.001 c 0,7 6.001,14.161 10.376,19.194 0.016,0.02 0.718,0.805 1.586,0.805 0.002,0 0.073,0 0.077,0 0.867,0 1.57,-0.785 1.586,-0.805 C 22.002,26.162 28.002,19.002 28.002,12.001 28.002,5.316 22.619,0 16,0 Z m 0.117,29.883 c -0.021,0.02 -0.082,0.064 -0.135,0.098 -0.01,-0.027 -0.084,-0.086 -0.129,-0.133 C 12.188,25.631 6,18.514 6,12.001 6,6.487 10.487,2 16,2 c 5.516,0 10.002,4.487 10.002,10.002 0,6.512 -6.188,13.629 -9.885,17.881 z" /></g></g></svg>