<?xml version="1.0" encoding="UTF-8" standalone="no"?>
<!-- Generator: Adobe Illustrator 19.1.1, SVG Export Plug-In . SVG Version: 6.00 Build 0)  -->

<svg
   xmlns:svg="http://www.w3.org/2000/svg"
   xmlns="http://www.w3.org/2000/svg"
   xmlns:inkscape="http://www.inkscape.org/namespaces/inkscape"
   version="1.1"
   id="Layer_1"
   x="0px"
   y="0px"
   viewBox="4 -4 14 14"
   inkscape:version="0.91 r13725"
   width="14"
   height="14"><style
     type="text/css"
     id="style3337">
	.st0{fill:#333333;}
</style><g
     id="search_1_"
     transform="translate(0,-18)"><path
       class="st0"
       d="m 4.1876745,19.375549 c 0,2.846068 2.3286019,5.17467 5.174671,5.17467 0.8624445,0 1.6817675,-0.215611 2.4148465,-0.603711 l 3.579147,3.579147 0,0 C 15.615072,27.827511 16.003173,28 16.434395,28 c 0.819323,0 1.509279,-0.689956 1.509279,-1.509279 0,-0.431222 -0.172489,-0.819323 -0.474345,-1.078056 l 0,0 -3.579147,-3.579147 c 0.431222,-0.776202 0.646834,-1.595525 0.646834,-2.457969 0,-2.846069 -2.328602,-5.174672 -5.1746705,-5.174672 -2.8460691,0 -5.174671,2.328603 -5.174671,5.174672 z m 12.8073105,6.554583 c 0.129366,0.129367 0.21561,0.344978 0.21561,0.560589 0,0.431223 -0.344977,0.7762 -0.7762,0.7762 -0.215611,0 -0.3881,-0.08624 -0.560589,-0.21561 l 0,0 -3.492903,-3.492904 c 0.431222,-0.301855 0.7762,-0.646833 1.078056,-1.078056 l 3.536026,3.449781 z M 13.67457,19.375549 c 0,2.371724 -1.940501,4.312225 -4.3122245,4.312225 -2.3717243,0 -4.3122259,-1.940501 -4.3122259,-4.312225 0,-2.371725 1.9405016,-4.312226 4.3122259,-4.312226 2.3717235,0 4.3122245,1.940501 4.3122245,4.312226 z"
       id="path3340"
       inkscape:connector-curvature="0"
       style="fill:#333333" /><path
       class="st0"
       d="m 6.1726812,19.320174 c 0,1.872 1.4880004,3.360004 3.3600028,3.360004 0.144,0 0.2399972,-0.09599 0.2399972,-0.239996 0,-0.144 -0.095997,-0.240008 -0.2399972,-0.240008 -1.5840024,0 -2.8800024,-1.296 -2.8800024,-2.88 0,-0.144 -0.096,-0.239996 -0.2400008,-0.239996 -0.144,0 -0.2399996,0.09599 -0.2399996,0.239996 z"
       id="path3342"
       inkscape:connector-curvature="0"
       style="fill:#333333" /></g></svg>