<?xml version="1.0" encoding="utf-8"?>
<!-- Generator: Adobe Illustrator 19.1.1, SVG Export Plug-In . SVG Version: 6.00 Build 0)  -->
<svg version="1.1" id="Layer_1" xmlns="http://www.w3.org/2000/svg" xmlns:xlink="http://www.w3.org/1999/xlink" x="0px" y="0px"
	 viewBox="0 0 18 18" style="enable-background:new 0 0 18 18;" xml:space="preserve">
<style type="text/css">
	.st0{fill:#656564;}
</style>
<g>
	<path class="st0" d="M14.8,8.4l-4.4-3.6C10.2,4.5,10,4.3,9.6,4.3c-0.5,0-0.8,0.4-0.8,0.8v2.6H3.1c-0.4,0-0.8,0.2-0.8,0.6V10
		c0,0.4,0.4,0.7,0.8,0.7h5.7v2.6c0,0.4,0.3,0.8,0.8,0.8c0.4,0,0.6-0.2,0.8-0.4l4.4-3.6c0.3-0.3,0.5-0.5,0.5-0.8
		C15.3,8.8,15.1,8.6,14.8,8.4z"/>
</g>
</svg>
