<?xml version="1.0" encoding="utf-8"?>
<!-- Generator: Adobe Illustrator 19.1.1, SVG Export Plug-In . SVG Version: 6.00 Build 0)  -->
<svg version="1.1" id="Layer_1" xmlns="http://www.w3.org/2000/svg" xmlns:xlink="http://www.w3.org/1999/xlink" x="0px" y="0px"
	 viewBox="0 0 18 18" style="enable-background:new 0 0 18 18;" xml:space="preserve">
<style type="text/css">
	.st0{fill:#656564;}
	.st1{fill:#706F6F;stroke:#706F6F;stroke-width:2;stroke-miterlimit:10;}
</style>
<g>
	<path class="st0" d="M4.3,10l4.4,3.6C8.9,13.8,9.1,14,9.5,14c0.5,0,0.8-0.4,0.8-0.8v-2.6H16c0.4,0,0.8-0.2,0.8-0.6V8.4
		c0-0.4-0.4-0.7-0.8-0.7h-5.7V5.1c0-0.4-0.3-0.8-0.8-0.8c-0.4,0-0.6,0.2-0.8,0.4L4.3,8.4C4,8.6,3.8,8.8,3.8,9.2
		C3.8,9.5,4,9.7,4.3,10z"/>
</g>
<line class="st1" x1="2.3" y1="1.1" x2="2.3" y2="16.8"/>
</svg>
