<?xml version="1.0" encoding="UTF-8" standalone="no"?>
<!-- Generator: Adobe Illustrator 19.1.1, SVG Export Plug-In . SVG Version: 6.00 Build 0)  -->

<svg
   xmlns:dc="http://purl.org/dc/elements/1.1/"
   xmlns:cc="http://creativecommons.org/ns#"
   xmlns:rdf="http://www.w3.org/1999/02/22-rdf-syntax-ns#"
   xmlns:svg="http://www.w3.org/2000/svg"
   xmlns="http://www.w3.org/2000/svg"
   xmlns:sodipodi="http://sodipodi.sourceforge.net/DTD/sodipodi-0.dtd"
   xmlns:inkscape="http://www.inkscape.org/namespaces/inkscape"
   version="1.1"
   id="Layer_1"
   x="0px"
   y="0px"
   viewBox="244 -244 18 18"
   xml:space="preserve"
   inkscape:version="0.91 r13725"
   sodipodi:docname="zoom_to_object.svg"
   width="18"
   height="18"><metadata
     id="metadata4157"><rdf:RDF><cc:Work
         rdf:about=""><dc:format>image/svg+xml</dc:format><dc:type
           rdf:resource="http://purl.org/dc/dcmitype/StillImage" /><dc:title></dc:title></cc:Work></rdf:RDF></metadata><defs
     id="defs4155" /><sodipodi:namedview
     pagecolor="#ffffff"
     bordercolor="#666666"
     borderopacity="1"
     objecttolerance="10"
     gridtolerance="10"
     guidetolerance="10"
     inkscape:pageopacity="0"
     inkscape:pageshadow="2"
     inkscape:window-width="1920"
     inkscape:window-height="1058"
     id="namedview4153"
     showgrid="false"
     inkscape:zoom="20.85965"
     inkscape:cx="25.859409"
     inkscape:cy="4.2358446"
     inkscape:window-x="-8"
     inkscape:window-y="-8"
     inkscape:window-maximized="1"
     inkscape:current-layer="Layer_1" /><path
     class="st0"
     d="m 259.96544,-227.74309 c -0.55079,0.55076 -1.44139,0.55076 -1.99218,0 l -2.4872,-2.48446 c -1.02245,0.65635 -2.22934,1.04601 -3.53592,1.04601 -3.62688,0 -6.57119,-2.94426 -6.57119,-6.57409 0,-3.62981 2.94431,-6.57406 6.57409,-6.57406 3.62978,0 6.57396,2.94425 6.57396,6.57406 0,1.30364 -0.39254,2.51364 -1.04588,3.53598 l 2.48721,2.48441 c 0.54782,0.55075 0.54782,1.44123 -0.002,1.99215 z m -8.0124,-12.70876 c -2.59282,0 -4.69619,2.10349 -4.69619,4.69622 0,2.59264 2.10337,4.69619 4.69619,4.69619 2.59261,0 4.69605,-2.10064 4.69605,-4.69619 0,-2.59273 -2.10344,-4.69622 -4.69605,-4.69622 z m 0.93748,7.5116 -1.87786,0 0,-1.8779 -1.8779,0 0,-1.87789 1.8779,0 0,-1.87791 1.87786,0 0,1.87791 1.87785,0 0,1.87789 -1.87785,0 0,1.8779 0,0 z"
     id="path4151"
     inkscape:connector-curvature="0"
     style="fill:#646464;fill-opacity:1" /></svg>