<?xml version="1.0" encoding="UTF-8"?>
<svg width="80px" height="80px" viewBox="0 0 80 80" version="1.1" xmlns="http://www.w3.org/2000/svg" xmlns:xlink="http://www.w3.org/1999/xlink">
    <!-- Generator: Sketch 63.1 (92452) - https://sketch.com -->
    <title>Untitled</title>
    <desc>Created with Sketch.</desc>
    <g id="Page-1" stroke="none" stroke-width="1" fill="none" fill-rule="evenodd">
        <path d="M40,23 C49.3888407,23 57,30.6111593 57,40 C57,49.3888407 49.3888407,57 40,57 C30.6111593,57 23,49.3888407 23,40 C23,30.6111593 30.6111593,23 40,23 Z M40,31 C35.0294373,31 31,35.0294373 31,40 C31,44.9705627 35.0294373,49 40,49 C44.9705627,49 49,44.9705627 49,40 C49,35.0294373 44.9705627,31 40,31 Z" id="Shape" fill="#01BF42"></path>
        <path d="M43.3308473,3 C44.2974196,3 45.1256814,3.69124773 45.2985871,4.64222912 L46.787848,12.8284079 C49.5085051,13.5058632 52.0717993,14.5812422 54.4123528,15.989167 L61.2550527,11.2516136 C62.0497609,10.701431 63.1242164,10.7983146 63.8076862,11.4817844 L68.5182156,16.1923138 C69.2016854,16.8757836 69.298569,17.9502391 68.7483864,18.7449473 L64.010833,25.5876472 C65.4189306,27.9284879 66.4944007,30.4921241 67.1718415,33.2131537 L75.3577709,34.7014129 C76.3087523,34.8743186 77,35.7025804 77,36.6691527 L77,43.3308473 C77,44.2974196 76.3087523,45.1256814 75.3577709,45.2985871 L67.1715921,46.787848 C66.4941368,49.5085051 65.4187578,52.0717993 64.010833,54.4123528 L68.7483864,61.2550527 C69.298569,62.0497609 69.2016854,63.1242164 68.5182156,63.8076862 L63.8076862,68.5182156 C63.1242164,69.2016854 62.0497609,69.298569 61.2550527,68.7483864 L54.4123528,64.010833 C52.0717993,65.4187578 49.5085051,66.4941368 46.787848,67.1715921 L45.2985871,75.3577709 C45.1256814,76.3087523 44.2974196,77 43.3308473,77 L36.6691527,77 C35.7025804,77 34.8743186,76.3087523 34.7014129,75.3577709 L33.2131537,67.1718415 C30.4921241,66.4944007 27.9284879,65.4189306 25.5876472,64.010833 L18.7449473,68.7483864 C17.9502391,69.298569 16.8757836,69.2016854 16.1923138,68.5182156 L11.4817844,63.8076862 C10.7983146,63.1242164 10.701431,62.0497609 11.2516136,61.2550527 L15.989167,54.4123528 C14.5812422,52.0717993 13.5058632,49.5085051 12.8284079,46.787848 L4.64222912,45.2985871 C3.69124773,45.1256814 3,44.2974196 3,43.3308473 L3,36.6691527 C3,35.7025804 3.69124773,34.8743186 4.64222912,34.7014129 L12.8281585,33.2131537 C13.5055993,30.4921241 14.5810694,27.9284879 15.989167,25.5876472 L11.2516136,18.7449473 C10.701431,17.9502391 10.7983146,16.8757836 11.4817844,16.1923138 L16.1923138,11.4817844 C16.8757836,10.7983146 17.9502391,10.701431 18.7449473,11.2516136 L25.5876472,15.989167 C27.9284879,14.5810694 30.4921241,13.5055993 33.2131537,12.8281585 L34.7014129,4.64222912 C34.8743186,3.69124773 35.7025804,3 36.6691527,3 L43.3308473,3 Z" id="Path" stroke="#5A5A5A" stroke-width="4"></path>
    </g>
</svg>