<?xml version="1.0" encoding="UTF-8"?>
<svg width="90px" height="81px" viewBox="0 0 90 81" version="1.1" xmlns="http://www.w3.org/2000/svg" xmlns:xlink="http://www.w3.org/1999/xlink">
    <!-- Generator: Sketch 63.1 (92452) - https://sketch.com -->
    <title>Untitled</title>
    <desc>Created with Sketch.</desc>
    <g id="Page-1" stroke="none" stroke-width="1" fill="none" fill-rule="evenodd">
        <path d="M22.500704,58.5253038 L15.0548656,65.1091582 L6.67913179,72.5152566 C6.26539386,72.8810973 6.22656544,73.5130706 6.59240607,73.9268085 C6.75575101,74.1115392 6.98159093,74.2294033 7.22654569,74.257761 L44.5568134,78.5793823 C44.838872,78.6120355 45.1215134,78.5232427 45.3342257,78.3351555 L83.3208682,44.746121 C83.7346061,44.3802804 83.7734346,43.7483071 83.4075939,43.3345692 C83.244249,43.1498385 83.0184091,43.0319744 82.7734543,43.0036166 L67.3450251,41.2175103 L67.3450251,41.2175103" id="Path-Copy-2" stroke="#5A5A5A" stroke-width="4"></path>
        <path d="M45,20.6306888 L6.67913179,54.5152566 C6.26539386,54.8810973 6.22656544,55.5130706 6.59240607,55.9268085 C6.75575101,56.1115392 6.98159093,56.2294033 7.22654569,56.257761 L44.5568134,60.5793823 C44.838872,60.6120355 45.1215134,60.5232427 45.3342257,60.3351555 L83.3208682,26.746121 C83.7346061,26.3802804 83.7734346,25.7483071 83.4075939,25.3345692 C83.244249,25.1498385 83.0184091,25.0319744 82.7734543,25.0036166 L45,20.6306888 L45,20.6306888 Z" id="Path-Copy" stroke="#5A5A5A" stroke-width="4"></path>
        <path d="M44.6657743,2.92622211 L6.67913179,36.5152566 C6.26539386,36.8810973 6.22656544,37.5130706 6.59240607,37.9268085 C6.75575101,38.1115392 6.98159093,38.2294033 7.22654569,38.257761 L44.5568134,42.5793823 C44.838872,42.6120355 45.1215134,42.5232427 45.3342257,42.3351555 L83.3208682,8.74612102 C83.7346061,8.38028039 83.7734346,7.74830709 83.4075939,7.33456916 C83.244249,7.14983847 83.0184091,7.03197438 82.7734543,7.00361665 L45.4431866,2.68199531 C45.161128,2.64934217 44.8784866,2.73813499 44.6657743,2.92622211 Z" id="Path" stroke="#01BF42" stroke-width="4" fill="#01BF42"></path>
    </g>
</svg>