<?xml version="1.0" encoding="UTF-8"?>
<svg width="81px" height="81px" viewBox="0 0 81 81" version="1.1" xmlns="http://www.w3.org/2000/svg" xmlns:xlink="http://www.w3.org/1999/xlink">
    <!-- Generator: Sketch 63.1 (92452) - https://sketch.com -->
    <title>Untitled 2</title>
    <desc>Created with Sketch.</desc>
    <g id="Page-1" stroke="none" stroke-width="1" fill="none" fill-rule="evenodd">
        <g id="config_replica_green" fill-rule="nonzero">
            <path d="M54.4698893,33.823199 L54.5523617,26 L52.2935983,28.2116363 C47.8585444,24.8117096 43.3763629,25.8821825 40,28.0820371 C43.3586904,27.5585824 46.1973775,28.6503454 48.9619227,31.4737996 L46.6466905,33.7407267 L54.4698893,33.823199 Z" id="path" fill="#5a5a5a" transform="translate(47.276181, 29.911600) rotate(-64.000000) translate(-47.276181, -29.911600) "></path>
            <path d="M55.7256557,53.7631671 L55.8081281,45.9399669 L53.5493643,48.1516035 C49.1143098,44.7516762 44.6321275,45.8221493 41.2557641,48.0220043 C44.614455,47.4985494 47.4531426,48.5903127 50.2176882,51.4137673 L47.9024557,53.6806948 L55.7256557,53.7631671 Z" id="path" fill="#5a5a5a"></path>
            <g id="Group-3" transform="translate(0.032452, 20.223949)" fill="#01BF42">
                <path d="M20.0869953,-8.8817842e-16 C9.00246362,-8.8817842e-16 0.0161687494,2.16253365 0.0161687494,4.83145129 L0.0161687494,8.79592718 C0.0161687494,11.4651831 9.00246362,13.6270402 20.0869953,13.6270402 C31.1710146,13.6270402 40.1573095,11.4648448 40.1573095,8.79592718 L40.1573095,4.83145129 C40.1573095,2.16253365 31.1710146,-8.8817842e-16 20.0869953,-8.8817842e-16 Z" id="path"></path>
                <path d="M20.0869953,15.937396 C9.50409338,15.937396 0.779117379,13.9646295 0.0161687494,11.4631535 C-0.0202109368,11.5825613 0.0161687494,18.0102892 0.0161687494,18.0102892 C0.0161687494,20.6798834 9.00246362,22.8417405 20.0869953,22.8417405 C31.1710146,22.8417405 40.1573095,20.6792069 40.1573095,18.0102892 C40.1573095,18.0102892 40.1798547,11.5822231 40.1439874,11.4631535 C39.380014,13.9649678 30.6693849,15.937396 20.0869953,15.937396 L20.0869953,15.937396 Z" id="path"></path>
                <path d="M40.1383511,20.7911729 C39.3759148,23.2912958 30.6698973,25.2650771 20.0869953,25.2650771 C9.50409338,25.2650771 0.777067819,23.2909576 0.0141191896,20.7911729 L0.0161687494,27.3386469 C0.0161687494,30.0079028 9.00246362,32.1697599 20.0869953,32.1697599 C31.1710146,32.1697599 40.1573095,30.0072262 40.1573095,27.3386469 L40.1383511,20.7911729 Z" id="path"></path>
                <path d="M40.7120869,30.0792939 C39.9395359,32.5950969 31.1180179,34.5812579 20.3947139,34.5812579 C9.67141189,34.5812579 0.828605933,32.5947569 0.0555359327,30.0792939 L0.0576359327,36.6678329 C0.0576359327,39.3538289 9.16314989,41.5292449 20.3947379,41.5292449 C31.6258059,41.5292449 40.7313209,39.3531489 40.7313209,36.6678329 L40.7121109,30.0792939 L40.7120869,30.0792939 Z" id="path"></path>
            </g>
            <g id="Group-2" transform="translate(54.423755, 0.024908)" fill="#5a5a5a">
                <path d="M12.8438415,0 C5.7823113,0 0.0574873037,1.40934512 0.0574873037,3.14870583 L0.0574873037,5.732395 C0.0574873037,7.47197616 5.7823113,8.88088038 12.8438415,8.88088038 C19.9050454,8.88088038 25.6298694,7.47175571 25.6298694,5.732395 L25.6298694,3.14870583 C25.6298694,1.40934512 19.9050454,0 12.8438415,0 Z" id="path"></path>
                <path d="M12.8438415,10.3865627 C6.10188039,10.3865627 0.54353263,9.10089077 0.0574873037,7.47065345 C0.0343112002,7.54847276 0.0574873037,11.7374883 0.0574873037,11.7374883 C0.0574873037,13.4772899 5.7823113,14.8861941 12.8438415,14.8861941 C19.9050454,14.8861941 25.6298694,13.476849 25.6298694,11.7374883 C25.6298694,11.7374883 25.644232,7.54825231 25.6213823,7.47065345 C25.1346842,9.10111123 19.5854763,10.3865627 12.8438415,10.3865627 L12.8438415,10.3865627 Z" id="path"></path>
                <path d="M25.6177917,13.5498183 C25.1320728,15.1791739 19.5858027,16.4655072 12.8438415,16.4655072 C6.10188039,16.4655072 0.542226934,15.1789534 0.0561816078,13.5498183 L0.0574873037,17.8168736 C0.0574873037,19.5564548 5.7823113,20.965359 12.8438415,20.965359 C19.9050454,20.965359 25.6298694,19.5560138 25.6298694,17.8168736 L25.6177917,13.5498183 Z" id="path"></path>
                <path d="M25.56161,19.4743663 C25.075891,21.1037213 19.529621,22.3900553 12.78766,22.3900553 C6.045699,22.3900553 0.486045,21.1035013 0,19.4743663 L0.0013,23.7414213 C0.0013,25.4810023 5.726124,26.8899063 12.787654,26.8899063 C19.848858,26.8899063 25.573681,25.4805613 25.573681,23.7414213 L25.561601,19.4743663 L25.56161,19.4743663 Z" id="path"></path>
            </g>
            <g id="Group" transform="translate(54.393436, 53.224945)" fill="#5a5a5a">
                <path d="M12.8438415,-8.8817842e-16 C5.7823113,-8.8817842e-16 0.0574873037,1.40934512 0.0574873037,3.14870583 L0.0574873037,5.732395 C0.0574873037,7.47197616 5.7823113,8.88088038 12.8438415,8.88088038 C19.9050454,8.88088038 25.6298694,7.47175571 25.6298694,5.732395 L25.6298694,3.14870583 C25.6298694,1.40934512 19.9050454,-8.8817842e-16 12.8438415,-8.8817842e-16 Z" id="path"></path>
                <path d="M12.8438415,10.3865627 C6.10188039,10.3865627 0.54353263,9.10089077 0.0574873037,7.47065345 C0.0343112002,7.54847276 0.0574873037,11.7374883 0.0574873037,11.7374883 C0.0574873037,13.4772899 5.7823113,14.8861941 12.8438415,14.8861941 C19.9050454,14.8861941 25.6298694,13.476849 25.6298694,11.7374883 C25.6298694,11.7374883 25.644232,7.54825231 25.6213823,7.47065345 C25.1346842,9.10111123 19.5854763,10.3865627 12.8438415,10.3865627 L12.8438415,10.3865627 Z" id="path"></path>
                <path d="M25.6177917,13.5498183 C25.1320728,15.1791739 19.5858027,16.4655072 12.8438415,16.4655072 C6.10188039,16.4655072 0.542226934,15.1789534 0.0561816078,13.5498183 L0.0574873037,17.8168736 C0.0574873037,19.5564548 5.7823113,20.965359 12.8438415,20.965359 C19.9050454,20.965359 25.6298694,19.5560138 25.6298694,17.8168736 L25.6177917,13.5498183 Z" id="path"></path>
                <path d="M25.56161,19.4743663 C25.075891,21.1037213 19.529621,22.3900553 12.78766,22.3900553 C6.045699,22.3900553 0.486045,21.1035013 0,19.4743663 L0.0013,23.7414213 C0.0013,25.4810023 5.726124,26.8899063 12.787654,26.8899063 C19.848858,26.8899063 25.573681,25.4805613 25.573681,23.7414213 L25.561601,19.4743663 L25.56161,19.4743663 Z" id="path"></path>
            </g>
        </g>
    </g>
</svg>