<?xml version="1.0" encoding="UTF-8" standalone="no"?>
<!-- Generator: Adobe Illustrator 19.0.0, SVG Export Plug-In . SVG Version: 6.00 Build 0)  -->

<svg
   xmlns:dc="http://purl.org/dc/elements/1.1/"
   xmlns:cc="http://creativecommons.org/ns#"
   xmlns:rdf="http://www.w3.org/1999/02/22-rdf-syntax-ns#"
   xmlns:svg="http://www.w3.org/2000/svg"
   xmlns="http://www.w3.org/2000/svg"
   xmlns:sodipodi="http://sodipodi.sourceforge.net/DTD/sodipodi-0.dtd"
   xmlns:inkscape="http://www.inkscape.org/namespaces/inkscape"
   version="1.1"
   id="Capa_1"
   x="0px"
   y="0px"
   viewBox="0 0 80 80"
   xml:space="preserve"
   inkscape:version="0.91 r13725"
   sodipodi:docname="config_networks.svg"
   width="80"
   height="80"><metadata
     id="metadata39"><rdf:RDF><cc:Work
         rdf:about=""><dc:format>image/svg+xml</dc:format><dc:type
           rdf:resource="http://purl.org/dc/dcmitype/StillImage" /><dc:title></dc:title></cc:Work></rdf:RDF></metadata><defs
     id="defs37" /><sodipodi:namedview
     pagecolor="#ffffff"
     bordercolor="#666666"
     borderopacity="1"
     objecttolerance="10"
     gridtolerance="10"
     guidetolerance="10"
     inkscape:pageopacity="0"
     inkscape:pageshadow="2"
     inkscape:window-width="1920"
     inkscape:window-height="1018"
     id="namedview35"
     showgrid="false"
     inkscape:zoom="4.2909091"
     inkscape:cx="-7.3411016"
     inkscape:cy="27.616525"
     inkscape:window-x="1912"
     inkscape:window-y="-8"
     inkscape:window-maximized="1"
     inkscape:current-layer="Capa_1" /><path
     d="m 71.272727,0.23305076 c -4.813091,0 -8.727272,3.91418184 -8.727272,8.72727274 0,1.5054545 0.382545,2.9221815 1.056,4.1599995 L 49.304727,27.417051 c -1.970909,-1.534545 -4.437818,-2.456727 -7.122909,-2.456727 -2.685091,0 -5.152,0.922182 -7.124363,2.455272 L 23.902545,16.260687 c 0.512,-0.865454 0.824728,-1.860364 0.824728,-2.936727 0,-3.208727 -2.609455,-5.8181819 -5.818182,-5.8181819 -3.208727,0 -5.818182,2.6094549 -5.818182,5.8181819 0,3.208727 2.609455,5.818182 5.818182,5.818182 1.076364,0 2.071273,-0.312728 2.936727,-0.824728 l 11.154909,11.15491 c -1.533091,1.972363 -2.455272,4.439272 -2.455272,7.124363 0,2.685091 0.922181,5.152 2.455272,7.122909 L 14.580364,62.141415 c -1.550546,-1.406546 -1.146323,4.024488 -3.289532,4.719525 -3.310203,1.073492 2.660934,-2.267366 -0.104391,0.570493 -3.3590311,3.447137 -3.7520159,-0.342989 1.036595,-0.827812 4.37059,-0.4425 -3.7278093,2.517059 -0.827813,0.594761 5.631899,-3.733173 6.351372,-1.973606 5.003322,-2.761695 L 35.058909,45.776324 c 1.608727,1.250909 3.549091,2.088727 5.669818,2.354909 l 0,14.778182 C 36.608,63.604687 33.456,67.188687 33.456,71.505778 c 0,4.813091 3.914182,8.727273 8.727273,8.727273 4.813091,0 8.727272,-3.914182 8.727272,-8.727273 0,-4.315636 -3.152,-7.899636 -7.272727,-8.596363 l 0,-14.778182 c 2.120727,-0.266182 4.061091,-1.104 5.669818,-2.354909 l 11.154909,11.154909 c -0.513454,0.866909 -0.826181,1.861818 -0.826181,2.938182 0,3.208727 2.609454,5.818181 5.818181,5.818181 3.208728,0 5.818182,-2.609454 5.818182,-5.818181 0,-3.208728 -2.609454,-5.818182 -5.818182,-5.818182 -1.076363,0 -2.071272,0.312727 -2.936727,0.824727 L 51.362909,43.721051 c 1.533091,-1.972364 2.455273,-4.439273 2.455273,-7.124364 0,-2.685091 -0.922182,-5.152 -2.455273,-7.122909 L 65.421091,15.415596 c 1.549091,1.406546 3.598545,2.272 5.851636,2.272 C 76.085818,17.687596 80,13.773414 80,8.9603235 80,4.1472326 76.085818,0.23305076 71.272727,0.23305076 Z"
     id="path3"
     style="fill:#595959;fill-opacity:1"
     inkscape:connector-curvature="0"
     sodipodi:nodetypes="ssccsccssssccsccssssccccsssccccssssccsccsss" /><g
     id="g5"
     transform="translate(0,25)" /><g
     id="g7"
     transform="translate(0,25)" /><g
     id="g9"
     transform="translate(0,25)" /><g
     id="g11"
     transform="translate(0,25)" /><g
     id="g13"
     transform="translate(0,25)" /><g
     id="g15"
     transform="translate(0,25)" /><g
     id="g17"
     transform="translate(0,25)" /><g
     id="g19"
     transform="translate(0,25)" /><g
     id="g21"
     transform="translate(0,25)" /><g
     id="g23"
     transform="translate(0,25)" /><g
     id="g25"
     transform="translate(0,25)" /><g
     id="g27"
     transform="translate(0,25)" /><g
     id="g29"
     transform="translate(0,25)" /><g
     id="g31"
     transform="translate(0,25)" /><g
     id="g33"
     transform="translate(0,25)" /><ellipse
     style="fill:#f78e1e;fill-opacity:1;stroke:#000000;stroke-width:0.21396641;stroke-linejoin:round;stroke-miterlimit:4;stroke-dasharray:none;stroke-opacity:0"
     id="path4169"
     cx="9.2255573"
     cy="69.071404"
     rx="8.7878323"
     ry="8.6781063" /><ellipse
     style="fill:#f78e1e;fill-opacity:1;stroke:#000000;stroke-width:0.1572054;stroke-linejoin:round;stroke-miterlimit:4;stroke-dasharray:none;stroke-opacity:0"
     id="path4169-7"
     cx="65.458176"
     cy="60.190678"
     rx="6.4565964"
     ry="6.3759785" /><ellipse
     style="fill:#f78e1e;fill-opacity:1;stroke:#000000;stroke-width:0.2929413;stroke-linejoin:round;stroke-miterlimit:4;stroke-dasharray:none;stroke-opacity:0"
     id="path4169-1"
     cx="41.949154"
     cy="36.652546"
     rx="12.011057"
     ry="11.901331" /></svg>