<?xml version="1.0" encoding="UTF-8"?>
<svg width="80px" height="81px" viewBox="0 0 80 81" version="1.1" xmlns="http://www.w3.org/2000/svg" xmlns:xlink="http://www.w3.org/1999/xlink">
    <!-- Generator: Sketch 63.1 (92452) - https://sketch.com -->
    <title>Untitled</title>
    <desc>Created with Sketch.</desc>
    <g id="Page-1" stroke="none" stroke-width="1" fill="none" fill-rule="evenodd">
        <path d="M40.7129263,1.2248084 L68.3266502,29.298761 C68.7139338,29.6924993 68.7087012,30.3256427 68.3149629,30.7129263 C68.1279239,30.8968991 67.8760778,31 67.6137239,31 L55,31 L55,31 L55,60 C55,62.7614237 52.7614237,65 50,65 L30,65 C27.2385763,65 25,62.7614237 25,60 L25,31 L25,31 L12.3862761,31 C11.8339914,31 11.3862761,30.5522847 11.3862761,30 C11.3862761,29.7376461 11.489377,29.4858 11.6733498,29.298761 L39.2870737,1.2248084 C39.6743573,0.831070078 40.3075007,0.825837488 40.701239,1.21312108 C40.7051669,1.21698459 40.7090628,1.2208805 40.7129263,1.2248084 Z" id="Line" fill="#01BF42" fill-rule="nonzero"></path>
        <path d="M5.5,61 L5.5,75.5 L74.5,75.5 L74.5,61 L79.5,61 L79.5,76 C79.5,78.4142733 77.5987635,80.3844891 75.2118357,80.495102 L75,80.5 L5,80.5 C2.58572667,80.5 0.615510911,78.5987635 0.50489799,76.2118357 L0.5,76 L0.5,61 L5.5,61 Z" id="Path" fill="#5A5A5A" fill-rule="nonzero"></path>
    </g>
</svg>