<?xml version="1.0" encoding="UTF-8" standalone="no"?>
<!-- Generator: Adobe Illustrator 16.0.0, SVG Export Plug-In . SVG Version: 6.00 Build 0)  -->

<svg
   xmlns:dc="http://purl.org/dc/elements/1.1/"
   xmlns:cc="http://creativecommons.org/ns#"
   xmlns:rdf="http://www.w3.org/1999/02/22-rdf-syntax-ns#"
   xmlns:svg="http://www.w3.org/2000/svg"
   xmlns="http://www.w3.org/2000/svg"
   xmlns:sodipodi="http://sodipodi.sourceforge.net/DTD/sodipodi-0.dtd"
   xmlns:inkscape="http://www.inkscape.org/namespaces/inkscape"
   version="1.1"
   id="Capa_1"
   x="0px"
   y="0px"
   width="80"
   height="80"
   viewBox="0 0 80 80"
   xml:space="preserve"
   inkscape:version="0.91 r13725"
   sodipodi:docname="config_notifications_orange.svg"><metadata
     id="metadata42"><rdf:RDF><cc:Work
         rdf:about=""><dc:format>image/svg+xml</dc:format><dc:type
           rdf:resource="http://purl.org/dc/dcmitype/StillImage" /><dc:title></dc:title></cc:Work></rdf:RDF></metadata><defs
     id="defs40" /><sodipodi:namedview
     pagecolor="#ffffff"
     bordercolor="#666666"
     borderopacity="1"
     objecttolerance="10"
     gridtolerance="10"
     guidetolerance="10"
     inkscape:pageopacity="0"
     inkscape:pageshadow="2"
     inkscape:window-width="1920"
     inkscape:window-height="1058"
     id="namedview38"
     showgrid="false"
     inkscape:zoom="4.9860601"
     inkscape:cx="58.490973"
     inkscape:cy="24.861507"
     inkscape:window-x="-8"
     inkscape:window-y="-8"
     inkscape:window-maximized="1"
     inkscape:current-layer="g3" /><g
     id="g3"
     transform="matrix(0.14939309,0,0,0.14939309,0.20056,-0.05047347)"><g
       id="notifications-on"
       style="fill:#f78e1e;fill-opacity:1"><path
         d="M 142.8,53.55 107.1,17.85 C 45.9,63.75 5.1,135.15 0,216.75 l 51,0 C 56.1,147.9 89.25,89.25 142.8,53.55 Z m 341.7,163.2 51,0 c -5.1,-81.6 -43.35,-153 -104.55,-198.9 l -35.7,35.7 c 51,35.7 84.15,94.35 89.25,163.2 z m -51,12.75 C 433.5,150.45 379.95,86.7 306,68.85 L 306,51 C 306,30.6 288.15,12.75 267.75,12.75 247.35,12.75 229.5,30.6 229.5,51 l 0,17.85 C 155.55,86.7 102,150.45 102,229.5 l 0,140.25 -51,51 0,25.5 433.5,0 0,-25.5 -51,-51 0,-140.25 z M 267.75,522.75 c 2.55,0 7.65,0 10.2,0 17.85,-2.55 30.6,-15.3 35.7,-30.6 2.55,-5.101 5.1,-12.75 5.1,-20.4 l -102,0 c 0,28.05 22.95,51 51,51 z"
         id="path6"
         inkscape:connector-curvature="0"
         style="fill:#f78e1e;fill-opacity:1" /></g><path
       style="fill:#545454;fill-opacity:1;stroke:#000000;stroke-width:0.07500912;stroke-miterlimit:4;stroke-dasharray:none;stroke-opacity:0"
       d="m 38.260441,77.697195 c -2.788195,-0.78009 -5.10266,-3.385944 -5.509465,-6.203103 l -0.137567,-0.952656 7.569374,0 7.569374,0 -0.133381,0.834118 c -0.404381,2.528861 -2.115918,5.05116 -4.083678,6.018133 -1.134804,0.557651 -3.815069,0.711876 -5.274657,0.303508 z"
       id="path4170"
       inkscape:connector-curvature="0"
       transform="matrix(6.69375,0,0,6.69375,-1.3424985,0.33785679)" /><path
       style="fill:#545454;fill-opacity:1;stroke:#000000;stroke-width:0.07500912;stroke-miterlimit:4;stroke-dasharray:none;stroke-opacity:0"
       d="M 0.36896958,31.482541 C 0.36903565,30.220259 1.1240759,26.038228 1.7539915,23.811153 3.1174079,18.990778 5.3985473,14.459766 8.5695718,10.27341 9.7904291,8.6616462 13.401301,4.959077 14.977387,3.7028696 L 16.24866,2.6896111 18.850549,5.2915 21.452438,7.893389 19.985986,8.9803424 C 13.399935,13.86201 8.8433661,22.139524 7.8750834,30.981143 l -0.1372755,1.253495 -3.6844387,0 -3.68443897,0 3.935e-5,-0.752097 z"
       id="path4172"
       inkscape:connector-curvature="0"
       transform="matrix(6.69375,0,0,6.69375,-1.3424985,0.33785679)" /><path
       style="fill:#545454;fill-opacity:1;stroke:#000000;stroke-width:0.07500912;stroke-miterlimit:4;stroke-dasharray:none;stroke-opacity:0"
       d="M 72.495724,30.813279 C 71.747793,22.765833 67.235897,14.208625 61.18175,9.355334 60.330575,8.6729925 59.611271,8.0579329 59.583296,7.988535 59.555322,7.9191374 60.686418,6.7109341 62.096844,5.303639 l 2.56441,-2.5587184 1.297077,1.0772954 c 1.794715,1.4906118 4.891366,4.7487502 6.226754,6.551474 4.289943,5.791258 7.089149,13.072048 7.768621,20.206335 l 0.157586,1.654613 -3.741733,0 -3.741733,0 -0.132102,-1.421359 z"
       id="path4174"
       inkscape:connector-curvature="0"
       transform="matrix(6.69375,0,0,6.69375,-1.3424985,0.33785679)" /></g><g
     id="g8"
     transform="translate(0,-455.5)" /><g
     id="g10"
     transform="translate(0,-455.5)" /><g
     id="g12"
     transform="translate(0,-455.5)" /><g
     id="g14"
     transform="translate(0,-455.5)" /><g
     id="g16"
     transform="translate(0,-455.5)" /><g
     id="g18"
     transform="translate(0,-455.5)" /><g
     id="g20"
     transform="translate(0,-455.5)" /><g
     id="g22"
     transform="translate(0,-455.5)" /><g
     id="g24"
     transform="translate(0,-455.5)" /><g
     id="g26"
     transform="translate(0,-455.5)" /><g
     id="g28"
     transform="translate(0,-455.5)" /><g
     id="g30"
     transform="translate(0,-455.5)" /><g
     id="g32"
     transform="translate(0,-455.5)" /><g
     id="g34"
     transform="translate(0,-455.5)" /><g
     id="g36"
     transform="translate(0,-455.5)" /></svg>