<?xml version="1.0" encoding="UTF-8"?>
<svg width="80px" height="80px" viewBox="0 0 80 80" version="1.1" xmlns="http://www.w3.org/2000/svg" xmlns:xlink="http://www.w3.org/1999/xlink">
    <!-- Generator: Sketch 63.1 (92452) - https://sketch.com -->
    <title>Untitled</title>
    <desc>Created with Sketch.</desc>
    <g id="Page-1" stroke="none" stroke-width="1" fill="none" fill-rule="evenodd">
        <path d="M2.71410174,65.9665115 C1.35018092,65.9665115 0,64.4971763 0,63.1728255 L0,49.348375 C1.24575088,44.1515077 6.27357192,40.6028031 12.0684891,39.4016009 L12.2901198,39.916799 C14.3903042,44.9412725 17.3398557,55.8322024 18.0898732,57.4395428 C19.3116936,60.0579899 21.7418198,59.3964442 23.0327888,56.7875987 L23.0327888,43.763606 C23.0327888,41.7266441 24.1199684,40.6742139 26.2943277,40.6063151 L26.5231396,40.6028031 L26.7488119,40.6063151 C28.8481933,40.6718725 29.9340802,41.6552334 30.0064726,43.5563978 L30.0103508,43.763606 L30.0103508,56.7875987 C31.3013198,59.3964442 33.731446,60.0579899 34.9532664,57.4395428 C35.7300703,55.7747974 38.8663232,44.1515077 40.9746505,39.4016009 C46.6536693,40.5787791 51.595969,44.0104985 52.9638802,49.0385464 L53.0431396,49.348375 L53.0431396,63.1728255 C53.0431396,64.4481263 51.79112,65.8578707 50.4804602,65.9605469 L50.3290379,65.9665115 L2.71410174,65.9665115 Z" id="Path" fill="#5A5A5A"></path>
        <path d="M21.7854883,33.4665115 C15.2085009,27.8524736 11.9200072,21.900499 11.9200072,15.6105878 C11.9200072,9.07699123 15.9080895,0.96651149 26.5,0.96651149 L26.9769115,0.972063524 C37.2118459,1.2119216 41.0799928,9.17598511 41.0799928,15.6105878 C41.0799928,21.7432512 37.4667603,27.9763501 31.2145117,33.4665115 C29.6430078,34.4087151 28.0715039,34.879817 26.5,34.879817 C24.9284961,34.879817 23.3569922,34.4087151 21.7854883,33.4665115 Z" id="Path" fill="#5A5A5A"></path>
        <path d="M77.3751131,80 C66.7837772,80 50.8967735,80 29.7141017,80 C28.3501809,80 27,78.5306648 27,77.2063141 L27,63.3818635 C28.7784683,55.9626723 36.6300753,52.4869712 48.7854883,52.4869712 L48.7854883,47.5 C42.2085009,41.8859621 38.9200072,35.9339875 38.9200072,29.6440763 C38.9200072,23.1104797 42.9080895,15 53.5,15 L53.9769115,15.005552 C64.2118459,15.2454101 68.0799928,23.2094736 68.0799928,29.6440763 C68.0799928,35.7767398 64.9538685,41.5881522 58.7016198,47.0783135 L58.2145117,47.5 L58.2145117,52.4869712 C70.1738696,52.4869712 77.9671344,55.8514571 79.9092128,63.0259461 L80,63.3818635 L80,77.281515 C80,78.5270324 78.626796,80 77.3751131,80 Z" id="Path" fill="#01BF42"></path>
    </g>
</svg>