<?xml version="1.0" encoding="UTF-8"?>
<svg width="81px" height="78px" viewBox="0 0 81 78" version="1.1" xmlns="http://www.w3.org/2000/svg" xmlns:xlink="http://www.w3.org/1999/xlink">
    <!-- Generator: Sketch 63.1 (92452) - https://sketch.com -->
    <title>Untitled 2</title>
    <desc>Created with Sketch.</desc>
    <g id="Page-1" stroke="none" stroke-width="1" fill="none" fill-rule="evenodd">
        <g id="config_notifications_orange" fill-rule="nonzero">
            <path d="M64.9624645,33.2352407 C64.9624645,21.4257169 56.9624645,11.9019074 45.9148455,9.23524078 L45.9148455,6.56857412 C45.9148455,3.52095508 43.2481789,0.854288428 40.2005598,0.854288428 C37.1529408,0.854288428 34.4862742,3.52095508 34.4862742,6.56857412 L34.4862742,9.23524078 C23.4386551,11.9019074 15.4386552,21.4257169 15.4386552,33.2352407 L15.4386552,54.1876216 L7.81960759,61.8066691 L7.81960759,65.6161929 L72.5815121,65.6161929 L72.5815121,61.8066691 L64.9624645,54.1876216 L64.9624645,33.2352407 Z" id="path" fill="#01BF42"></path>
            <path d="M38.2604409,76.6971947 C35.4722459,75.9171047 33.1577809,73.3112507 32.7509759,70.4940917 L32.6134089,69.5414357 L40.1827828,69.5414357 L47.7521568,69.5414357 L47.6187758,70.3755537 C47.2143948,72.9044147 45.5028578,75.4267137 43.5350978,76.3936867 C42.4002938,76.9513377 39.7200288,77.1055627 38.2604409,76.6971947 Z" id="path" stroke-opacity="0" stroke="#000000" stroke-width="0.5" fill="#5a5a5a"></path>
            <path d="M0.368930229,30.4825409 C0.368930229,29.2202589 1.1240759,25.0382279 1.75399149,22.8111529 C3.11740789,17.9907779 5.39854728,13.4597659 8.56957177,9.27340996 C9.79042906,7.66164617 13.4013009,3.95907698 14.9773869,2.70286959 L16.2486599,1.68961109 L18.8505489,4.29149998 L21.4524379,6.89338897 L19.9859859,7.98034237 C13.3999349,12.8620099 8.84336607,21.1395239 7.87508337,29.9811429 L7.73780787,31.2346379 L4.05336919,31.2346379 L0.368930229,31.2346379 L0.368930229,30.4825409 Z" id="path" stroke-opacity="0" stroke="#000000" stroke-width="0.5" fill="#5a5a5a"></path>
            <path d="M72.4957237,29.8132789 C71.7477927,21.7658329 67.2358967,13.2086249 61.1817498,8.35533396 C60.3305748,7.67299247 59.6112708,7.05793287 59.5832958,6.98853497 C59.5553218,6.91913737 60.6864178,5.71093407 62.0968438,4.30363898 L64.6612538,1.74492059 L65.9583307,2.82221599 C67.7530457,4.31282778 70.8496967,7.57096617 72.1850847,9.37368996 C76.4750277,15.1649479 79.2742337,22.4457379 79.9537057,29.5800249 L80.1112917,31.2346379 L76.3695587,31.2346379 L72.6278257,31.2346379 L72.4957237,29.8132789 Z" id="path" stroke-opacity="0" stroke="#000000" stroke-width="0.5" fill="#5a5a5a"></path>
        </g>
    </g>
</svg>