<?xml version="1.0" encoding="UTF-8"?>
<svg width="80px" height="81px" viewBox="0 0 80 81" version="1.1" xmlns="http://www.w3.org/2000/svg" xmlns:xlink="http://www.w3.org/1999/xlink">
    <!-- Generator: Sketch 63.1 (92452) - https://sketch.com -->
    <title>Untitled 2</title>
    <desc>Created with Sketch.</desc>
    <g id="Page-1" stroke="none" stroke-width="1" fill="none" fill-rule="evenodd">
        <g id="config_networks" fill-rule="nonzero">
            <path d="M71.272727,0.23305076 C66.459636,0.23305076 62.545455,4.1472326 62.545455,8.9603235 C62.545455,10.465778 62.928,11.882505 63.601455,13.120323 L49.304727,27.417051 C47.333818,25.882506 44.866909,24.960324 42.181818,24.960324 C39.496727,24.960324 37.029818,25.882506 35.057455,27.415596 L23.902545,16.260687 C24.414545,15.395233 24.727273,14.400323 24.727273,13.32396 C24.727273,10.115233 22.117818,7.5057781 18.909091,7.5057781 C15.700364,7.5057781 13.090909,10.115233 13.090909,13.32396 C13.090909,16.532687 15.700364,19.142142 18.909091,19.142142 C19.985455,19.142142 20.980364,18.829414 21.845818,18.317414 L33.000727,29.472324 C31.467636,31.444687 30.545455,33.911596 30.545455,36.596687 C30.545455,39.281778 31.467636,41.748687 33.000727,43.719596 L14.580364,62.141415 C13.029818,60.734869 13.434041,66.165903 11.290832,66.86094 C7.980629,67.934432 13.951766,64.593574 11.186441,67.431433 C7.8274099,70.87857 7.4344251,67.088444 12.223036,66.603621 C16.593626,66.161121 8.4952267,69.12068 11.395223,67.198382 C17.027122,63.465209 17.746595,65.224776 16.398545,64.436687 L35.058909,45.776324 C36.667636,47.027233 38.608,47.865051 40.728727,48.131233 L40.728727,62.909415 C36.608,63.604687 33.456,67.188687 33.456,71.505778 C33.456,76.318869 37.370182,80.2330508 42.183273,80.2330508 C46.996364,80.2330508 50.910545,76.318869 50.910545,71.505778 C50.910545,67.190142 47.758545,63.606142 43.637818,62.909415 L43.637818,48.131233 C45.758545,47.865051 47.698909,47.027233 49.307636,45.776324 L60.462545,56.931233 C59.949091,57.798142 59.636364,58.793051 59.636364,59.869415 C59.636364,63.078142 62.245818,65.687596 65.454545,65.687596 C68.663273,65.687596 71.272727,63.078142 71.272727,59.869415 C71.272727,56.660687 68.663273,54.051233 65.454545,54.051233 C64.378182,54.051233 63.383273,54.36396 62.517818,54.87596 L51.362909,43.721051 C52.896,41.748687 53.818182,39.281778 53.818182,36.596687 C53.818182,33.911596 52.896,31.444687 51.362909,29.473778 L65.421091,15.415596 C66.970182,16.822142 69.019636,17.687596 71.272727,17.687596 C76.085818,17.687596 80,13.773414 80,8.9603235 C80,4.1472326 76.085818,0.23305076 71.272727,0.23305076 Z" id="path" fill="#5a5a5a"></path>
            <ellipse id="circle" stroke-opacity="0" stroke="#000000" stroke-width="0.21396641" fill="#01BF42" stroke-linejoin="round" cx="9.2255573" cy="69.071404" rx="8.7878323" ry="8.6781063"></ellipse>
            <ellipse id="circle" stroke-opacity="0" stroke="#000000" stroke-width="0.1572054" fill="#01BF42" stroke-linejoin="round" cx="65.458176" cy="60.190678" rx="6.4565964" ry="6.3759785"></ellipse>
            <ellipse id="circle" stroke-opacity="0" stroke="#000000" stroke-width="0.2929413" fill="#01BF42" stroke-linejoin="round" cx="41.949154" cy="36.652546" rx="12.011057" ry="11.901331"></ellipse>
        </g>
    </g>
</svg>