<?xml version="1.0" encoding="UTF-8"?>
<svg width="82px" height="80px" viewBox="0 0 82 80" version="1.1" xmlns="http://www.w3.org/2000/svg" xmlns:xlink="http://www.w3.org/1999/xlink">
    <!-- Generator: Sketch 63.1 (92452) - https://sketch.com -->
    <title>Untitled 2</title>
    <desc>Created with Sketch.</desc>
    <g id="Page-1" stroke="none" stroke-width="1" fill="none" fill-rule="evenodd">
        <g id="config_datasources_orange" fill-rule="nonzero">
            <path d="M39.8862996,49.1934594 L34.5074221,43.8145819 L34.5074221,46.8882262 C29.1285446,47.6566372 26.8233113,51.4986926 26.0549003,55.340748 C27.975928,52.6513092 30.6653667,51.4218515 34.5074221,51.4218515 L34.5074221,54.5723369 L39.8862996,49.1934594 Z" id="arrow-up" fill="#5a5a5a"></path>
            <path d="M38.5142338,33.1626336 L38.5967061,25.3394346 L36.3379427,27.5510708 C31.9028888,24.1511441 27.4207072,25.221617 24.0443443,27.4214717 C27.4030347,26.8980169 30.2417219,27.98978 33.0062671,30.8132342 L30.6910349,33.0801613 L38.5142338,33.1626336 Z" id="arrow-down" fill="#5a5a5a"></path>
            <g id="db3" transform="translate(40.315409, 20.322097)" fill="#5a5a5a">
                <path d="M20.0869953,8.8817842e-16 C9.00246362,8.8817842e-16 0.0161687494,2.16253365 0.0161687494,4.83145129 L0.0161687494,8.79592718 C0.0161687494,11.4651831 9.00246362,13.6270402 20.0869953,13.6270402 C31.1710146,13.6270402 40.1573095,11.4648448 40.1573095,8.79592718 L40.1573095,4.83145129 C40.1573095,2.16253365 31.1710146,8.8817842e-16 20.0869953,8.8817842e-16 Z" id="path"></path>
                <path d="M20.0869953,15.937396 C9.50409338,15.937396 0.779117379,13.9646295 0.0161687494,11.4631535 C-0.0202109368,11.5825613 0.0161687494,18.0102892 0.0161687494,18.0102892 C0.0161687494,20.6798834 9.00246362,22.8417405 20.0869953,22.8417405 C31.1710146,22.8417405 40.1573095,20.6792069 40.1573095,18.0102892 C40.1573095,18.0102892 40.1798547,11.5822231 40.1439874,11.4631535 C39.380014,13.9649678 30.6693849,15.937396 20.0869953,15.937396 L20.0869953,15.937396 Z" id="path"></path>
                <path d="M40.1383511,20.7911729 C39.3759148,23.2912958 30.6698973,25.2650771 20.0869953,25.2650771 C9.50409338,25.2650771 0.777067819,23.2909576 0.0141191896,20.7911729 L0.0161687494,27.3386469 C0.0161687494,30.0079028 9.00246362,32.1697599 20.0869953,32.1697599 C31.1710146,32.1697599 40.1573095,30.0072262 40.1573095,27.3386469 L40.1383511,20.7911729 Z" id="path"></path>
                <path d="M40.7120869,30.0792939 C39.9395359,32.5950969 31.1180179,34.5812579 20.3947139,34.5812579 C9.67141189,34.5812579 0.828605893,32.5947569 0.0555358927,30.0792939 L0.0576358927,36.6678329 C0.0576358927,39.3538289 9.16314989,41.5292449 20.3947379,41.5292449 C31.6258059,41.5292449 40.7313209,39.3531489 40.7313209,36.6678329 L40.7121109,30.0792939 L40.7120869,30.0792939 Z" id="path"></path>
            </g>
            <g id="db2" transform="translate(0.697880, 0.123056)" fill="#01BF42">
                <path d="M12.8438413,0 C5.78231102,0 0.0574870237,1.40934512 0.0574870237,3.14870583 L0.0574870237,5.732395 C0.0574870237,7.47197616 5.78231102,8.88088038 12.8438413,8.88088038 C19.9050451,8.88088038 25.6298691,7.47175571 25.6298691,5.732395 L25.6298691,3.14870583 C25.6298691,1.40934512 19.9050451,0 12.8438413,0 Z" id="path"></path>
                <path d="M12.8438413,10.3865627 C6.10188011,10.3865627 0.54353235,9.10089077 0.0574870237,7.47065345 C0.0343109202,7.54847276 0.0574870237,11.7374883 0.0574870237,11.7374883 C0.0574870237,13.4772899 5.78231102,14.8861941 12.8438413,14.8861941 C19.9050451,14.8861941 25.6298691,13.476849 25.6298691,11.7374883 C25.6298691,11.7374883 25.6442317,7.54825231 25.6213821,7.47065345 C25.1346839,9.10111123 19.585476,10.3865627 12.8438413,10.3865627 L12.8438413,10.3865627 Z" id="path"></path>
                <path d="M25.6177914,13.5498183 C25.1320725,15.1791739 19.5858024,16.4655072 12.8438413,16.4655072 C6.10188011,16.4655072 0.542226654,15.1789534 0.0561813278,13.5498183 L0.0574870237,17.8168736 C0.0574870237,19.5564548 5.78231102,20.965359 12.8438413,20.965359 C19.9050451,20.965359 25.6298691,19.5560138 25.6298691,17.8168736 L25.6177914,13.5498183 Z" id="path"></path>
                <path d="M25.5616101,19.4743663 C25.0758911,21.1037213 19.5296211,22.3900553 12.7876601,22.3900553 C6.04569872,22.3900553 0.4860453,21.1035013 0,19.4743663 L0.00131,23.7414213 C0.00131,25.4810023 5.72613392,26.8899063 12.7876641,26.8899063 C19.8488681,26.8899063 25.5736911,25.4805613 25.5736911,23.7414213 L25.5616111,19.4743663 L25.5616101,19.4743663 Z" id="path"></path>
            </g>
            <g id="db1" transform="translate(0.667561, 52.987040)" fill="#01BF42">
                <path d="M12.8438412,-8.8817842e-16 C5.782311,-8.8817842e-16 0.0574870037,1.40934512 0.0574870037,3.14870583 L0.0574870037,5.732395 C0.0574870037,7.47197616 5.782311,8.88088038 12.8438412,8.88088038 C19.9050451,8.88088038 25.6298691,7.47175571 25.6298691,5.732395 L25.6298691,3.14870583 C25.6298691,1.40934512 19.9050451,-8.8817842e-16 12.8438412,-8.8817842e-16 Z" id="path"></path>
                <path d="M12.8438412,10.3865627 C6.10188009,10.3865627 0.54353233,9.10089077 0.0574870037,7.47065345 C0.0343109002,7.54847276 0.0574870037,11.7374883 0.0574870037,11.7374883 C0.0574870037,13.4772899 5.782311,14.8861941 12.8438412,14.8861941 C19.9050451,14.8861941 25.6298691,13.476849 25.6298691,11.7374883 C25.6298691,11.7374883 25.6442317,7.54825231 25.621382,7.47065345 C25.1346839,9.10111123 19.585476,10.3865627 12.8438412,10.3865627 L12.8438412,10.3865627 Z" id="path"></path>
                <path d="M25.6177914,13.5498183 C25.1320725,15.1791739 19.5858024,16.4655072 12.8438412,16.4655072 C6.10188009,16.4655072 0.542226634,15.1789534 0.0561813078,13.5498183 L0.0574870037,17.8168736 C0.0574870037,19.5564548 5.782311,20.965359 12.8438412,20.965359 C19.9050451,20.965359 25.6298691,19.5560138 25.6298691,17.8168736 L25.6177914,13.5498183 Z" id="path"></path>
                <path d="M25.5616099,19.4743663 C25.0758909,21.1037213 19.5296209,22.3900553 12.7876599,22.3900553 C6.0456987,22.3900553 0.4860453,21.1035013 0,19.4743663 L0.00131,23.7414213 C0.00131,25.4810023 5.7261339,26.8899063 12.7876639,26.8899063 C19.8488679,26.8899063 25.5736909,25.4805613 25.5736909,23.7414213 L25.5616109,19.4743663 L25.5616099,19.4743663 Z" id="path"></path>
            </g>
        </g>
    </g>
</svg>