<?xml version="1.0" encoding="UTF-8"?>
<svg width="77px" height="73px" viewBox="0 0 77 73" version="1.1" xmlns="http://www.w3.org/2000/svg" xmlns:xlink="http://www.w3.org/1999/xlink">
    <!-- Generator: Sketch 63.1 (92452) - https://sketch.com -->
    <title>Untitled</title>
    <desc>Created with Sketch.</desc>
    <g id="Page-1" stroke="none" stroke-width="1" fill="none" fill-rule="evenodd">
        <path d="M38.0189533,48.9665115 C30.0254923,48.9665115 18.0353007,48.9665115 2.04837867,48.9665115 C1.01900447,48.9665115 0,47.8596158 0,46.8619414 L0,36.447555 C1.34224026,30.8584487 7.26798137,28.2400955 16.441878,28.2400955 L16.441878,24.4832557 C11.4781139,20.2540273 8.99623187,15.7702206 8.99623187,11.0318359 C8.99623187,6.10987537 12.0061053,0 20,0 L20.3599332,0.00418251918 C28.084412,0.184875031 31.0037681,6.18445053 31.0037681,11.0318359 C31.0037681,15.651761 28.644429,20.0296778 23.9257508,24.1655863 L23.558122,24.4832557 L23.558122,28.2400955 C32.5840526,28.2400955 38.4657618,30.7746668 39.9314814,36.1794314 L40,36.447555 L40,46.9185926 C40,47.8568794 38.9636196,48.9665115 38.0189533,48.9665115 Z" id="Path" fill="#5A5A5A"></path>
        <path d="M75.0189533,53.9665115 C67.0254923,53.9665115 55.0353007,53.9665115 39.0483787,53.9665115 C38.0190045,53.9665115 37,52.8596158 37,51.8619414 L37,41.447555 C38.3422403,35.8584487 44.2679814,33.2400955 53.441878,33.2400955 L53.441878,29.4832557 C48.4781139,25.2540273 45.9962319,20.7702206 45.9962319,16.0318359 C45.9962319,11.1098754 49.0061053,5 57,5 L57.3599332,5.00418252 C65.084412,5.18487503 68.0037681,11.1844505 68.0037681,16.0318359 C68.0037681,20.651761 65.644429,25.0296778 60.9257508,29.1655863 L60.558122,29.4832557 L60.558122,33.2400955 C69.5840526,33.2400955 75.4657618,35.7746668 76.9314814,41.1794314 L77,41.447555 L77,51.9185926 C77,52.8568794 75.9636196,53.9665115 75.0189533,53.9665115 Z" id="Path" fill="#5A5A5A"></path>
        <path d="M56.0189533,72.1313528 C48.0254923,72.1313528 36.0353007,72.1313528 20.0483787,72.1313528 C19.0190045,72.1313528 18,71.0244571 18,70.0267827 L18,59.6123963 C19.3422403,54.0232899 25.2679814,51.4049368 34.441878,51.4049368 L34.441878,47.648097 C29.4781139,43.4188685 26.9962319,38.9350619 26.9962319,34.1966771 C26.9962319,29.2747166 30.0061053,23.1648413 38,23.1648413 L38.3599332,23.1690238 C46.084412,23.3497163 49.0037681,29.3492918 49.0037681,34.1966771 C49.0037681,38.8166023 46.644429,43.1945191 41.9257508,47.3304275 L41.558122,47.648097 L41.558122,51.4049368 C50.5840526,51.4049368 56.4657618,53.9395081 57.9314814,59.3442727 L58,59.6123963 L58,70.0834339 C58,71.0217207 56.9636196,72.1313528 56.0189533,72.1313528 Z" id="Path" fill="#01BF42"></path>
    </g>
</svg>