<?xml version="1.0" encoding="UTF-8"?>
<svg width="80px" height="81px" viewBox="0 0 80 81" version="1.1" xmlns="http://www.w3.org/2000/svg" xmlns:xlink="http://www.w3.org/1999/xlink">
    <!-- Generator: Sketch 63.1 (92452) - https://sketch.com -->
    <title>Untitled</title>
    <desc>Created with Sketch.</desc>
    <g id="Page-1" stroke="none" stroke-width="1" fill="none" fill-rule="evenodd">
        <path d="M60,49 C64.418278,49 68,45.418278 68,41 C68,36.6650857 64.5521622,33.1354571 60.2491793,33.0038068 L60,33 L60,49 Z M60,33 C55.581722,33 52,36.581722 52,41 C52,45.418278 55.581722,49 60,49 L60,33 Z M50.5386958,59.2186593 L49.1846405,58.0488479 C47.6366475,56.7277053 48.1317526,57.2314785 46.3815819,55.6589263 L46.3637366,55.6301347 C42.4480666,51.9792002 40,46.7754884 40,41 C40,29.954305 48.954305,21 60,21 L60.3444894,21.0029071 C71.2312714,21.186775 80,30.0693643 80,41 C80,46.6273989 77.6758658,51.7119673 73.9345576,55.3462475 L73.6362634,55.6301347 L73.6184181,55.6589263 L72.7472998,56.4336838 C71.7742318,57.2845241 72.1083579,56.9124356 69.4613042,59.2186593 L69.1296804,59.5886422 C66.1647701,62.9826098 62.2902343,69.7174215 60.1209509,80.3915905 L60,81 C57.776902,69.5643382 53.59496,62.5392276 50.5386958,59.2186593 Z" id="Shape" fill="#01BF42"></path>
        <path d="M15,52 C18.3137085,52 21,49.3137085 21,46 C21,42.7488143 18.4141217,40.1015929 15.1868845,40.0028551 L15,40 L15,52 Z M15,40 C11.6862915,40 9,42.6862915 9,46 C9,49.3137085 11.6862915,52 15,52 L15,40 Z M7.90402186,59.6639945 L6.88848036,58.7866359 C5.72748566,57.795779 6.09881446,58.1736089 4.78618639,56.9941947 L4.77280241,56.972601 C1.83604992,54.2344002 0,50.3316163 0,46 C0,37.7157288 6.71572875,31 15,31 L15.2583671,31.0021803 C23.4234536,31.1400812 30,37.8020232 30,46 C30,50.2205492 28.2568994,54.0339755 25.4509182,56.7596856 L25.2271976,56.972601 L25.2138136,56.9941947 L24.5604748,57.5752628 C23.8306739,58.2133931 24.0812684,57.9343267 22.0959781,59.6639945 L21.8472603,59.9414816 C19.6235776,62.4869573 16.7176757,67.5380661 15.0907131,75.5436929 L15,76 C13.3326765,67.4232536 10.19622,62.1544207 7.90402186,59.6639945 Z" id="Shape" fill="#5A5A5A"></path>
        <path d="M35,21 C38.3137085,21 41,18.3137085 41,15 C41,11.7488143 38.4141217,9.10159285 35.1868845,9.00285512 L35,9 L35,21 Z M35,9 C31.6862915,9 29,11.6862915 29,15 C29,18.3137085 31.6862915,21 35,21 L35,9 Z M27.9040219,28.6639945 L26.8884804,27.7866359 C25.7274857,26.795779 26.0988145,27.1736089 24.7861864,25.9941947 L24.7728024,25.972601 C21.8360499,23.2344002 20,19.3316163 20,15 C20,6.71572875 26.7157288,0 35,0 L35.2583671,0.00218029185 C43.4234536,0.140081213 50,6.80202325 50,15 C50,19.2205492 48.2568994,23.0339755 45.4509182,25.7596856 L45.2271976,25.972601 L45.2138136,25.9941947 L44.5604748,26.5752628 C43.8306739,27.2133931 44.0812684,26.9343267 42.0959781,28.6639945 L41.8472603,28.9414816 C39.6235776,31.4869573 36.7176757,36.5380661 35.0907131,44.5436929 L35,45 C33.3326765,36.4232536 30.19622,31.1544207 27.9040219,28.6639945 Z" id="Shape" fill="#5A5A5A"></path>
    </g>
</svg>