<?xml version="1.0" encoding="UTF-8" standalone="no"?>
<!-- Created with Inkscape (http://www.inkscape.org/) -->

<svg
   xmlns:dc="http://purl.org/dc/elements/1.1/"
   xmlns:cc="http://creativecommons.org/ns#"
   xmlns:rdf="http://www.w3.org/1999/02/22-rdf-syntax-ns#"
   xmlns:svg="http://www.w3.org/2000/svg"
   xmlns="http://www.w3.org/2000/svg"
   xmlns:sodipodi="http://sodipodi.sourceforge.net/DTD/sodipodi-0.dtd"
   xmlns:inkscape="http://www.inkscape.org/namespaces/inkscape"
   width="24"
   height="24"
   viewBox="0 0 24.000001 24.000001"
   id="svg2"
   version="1.1"
   inkscape:version="0.91 r13725"
   sodipodi:docname="key.svg">
  <defs
     id="defs4" />
  <metadata
     id="metadata7">
    <rdf:RDF>
      <cc:Work
         rdf:about="">
        <dc:format>image/svg+xml</dc:format>
        <dc:type
           rdf:resource="http://purl.org/dc/dcmitype/StillImage" />
        <dc:title></dc:title>
      </cc:Work>
    </rdf:RDF>
  </metadata>
  <g
     inkscape:label="Layer 1"
     inkscape:groupmode="layer"
     id="layer1"
     transform="translate(0,-1028.3622)">
    <g
       id="g4148"
       transform="matrix(0.37500002,0,0,0.37500002,3.0710571,1031.5289)"
       style="stroke:#000000;stroke-opacity:0">
      <path
         id="path4138"
         d="M 0,0 48,0 48,48 0,48 Z"
         inkscape:connector-curvature="0"
         style="fill:none;stroke:#000000;stroke-opacity:0" />
      <path
         id="path4140"
         d="M 25.3,20 C 23.65,15.34 19.22,12 14,12 7.37,12 2,17.37 2,24 c 0,6.63 5.37,12 12,12 5.22,0 9.65,-3.34 11.3,-8 l 8.7,0 0,8 8,0 0,-8 4,0 0,-8 -20.7,0 z M 14,28 c -2.21,0 -4,-1.79 -4,-4 0,-2.21 1.79,-4 4,-4 2.21,0 4,1.79 4,4 0,2.21 -1.79,4 -4,4 z"
         inkscape:connector-curvature="0"
         style="stroke:#000000;stroke-opacity:0;fill:#95959f;fill-opacity:0.94117647" />
    </g>
  </g>
</svg>
