<?xml version="1.0" encoding="UTF-8" standalone="no"?>
<!-- Generator: Adobe Illustrator 18.1.1, SVG Export Plug-In . SVG Version: 6.00 Build 0)  -->

<svg
   xmlns:dc="http://purl.org/dc/elements/1.1/"
   xmlns:cc="http://creativecommons.org/ns#"
   xmlns:rdf="http://www.w3.org/1999/02/22-rdf-syntax-ns#"
   xmlns:svg="http://www.w3.org/2000/svg"
   xmlns="http://www.w3.org/2000/svg"
   xmlns:sodipodi="http://sodipodi.sourceforge.net/DTD/sodipodi-0.dtd"
   xmlns:inkscape="http://www.inkscape.org/namespaces/inkscape"
   version="1.1"
   id="Capa_1"
   x="0px"
   y="0px"
   viewBox="0 0 14 14"
   xml:space="preserve"
   inkscape:version="0.91 r13725"
   sodipodi:docname="no_entry.svg"
   width="14"
   height="14"><metadata
     id="metadata4176"><rdf:RDF><cc:Work
         rdf:about=""><dc:format>image/svg+xml</dc:format><dc:type
           rdf:resource="http://purl.org/dc/dcmitype/StillImage" /><dc:title></dc:title></cc:Work></rdf:RDF></metadata><defs
     id="defs4174" /><sodipodi:namedview
     pagecolor="#ffffff"
     bordercolor="#666666"
     borderopacity="1"
     objecttolerance="10"
     gridtolerance="10"
     guidetolerance="10"
     inkscape:pageopacity="0"
     inkscape:pageshadow="2"
     inkscape:window-width="1920"
     inkscape:window-height="1018"
     id="namedview4172"
     showgrid="false"
     inkscape:zoom="26.53125"
     inkscape:cx="7.3150466"
     inkscape:cy="3.9387515"
     inkscape:window-x="-8"
     inkscape:window-y="-8"
     inkscape:window-maximized="1"
     inkscape:current-layer="g4137" /><g
     id="g4137"
     transform="scale(0.4375,0.4375)"><g
       id="denied"
       style="fill:#959595;fill-opacity:0.99408287"><path
         style="fill:#959595;fill-opacity:0.99408287"
         d="M 16,0 C 7.164,0 0,7.164 0,16 0,24.836 7.164,32 16,32 24.836,32 32,24.836 32,16 32,7.164 24.836,0 16,0 Z m 0,4 c 2.59,0 4.973,0.844 6.934,2.242 L 6.238,22.93 C 4.84,20.969 4,18.586 4,16 4,9.383 9.383,4 16,4 Z m 0,24 C 13.41,28 11.027,27.156 9.066,25.758 L 25.762,9.07 C 27.16,11.031 28,13.414 28,16 28,22.617 22.617,28 16,28 Z"
         id="path4140"
         inkscape:connector-curvature="0" /></g></g><g
     id="g4142"
     transform="translate(0,-18)" /><g
     id="g4144"
     transform="translate(0,-18)" /><g
     id="g4146"
     transform="translate(0,-18)" /><g
     id="g4148"
     transform="translate(0,-18)" /><g
     id="g4150"
     transform="translate(0,-18)" /><g
     id="g4152"
     transform="translate(0,-18)" /><g
     id="g4154"
     transform="translate(0,-18)" /><g
     id="g4156"
     transform="translate(0,-18)" /><g
     id="g4158"
     transform="translate(0,-18)" /><g
     id="g4160"
     transform="translate(0,-18)" /><g
     id="g4162"
     transform="translate(0,-18)" /><g
     id="g4164"
     transform="translate(0,-18)" /><g
     id="g4166"
     transform="translate(0,-18)" /><g
     id="g4168"
     transform="translate(0,-18)" /><g
     id="g4170"
     transform="translate(0,-18)" /></svg>