<?xml version="1.0" encoding="UTF-8" standalone="no"?>
<!-- Generator: Adobe Illustrator 18.0.0, SVG Export Plug-In . SVG Version: 6.00 Build 0)  -->

<svg
   xmlns:svg="http://www.w3.org/2000/svg"
   xmlns="http://www.w3.org/2000/svg"
   xmlns:inkscape="http://www.inkscape.org/namespaces/inkscape"
   version="1.1"
   id="Capa_1"
   x="0px"
   y="0px"
   viewBox="0 0 15 15"
   inkscape:version="0.91 r13725"
   width="15"
   height="15"><defs
     id="defs3371" /><path
     d="M 14.805585,10.762405 9.0605231,1.760408 C 8.7365428,1.2526949 8.1835134,0.94956692 7.5812086,0.94956692 c -0.6023531,0 -1.1553829,0.30312798 -1.4792664,0.81084108 l -5.74510983,9.001947 c -0.3448292,0.540385 -0.3677051,1.225366 -0.059507,1.787705 0.3081986,0.562106 0.89785903,0.911328 1.53886953,0.911328 l 11.4900751,0 c 0.64101,0 1.230671,-0.349172 1.538966,-0.911469 0.308054,-0.562198 0.285178,-1.247129 -0.05965,-1.787514 z m -7.2243764,1.18371 c -0.5283198,0 -0.956545,-0.428272 -0.956545,-0.956546 0,-0.528316 0.4282735,-0.956587 0.956545,-0.956587 0.5283198,0 0.9565447,0.428271 0.9565447,0.956587 0,0.528274 -0.4282732,0.956546 -0.9565447,0.956546 z M 8.9070514,5.2990012 8.4359213,8.4710898 C 8.3665699,8.9380228 7.9318292,9.2603098 7.4649464,9.1909618 7.0877337,9.1349088 6.8049207,8.8391798 6.7467655,8.4818998 L 6.2351442,5.316084 C 6.1160346,4.5789876 6.61699,3.8848818 7.3540895,3.7657776 8.091189,3.6466651 8.7852872,4.1476217 8.9043972,4.8847181 c 0.022396,0.1388062 0.021621,0.2820916 0.00267,0.4142831 z" style="fill:#f78e1e" />
     </svg>