<?xml version="1.0" encoding="UTF-8" standalone="no"?>
<svg
   xmlns:dc="http://purl.org/dc/elements/1.1/"
   xmlns:cc="http://creativecommons.org/ns#"
   xmlns:rdf="http://www.w3.org/1999/02/22-rdf-syntax-ns#"
   xmlns:svg="http://www.w3.org/2000/svg"
   xmlns="http://www.w3.org/2000/svg"
   xmlns:sodipodi="http://sodipodi.sourceforge.net/DTD/sodipodi-0.dtd"
   xmlns:inkscape="http://www.inkscape.org/namespaces/inkscape"
   height="11"
   id="Layer_1"
   version="1.1"
   viewBox="0 0 11 11"
   width="11"
   xml:space="preserve"
   inkscape:version="0.91 r13725"
   sodipodi:docname="bookmark_home.svg"><metadata
     id="metadata3364"><rdf:RDF><cc:Work
         rdf:about=""><dc:format>image/svg+xml</dc:format><dc:type
           rdf:resource="http://purl.org/dc/dcmitype/StillImage" /><dc:title></dc:title></cc:Work></rdf:RDF></metadata><defs
     id="defs3362" /><sodipodi:namedview
     pagecolor="#ffffff"
     bordercolor="#666666"
     borderopacity="1"
     objecttolerance="10"
     gridtolerance="10"
     guidetolerance="10"
     inkscape:pageopacity="0"
     inkscape:pageshadow="2"
     inkscape:window-width="1920"
     inkscape:window-height="1018"
     id="namedview3360"
     showgrid="false"
     inkscape:zoom="14.75"
     inkscape:cx="8"
     inkscape:cy="8"
     inkscape:window-x="-8"
     inkscape:window-y="-8"
     inkscape:window-maximized="1"
     inkscape:current-layer="Layer_1" /><path
     style="fill:#808080"
     d="m 10.371218,4.8341102 -0.9606248,-0.9599625 0,-2.3525375 c 0,-0.364375 -0.298125,-0.66250003 -0.6625,-0.66250003 l -0.6625,0 c -0.364375,0 -0.6625,0.29812503 -0.6625,0.66250003 l 0,0.3663625 -1.325,-1.32367503 c -0.1808625,-0.170925 -0.3464875,-0.3676875 -0.6625,-0.3676875 -0.3160125,0 -0.4816375,0.1967625 -0.6625,0.3676875 L 0.49996822,4.8341102 c -0.2067,0.2153125 -0.364375,0.372325 -0.364375,0.6625 0,0.3729875 0.2862,0.6625 0.6625,0.6625 l 0.66249998,0 0,3.9749998 c 0,0.364375 0.298125,0.6625 0.6625,0.6625 l 1.9875,0 0,-3.3124998 c 0,-0.364375 0.298125,-0.6625 0.6625,-0.6625 l 1.325,0 c 0.364375,0 0.6625,0.298125 0.6625,0.6625 l 0,3.3124998 1.9875,0 c 0.364375,0 0.6625,-0.298125 0.6625,-0.6625 l 0,-3.9749998 0.6624998,0 c 0.3763,0 0.6625,-0.2895125 0.6625,-0.6625 0,-0.290175 -0.157675,-0.4471875 -0.364375,-0.6625 z"
     id="path3358"
     inkscape:connector-curvature="0" /></svg>