<?xml version="1.0" encoding="UTF-8" standalone="no"?>
<svg
   xmlns:dc="http://purl.org/dc/elements/1.1/"
   xmlns:cc="http://creativecommons.org/ns#"
   xmlns:rdf="http://www.w3.org/1999/02/22-rdf-syntax-ns#"
   xmlns:svg="http://www.w3.org/2000/svg"
   xmlns="http://www.w3.org/2000/svg"
   xmlns:sodipodi="http://sodipodi.sourceforge.net/DTD/sodipodi-0.dtd"
   xmlns:inkscape="http://www.inkscape.org/namespaces/inkscape"
   enable-background="new -1.23 -8.789 141.732 141.732"
   height="11"
   id="Livello_1"
   version="1.1"
   viewBox="-1.23 -8.789 11 11"
   width="11"
   xml:space="preserve"
   inkscape:version="0.91 r13725"
   sodipodi:docname="bookmark_shared.svg"><metadata
     id="metadata3375"><rdf:RDF><cc:Work
         rdf:about=""><dc:format>image/svg+xml</dc:format><dc:type
           rdf:resource="http://purl.org/dc/dcmitype/StillImage" /><dc:title></dc:title></cc:Work></rdf:RDF></metadata><defs
     id="defs3373" /><sodipodi:namedview
     pagecolor="#ffffff"
     bordercolor="#666666"
     borderopacity="1"
     objecttolerance="10"
     gridtolerance="10"
     guidetolerance="10"
     inkscape:pageopacity="0"
     inkscape:pageshadow="2"
     inkscape:window-width="1920"
     inkscape:window-height="1018"
     id="namedview3371"
     showgrid="false"
     inkscape:zoom="18.83862"
     inkscape:cx="32.978805"
     inkscape:cy="16.81566"
     inkscape:window-x="-8"
     inkscape:window-y="-8"
     inkscape:window-maximized="1"
     inkscape:current-layer="Livello_1" /><g
     id="Livello_100"
     transform="matrix(0.07754554,0,0,0.07754554,-1.1147313,-8.0308828)"><path
       style="fill:#808080"
       d="m 139.273,49.088 c 0,-3.284 -2.75,-5.949 -6.146,-5.949 -0.219,0 -0.434,0.012 -0.646,0.031 L 90.036,42.169 75.536,4.315 C 74.805,1.824 72.443,0 69.637,0 66.828,0 64.469,1.824 63.735,4.315 L 49.232,42.169 6.789,43.17 C 6.576,43.149 6.359,43.139 6.143,43.139 2.75,43.136 0,45.802 0,49.088 c 0,2.1 1.121,3.938 2.812,4.997 l 33.807,23.9 -12.063,37.494 c -0.438,0.813 -0.688,1.741 -0.688,2.723 0,3.287 2.75,5.952 6.146,5.952 1.438,0 2.766,-0.484 3.812,-1.29 l 35.814,-22.737 35.812,22.737 c 1.049,0.806 2.371,1.29 3.812,1.29 3.393,0 6.143,-2.665 6.143,-5.952 0,-0.979 -0.25,-1.906 -0.688,-2.723 l -12.062,-37.494 33.806,-23.9 c 1.687,-1.061 2.81,-2.9 2.81,-4.997"
       id="path3368"
       inkscape:connector-curvature="0" /></g><g
     id="Livello_1_1_"
     transform="translate(0,-130.73199)" /></svg>