<?xml version="1.0" encoding="UTF-8" standalone="no"?>
<!-- Generator: Adobe Illustrator 18.1.1, SVG Export Plug-In . SVG Version: 6.00 Build 0)  -->

<svg
   xmlns:dc="http://purl.org/dc/elements/1.1/"
   xmlns:cc="http://creativecommons.org/ns#"
   xmlns:rdf="http://www.w3.org/1999/02/22-rdf-syntax-ns#"
   xmlns:svg="http://www.w3.org/2000/svg"
   xmlns="http://www.w3.org/2000/svg"
   xmlns:sodipodi="http://sodipodi.sourceforge.net/DTD/sodipodi-0.dtd"
   xmlns:inkscape="http://www.inkscape.org/namespaces/inkscape"
   version="1.1"
   id="Capa_1"
   x="0px"
   y="0px"
   viewBox="0 0 40 40"
   xml:space="preserve"
   inkscape:version="0.92.4 (5da689c313, 2019-01-14)"
   sodipodi:docname="camera.svg"
   width="40"
   height="40"><metadata
     id="metadata4177"><rdf:RDF><cc:Work
         rdf:about=""><dc:format>image/svg+xml</dc:format><dc:type
           rdf:resource="http://purl.org/dc/dcmitype/StillImage" /><dc:title></dc:title></cc:Work></rdf:RDF></metadata><defs
     id="defs4175" /><sodipodi:namedview
     pagecolor="#ffffff"
     bordercolor="#666666"
     borderopacity="1"
     objecttolerance="10"
     gridtolerance="10"
     guidetolerance="10"
     inkscape:pageopacity="0"
     inkscape:pageshadow="2"
     inkscape:window-width="1920"
     inkscape:window-height="1017"
     id="namedview4173"
     showgrid="false"
     inkscape:zoom="6.69"
     inkscape:cx="3.6621819"
     inkscape:cy="14.125561"
     inkscape:window-x="1912"
     inkscape:window-y="-8"
     inkscape:window-maximized="1"
     inkscape:current-layer="Capa_1"
     inkscape:pagecheckerboard="true" /><g
     id="g4137"
     transform="matrix(0.39,0,0,0.39,0.5,1.0644245)"><g
       id="g4139"><path
         style="fill:#ffffff;stroke-width:0.38999999;fill-opacity:1"
         d="M 0 0 L 0 40 L 40 40 L 40 0 L 0 0 z M 13.369141 4.9648438 L 26.630859 4.9648438 C 27.274359 4.9648438 27.965952 5.4638687 28.169922 6.0742188 L 29.380859 9.7050781 C 29.584049 10.315818 30.276422 10.814453 30.919922 10.814453 L 35.599609 10.814453 C 37.744609 10.814453 39.5 12.569844 39.5 14.714844 L 39.5 32.263672 C 39.5 34.408672 37.744609 36.164062 35.599609 36.164062 L 4.4003906 36.164062 C 2.2553906 36.164062 0.5 34.408672 0.5 32.263672 L 0.5 14.714844 C 0.5 12.569844 2.2553906 10.814453 4.4003906 10.814453 L 9.0800781 10.814453 C 9.7235781 10.814453 10.415171 10.315428 10.619141 9.7050781 L 11.830078 6.0742188 C 12.033268 5.4634788 12.725641 4.9648438 13.369141 4.9648438 z M 20 12.763672 C 14.61527 12.763672 10.25 17.129332 10.25 22.513672 C 10.25 27.898402 14.61527 32.263672 20 32.263672 C 25.38395 32.263672 29.75 27.898402 29.75 22.513672 C 29.75 17.129332 25.38395 12.763672 20 12.763672 z M 34.234375 14.710938 C 33.480895 14.710937 32.869141 15.322692 32.869141 16.076172 C 32.869141 16.830432 33.480895 17.441406 34.234375 17.441406 C 34.988245 17.441406 35.599609 16.830432 35.599609 16.076172 C 35.599609 15.322692 34.988635 14.710938 34.234375 14.710938 z M 20 16.664062 C 23.23037 16.664062 25.849609 19.283692 25.849609 22.513672 C 25.849609 25.744822 23.23037 28.365234 20 28.365234 C 16.76885 28.365234 14.150391 25.744822 14.150391 22.513672 C 14.150391 19.283692 16.76885 16.664062 20 16.664062 z "
         transform="matrix(2.5641026,0,0,2.5641026,-1.2820513,-2.7292936)"
         id="path4141" /></g></g><g
     id="g4143"
     transform="translate(0,-60)" /><g
     id="g4145"
     transform="translate(0,-60)" /><g
     id="g4147"
     transform="translate(0,-60)" /><g
     id="g4149"
     transform="translate(0,-60)" /><g
     id="g4151"
     transform="translate(0,-60)" /><g
     id="g4153"
     transform="translate(0,-60)" /><g
     id="g4155"
     transform="translate(0,-60)" /><g
     id="g4157"
     transform="translate(0,-60)" /><g
     id="g4159"
     transform="translate(0,-60)" /><g
     id="g4161"
     transform="translate(0,-60)" /><g
     id="g4163"
     transform="translate(0,-60)" /><g
     id="g4165"
     transform="translate(0,-60)" /><g
     id="g4167"
     transform="translate(0,-60)" /><g
     id="g4169"
     transform="translate(0,-60)" /><g
     id="g4171"
     transform="translate(0,-60)" /></svg>