<?xml version="1.0" encoding="UTF-8" standalone="no"?>
<!-- Generator: Adobe Illustrator 16.0.0, SVG Export Plug-In . SVG Version: 6.00 Build 0)  -->

<svg
   xmlns:dc="http://purl.org/dc/elements/1.1/"
   xmlns:cc="http://creativecommons.org/ns#"
   xmlns:rdf="http://www.w3.org/1999/02/22-rdf-syntax-ns#"
   xmlns:svg="http://www.w3.org/2000/svg"
   xmlns="http://www.w3.org/2000/svg"
   xmlns:sodipodi="http://sodipodi.sourceforge.net/DTD/sodipodi-0.dtd"
   xmlns:inkscape="http://www.inkscape.org/namespaces/inkscape"
   version="1.1"
   id="Capa_1"
   x="0px"
   y="0px"
   width="40"
   height="40"
   viewBox="0 0 39.999998 39.999998"
   xml:space="preserve"
   inkscape:version="0.92.4 (5da689c313, 2019-01-14)"
   sodipodi:docname="check_orange.svg"><metadata
     id="metadata4175"><rdf:RDF><cc:Work
         rdf:about=""><dc:format>image/svg+xml</dc:format><dc:type
           rdf:resource="http://purl.org/dc/dcmitype/StillImage" /><dc:title></dc:title></cc:Work></rdf:RDF></metadata><defs
     id="defs4173" /><sodipodi:namedview
     pagecolor="#ffffff"
     bordercolor="#666666"
     borderopacity="1"
     objecttolerance="10"
     gridtolerance="10"
     guidetolerance="10"
     inkscape:pageopacity="0"
     inkscape:pageshadow="2"
     inkscape:window-width="1920"
     inkscape:window-height="1017"
     id="namedview4171"
     showgrid="false"
     inkscape:zoom="10.833365"
     inkscape:cx="24.184546"
     inkscape:cy="20.723018"
     inkscape:window-x="1912"
     inkscape:window-y="-8"
     inkscape:window-maximized="1"
     inkscape:current-layer="Capa_1"
     inkscape:pagecheckerboard="true" /><g
     id="g4137"
     transform="matrix(0.49763782,0,0,0.51039776,0.50012441,-0.00410374)"><path
       style="fill:#ffffff;stroke-width:0.50397742;fill-opacity:1"
       d="M 0 0 L 0 40 L 40 40 L 40 0 L 0 0 z M 35.619141 5.3261719 C 35.758417 5.3261719 35.897412 5.3812645 36.003906 5.4902344 L 39.339844 8.9101562 C 39.552833 9.1280961 39.552833 9.4822112 39.339844 9.7011719 L 15.160156 34.501953 C 14.947167 34.720403 14.601163 34.720403 14.388672 34.501953 L 0.66015625 20.419922 C 0.4476649 20.202492 0.4476649 19.847356 0.66015625 19.628906 L 3.9960938 16.208984 C 4.2090827 15.991045 4.5531337 15.991045 4.765625 16.208984 L 14.775391 26.472656 L 35.234375 5.4902344 C 35.341118 5.3812645 35.479864 5.3261719 35.619141 5.3261719 z "
       transform="matrix(2.0094936,0,0,1.9592562,-1.0049968,0.00804028)"
       id="path4139" /></g><g
     id="g4141"
     transform="translate(0,-38.369003)" /><g
     id="g4143"
     transform="translate(0,-38.369003)" /><g
     id="g4145"
     transform="translate(0,-38.369003)" /><g
     id="g4147"
     transform="translate(0,-38.369003)" /><g
     id="g4149"
     transform="translate(0,-38.369003)" /><g
     id="g4151"
     transform="translate(0,-38.369003)" /><g
     id="g4153"
     transform="translate(0,-38.369003)" /><g
     id="g4155"
     transform="translate(0,-38.369003)" /><g
     id="g4157"
     transform="translate(0,-38.369003)" /><g
     id="g4159"
     transform="translate(0,-38.369003)" /><g
     id="g4161"
     transform="translate(0,-38.369003)" /><g
     id="g4163"
     transform="translate(0,-38.369003)" /><g
     id="g4165"
     transform="translate(0,-38.369003)" /><g
     id="g4167"
     transform="translate(0,-38.369003)" /><g
     id="g4169"
     transform="translate(0,-38.369003)" /></svg>