<?xml version="1.0" encoding="utf-8"?>
<!-- Generator: Adobe Illustrator 19.1.1, SVG Export Plug-In . SVG Version: 6.00 Build 0)  -->
<svg version="1.1" id="Layer_1" xmlns="http://www.w3.org/2000/svg" xmlns:xlink="http://www.w3.org/1999/xlink" x="0px" y="0px"
	 viewBox="0 0 18 18" style="enable-background:new 0 0 18 18;" xml:space="preserve">
<style type="text/css">
	.st0{fill:#010202;}
	.st1{fill:#656564;}
</style>
	<path class="st0" d="M162.3,7.8C77.2,7.8,7.9,77,7.9,162.1c0,34.3,21.9,90.2,66.9,170.8c31.8,57.1,63.2,104.6,64.5,106.6
		l22.9,34.8l22.9-34.8c1.3-2,32.6-49.6,64.5-106.6c45-80.7,66.9-136.6,66.9-170.8C316.6,77,247.4,7.8,162.3,7.8z M162.3,241.1
		c-44.2,0-80-35.8-80-80s35.8-80,80-80s80,35.8,80,80S206.5,241.1,162.3,241.1z"/>
	<path class="st1" d="M9,1C5.8,1,3.1,3.6,3.1,6.9c0,0.8,0.2,1.7,0.5,2.4c1.5,3.2,4.3,6.6,5.1,7.6C8.8,17,8.9,17,9,17
		c0.1,0,0.2,0,0.2-0.1c0.8-1,3.7-4.4,5.1-7.6c0.3-0.7,0.5-1.6,0.5-2.4C14.9,3.6,12.2,1,9,1z M9,10c-1.7,0-3.1-1.4-3.1-3.1
		c0-1.7,1.4-3.1,3.1-3.1s3.1,1.4,3.1,3.1C12.1,8.6,10.7,10,9,10z"/>
</svg>
