<?xml version="1.0" encoding="UTF-8" standalone="no"?>
<!-- Generator: Adobe Illustrator 18.1.1, SVG Export Plug-In . SVG Version: 6.00 Build 0)  -->

<svg
   xmlns:dc="http://purl.org/dc/elements/1.1/"
   xmlns:cc="http://creativecommons.org/ns#"
   xmlns:rdf="http://www.w3.org/1999/02/22-rdf-syntax-ns#"
   xmlns:svg="http://www.w3.org/2000/svg"
   xmlns="http://www.w3.org/2000/svg"
   xmlns:sodipodi="http://sodipodi.sourceforge.net/DTD/sodipodi-0.dtd"
   xmlns:inkscape="http://www.inkscape.org/namespaces/inkscape"
   version="1.1"
   id="Capa_1"
   x="0px"
   y="0px"
   viewBox="0 0 40 40"
   xml:space="preserve"
   inkscape:version="0.92.4 (5da689c313, 2019-01-14)"
   sodipodi:docname="folder.svg"
   width="40"
   height="40"><metadata
     id="metadata4177"><rdf:RDF><cc:Work
         rdf:about=""><dc:format>image/svg+xml</dc:format><dc:type
           rdf:resource="http://purl.org/dc/dcmitype/StillImage" /><dc:title></dc:title></cc:Work></rdf:RDF></metadata><defs
     id="defs4175" /><sodipodi:namedview
     pagecolor="#ffffff"
     bordercolor="#666666"
     borderopacity="1"
     objecttolerance="10"
     gridtolerance="10"
     guidetolerance="10"
     inkscape:pageopacity="0"
     inkscape:pageshadow="2"
     inkscape:window-width="1920"
     inkscape:window-height="1017"
     id="namedview4173"
     showgrid="false"
     inkscape:zoom="8.49"
     inkscape:cx="30.859835"
     inkscape:cy="26.442874"
     inkscape:window-x="1912"
     inkscape:window-y="-8"
     inkscape:window-maximized="1"
     inkscape:current-layer="Capa_1" /><g
     id="g4137"
     transform="matrix(0.39000053,0,0,0.39000053,0.50007548,0.7289523)"><g
       id="g4139"><path
         style="fill:#ffffff;stroke-width:0.39000052;fill-opacity:1"
         d="M 0 0 L 0 40 L 40 40 L 40 0 L 0 0 z M 6.5175781 4.6289062 L 12.867188 4.6289062 C 13.947879 4.6289062 15.459038 5.2488683 16.224609 6.0058594 L 17.384766 7.1523438 C 18.149947 7.9089448 19.661496 8.5292969 20.742188 8.5292969 L 34.03125 8.5292969 C 35.112331 8.5292969 36.172222 9.2318426 36.388672 10.089844 L 36.78125 11.648438 L 3.7675781 11.648438 L 4.3359375 6.5664062 C 4.4548877 5.5001448 5.4368867 4.6289062 6.5175781 4.6289062 z M 2.3144531 14.378906 L 37.6875 14.378906 C 39.482672 14.378906 39.570546 15.252101 39.472656 16.320312 L 37.863281 33.886719 C 37.765781 34.95454 37.549026 35.828125 35.720703 35.828125 L 4.2792969 35.828125 C 2.4864644 35.828125 2.2322658 34.95493 2.1347656 33.886719 L 0.52539062 16.320312 C 0.42789049 15.252491 0.51889068 14.378906 2.3144531 14.378906 z "
         transform="matrix(2.5640991,0,0,2.5640991,-1.2822431,-1.8691059)"
         id="path4141" /></g></g></svg>