<?xml version="1.0" encoding="UTF-8" standalone="no"?>
<!-- Created with Inkscape (http://www.inkscape.org/) -->

<svg
   xmlns:dc="http://purl.org/dc/elements/1.1/"
   xmlns:cc="http://creativecommons.org/ns#"
   xmlns:rdf="http://www.w3.org/1999/02/22-rdf-syntax-ns#"
   xmlns:svg="http://www.w3.org/2000/svg"
   xmlns="http://www.w3.org/2000/svg"
   xmlns:sodipodi="http://sodipodi.sourceforge.net/DTD/sodipodi-0.dtd"
   xmlns:inkscape="http://www.inkscape.org/namespaces/inkscape"
   width="16"
   height="16"
   viewBox="0 0 16 16"
   id="svg2"
   version="1.1"
   inkscape:version="0.91 r13725"
   sodipodi:docname="gps_status.svg">
  <defs
     id="defs4" />
  <sodipodi:namedview
     id="base"
     pagecolor="#ffffff"
     bordercolor="#666666"
     borderopacity="1.0"
     inkscape:pageopacity="0"
     inkscape:pageshadow="2"
     inkscape:zoom="15.29"
     inkscape:cx="5.5324249"
     inkscape:cy="8.9033206"
     inkscape:document-units="px"
     inkscape:current-layer="layer2"
     showgrid="false"
     units="px"
     inkscape:window-width="1920"
     inkscape:window-height="1018"
     inkscape:window-x="-8"
     inkscape:window-y="32"
     inkscape:window-maximized="1"
     showborder="true" />
  <metadata
     id="metadata7">
    <rdf:RDF>
      <cc:Work
         rdf:about="">
        <dc:format>image/svg+xml</dc:format>
        <dc:type
           rdf:resource="http://purl.org/dc/dcmitype/StillImage" />
        <dc:title></dc:title>
      </cc:Work>
    </rdf:RDF>
  </metadata>
  <g
     inkscape:label="Layer 1"
     inkscape:groupmode="layer"
     id="layer1"
     transform="translate(0,-1036.3622)"
     style="display:none">
    <g
       id="g4179"
       transform="matrix(0.05333333,0,0,0.05333333,0.03412186,1036.3814)"
       style="fill:#000000;fill-opacity:0;stroke:#000000;stroke-opacity:1">
      <g
         id="g4137"
         style="fill:#000000;fill-opacity:0;stroke:#000000;stroke-opacity:1">
        <g
           id="g4139"
           style="fill:#000000;fill-opacity:0;stroke:#000000;stroke-opacity:1">
          <path
             id="path4141"
             d="M 149.996,0 C 67.157,0 0.001,67.161 0.001,149.997 0.001,232.833 67.157,300 149.996,300 232.835,300 299.999,232.837 299.999,149.997 299.999,67.157 232.835,0 149.996,0 Z m 0.003,232.951 c -10.766,0 -19.499,-8.725 -19.499,-19.499 l 38.995,0 c 0.002,10.774 -8.73,19.499 -19.496,19.499 z m 65.89,-39.051 -0.005,0 0,-0.001 c 0,7.21 -5.843,7.685 -13.048,7.685 l -105.676,0 c -7.208,0 -13.046,-0.475 -13.046,-7.685 l 0,-1.242 c 0,-5.185 3.045,-9.625 7.42,-11.731 l 4.142,-35.753 c 0,-26.174 18.51,-48.02 43.152,-53.174 l 0,-13.88 c 0,-6.17 5.003,-11.173 11.176,-11.173 6.17,0 11.173,5.003 11.173,11.173 l 0,13.881 c 24.642,5.153 43.152,26.997 43.152,53.174 l 4.142,35.758 c 4.375,2.109 7.418,6.541 7.418,11.726 l 0,1.242 z"
             inkscape:connector-curvature="0"
             style="fill:#000000;fill-opacity:0;stroke:#000000;stroke-opacity:1" />
        </g>
      </g>
      <g
         id="g4143"
         style="fill:#000000;fill-opacity:0;stroke:#000000;stroke-opacity:1" />
      <g
         id="g4145"
         style="fill:#000000;fill-opacity:0;stroke:#000000;stroke-opacity:1" />
      <g
         id="g4147"
         style="fill:#000000;fill-opacity:0;stroke:#000000;stroke-opacity:1" />
      <g
         id="g4149"
         style="fill:#000000;fill-opacity:0;stroke:#000000;stroke-opacity:1" />
      <g
         id="g4151"
         style="fill:#000000;fill-opacity:0;stroke:#000000;stroke-opacity:1" />
      <g
         id="g4153"
         style="fill:#000000;fill-opacity:0;stroke:#000000;stroke-opacity:1" />
      <g
         id="g4155"
         style="fill:#000000;fill-opacity:0;stroke:#000000;stroke-opacity:1" />
      <g
         id="g4157"
         style="fill:#000000;fill-opacity:0;stroke:#000000;stroke-opacity:1" />
      <g
         id="g4159"
         style="fill:#000000;fill-opacity:0;stroke:#000000;stroke-opacity:1" />
      <g
         id="g4161"
         style="fill:#000000;fill-opacity:0;stroke:#000000;stroke-opacity:1" />
      <g
         id="g4163"
         style="fill:#000000;fill-opacity:0;stroke:#000000;stroke-opacity:1" />
      <g
         id="g4165"
         style="fill:#000000;fill-opacity:0;stroke:#000000;stroke-opacity:1" />
      <g
         id="g4167"
         style="fill:#000000;fill-opacity:0;stroke:#000000;stroke-opacity:1" />
      <g
         id="g4169"
         style="fill:#000000;fill-opacity:0;stroke:#000000;stroke-opacity:1" />
      <g
         id="g4171"
         style="fill:#000000;fill-opacity:0;stroke:#000000;stroke-opacity:1" />
      <path
         style="fill:#000000;fill-opacity:0;stroke:#000000;stroke-width:0.02361232;stroke-miterlimit:4;stroke-dasharray:none;stroke-opacity:1"
         d="m 4.6876843,10.652181 c -0.079478,-0.04629 -0.1104854,-0.144568 -0.1104854,-0.350177 0,-0.231023 0.035003,-0.3208273 0.1825623,-0.468387 C 4.9329344,9.6604439 4.9477234,9.6014355 5.0473173,8.6862683 5.2079954,7.2097998 5.2609769,6.9315219 5.4593875,6.5219257 5.7966036,5.8257815 6.3501212,5.3314687 7.1025802,5.0544909 L 7.4498201,4.9266728 7.4813874,4.4084905 c 0.027265,-0.4475608 0.05188,-0.5346051 0.1806143,-0.6386841 0.088183,-0.071294 0.2470244,-0.1205019 0.3889785,-0.1205019 0.1904145,0 0.2736642,0.040089 0.4033802,0.1942476 0.1437179,0.170799 0.1634486,0.2508224 0.1634486,0.6629126 0,0.404239 0.015188,0.4686718 0.1104855,0.4687148 0.2293089,1.01e-4 0.9166025,0.3876257 1.2548664,0.7075415 0.6723991,0.6359272 0.8044031,0.9929607 0.9961421,2.69429 0.125866,1.1168289 0.161984,1.3003638 0.273339,1.3889597 0.279909,0.2227032 0.359749,0.6636233 0.153899,0.8499143 -0.104343,0.09443 -0.427965,0.104302 -3.3619141,0.102567 -2.0873617,-0.0012 -3.2859042,-0.0249 -3.3569426,-0.06627 z"
         id="path4158"
         inkscape:connector-curvature="0"
         transform="matrix(18.750001,0,0,18.750001,-0.63978491,-0.36000002)" />
      <path
         style="fill:#000000;fill-opacity:0;stroke:#000000;stroke-width:0.02361232;stroke-miterlimit:4;stroke-dasharray:none;stroke-opacity:1"
         d="m 7.6708234,12.354076 c -0.3164305,-0.126178 -0.6313777,-0.530137 -0.6313777,-0.80982 0,-0.125093 0.033876,-0.129404 1.0169968,-0.129404 l 1.0169968,0 -0.042799,0.17362 C 8.8788747,12.204135 8.2221131,12.573905 7.670823,12.354076 Z"
         id="path4160"
         inkscape:connector-curvature="0"
         transform="matrix(18.750001,0,0,18.750001,-0.63978491,-0.36000002)" />
    </g>
  </g>
  <g
     inkscape:groupmode="layer"
     id="layer2"
     inkscape:label="Target"
     style="display:inline">
    <circle
       style="fill:#ffffff;fill-opacity:1;fill-rule:evenodd;stroke:none;stroke-width:5;stroke-linecap:round;stroke-linejoin:round;stroke-miterlimit:4;stroke-dasharray:none;stroke-dashoffset:0;stroke-opacity:1"
       id="path4155"
       cx="8"
       cy="8"
       r="1.5" />
    <circle
       style="fill:none;fill-opacity:1;fill-rule:evenodd;stroke:#ffffff;stroke-width:0.99999994;stroke-linecap:round;stroke-linejoin:round;stroke-miterlimit:4;stroke-dasharray:none;stroke-dashoffset:0;stroke-opacity:1"
       id="path4157"
       cx="8"
       cy="8"
       r="3" />
    <path
       style="fill:none;fill-rule:evenodd;stroke:#ffffff;stroke-width:0.99999994px;stroke-linecap:butt;stroke-linejoin:miter;stroke-opacity:1"
       d="M 3.5,8 5,8"
       id="path4161"
       inkscape:connector-curvature="0" />
    <path
       style="display:inline;fill:none;fill-rule:evenodd;stroke:#ffffff;stroke-width:0.99999964px;stroke-linecap:butt;stroke-linejoin:miter;stroke-opacity:1"
       d="m 7.9999946,11 0,1.5"
       id="path4161-0"
       inkscape:connector-curvature="0" />
    <path
       style="display:inline;fill:none;fill-rule:evenodd;stroke:#ffffff;stroke-width:0.99999994px;stroke-linecap:butt;stroke-linejoin:miter;stroke-opacity:1"
       d="m 11,8 1.5,0"
       id="path4161-9"
       inkscape:connector-curvature="0" />
    <path
       style="display:inline;fill:none;fill-rule:evenodd;stroke:#ffffff;stroke-width:0.99999964px;stroke-linecap:butt;stroke-linejoin:miter;stroke-opacity:1"
       d="m 7.9999999,3.5 0,1.5"
       id="path4161-0-3"
       inkscape:connector-curvature="0" />
  </g>
</svg>
