<?xml version="1.0" encoding="UTF-8" standalone="no"?>
<!-- Created with Inkscape (http://www.inkscape.org/) -->

<svg
   xmlns:dc="http://purl.org/dc/elements/1.1/"
   xmlns:cc="http://creativecommons.org/ns#"
   xmlns:rdf="http://www.w3.org/1999/02/22-rdf-syntax-ns#"
   xmlns:svg="http://www.w3.org/2000/svg"
   xmlns="http://www.w3.org/2000/svg"
   xmlns:sodipodi="http://sodipodi.sourceforge.net/DTD/sodipodi-0.dtd"
   xmlns:inkscape="http://www.inkscape.org/namespaces/inkscape"
   width="24"
   height="24"
   viewBox="0 0 24 24"
   id="svg2"
   version="1.1"
   inkscape:version="0.91 r13725"
   sodipodi:docname="info.svg">
  <defs
     id="defs4" />
  <sodipodi:namedview
     id="base"
     pagecolor="#ffffff"
     bordercolor="#666666"
     borderopacity="1.0"
     inkscape:pageopacity="0.0"
     inkscape:pageshadow="2"
     inkscape:zoom="2.8"
     inkscape:cx="-204.73157"
     inkscape:cy="41.00884"
     inkscape:document-units="px"
     inkscape:current-layer="g4137"
     showgrid="false"
     units="px"
     inkscape:window-width="1920"
     inkscape:window-height="1018"
     inkscape:window-x="1912"
     inkscape:window-y="-8"
     inkscape:window-maximized="1" />
  <metadata
     id="metadata7">
    <rdf:RDF>
      <cc:Work
         rdf:about="">
        <dc:format>image/svg+xml</dc:format>
        <dc:type
           rdf:resource="http://purl.org/dc/dcmitype/StillImage" />
        <dc:title></dc:title>
      </cc:Work>
    </rdf:RDF>
  </metadata>
  <g
     inkscape:label="Layer 1"
     inkscape:groupmode="layer"
     id="layer1"
     transform="translate(0,-1028.3622)">
    <g
       id="g4177"
       transform="matrix(0.67724868,0,0,0.67724868,0.04191988,1036.4391)">
      <g
         id="g4137"
         style="fill:#246bdf;fill-opacity:0.94117647">
        <path
           id="path4139"
           d="m 17.612781,-5.8007812 c -6.523,0 -11.8119998,5.28899997 -11.8119998,11.812 0,6.5230002 5.2889998,11.8130002 11.8119998,11.8130002 6.523,0 11.813,-5.29 11.813,-11.8130002 0,-6.52300003 -5.29,-11.812 -11.813,-11.812 z m 2.459,18.3070002 c -0.608,0.24 -1.092,0.422 -1.455,0.548 -0.362,0.126 -0.783,0.189 -1.262,0.189 -0.736,0 -1.309,-0.18 -1.717,-0.539 -0.408,-0.359 -0.611,-0.814 -0.611,-1.367 0,-0.215 0.015,-0.435 0.045,-0.659 0.031,-0.224 0.08,-0.476 0.147,-0.7590002 l 0.761,-2.688 c 0.067,-0.258 0.125,-0.503 0.171,-0.731 0.046,-0.23 0.068,-0.441 0.068,-0.633 0,-0.342 -0.071,-0.582 -0.212,-0.717 -0.143,-0.135 -0.412,-0.201 -0.813,-0.201 -0.196,0 -0.398,0.029 -0.605,0.09 -0.205,0.063 -0.383,0.12 -0.529,0.176 l 0.201,-0.828 c 0.498,-0.203 0.975,-0.377 1.43,-0.521 0.455,-0.146 0.885,-0.218 1.29,-0.218 0.731,0 1.295,0.178 1.692,0.53 0.395,0.353 0.594,0.812 0.594,1.376 0,0.117 -0.014,0.323 -0.041,0.617 -0.027,0.295 -0.078,0.564 -0.152,0.811 l -0.757,2.68 c -0.062,0.215 -0.117,0.4610002 -0.167,0.7360002 -0.049,0.275 -0.073,0.485 -0.073,0.626 0,0.356 0.079,0.599 0.239,0.728 0.158,0.129 0.435,0.194 0.827,0.194 0.185,0 0.392,-0.033 0.626,-0.097 0.232,-0.064 0.4,-0.121 0.506,-0.17 l -0.203,0.827 z m -0.134,-10.8780002 c -0.353,0.328 -0.778,0.492 -1.275,0.492 -0.496,0 -0.924,-0.164 -1.28,-0.492 -0.354,-0.328 -0.533,-0.72700003 -0.533,-1.19300003 0,-0.465 0.18,-0.865 0.533,-1.196 0.356,-0.33199997 0.784,-0.49699997 1.28,-0.49699997 0.497,0 0.923,0.165 1.275,0.49699997 0.353,0.331 0.53,0.731 0.53,1.196 0,0.467 -0.177,0.86500003 -0.53,1.19300003 z"
           style="fill:#2797df;fill-opacity:0.94117647"
           inkscape:connector-curvature="0" />
      </g>
      <g
         id="g4141" />
      <g
         id="g4143" />
      <g
         id="g4145" />
      <g
         id="g4147" />
      <g
         id="g4149" />
      <g
         id="g4151" />
      <g
         id="g4153" />
      <g
         id="g4155" />
      <g
         id="g4157" />
      <g
         id="g4159" />
      <g
         id="g4161" />
      <g
         id="g4163" />
      <g
         id="g4165" />
      <g
         id="g4167" />
      <g
         id="g4169" />
    </g>
  </g>
</svg>
