<?xml version="1.0" encoding="UTF-8" standalone="no"?>
<!-- Generator: Adobe Illustrator 16.0.0, SVG Export Plug-In . SVG Version: 6.00 Build 0)  -->

<svg
   xmlns:dc="http://purl.org/dc/elements/1.1/"
   xmlns:cc="http://creativecommons.org/ns#"
   xmlns:rdf="http://www.w3.org/1999/02/22-rdf-syntax-ns#"
   xmlns:svg="http://www.w3.org/2000/svg"
   xmlns="http://www.w3.org/2000/svg"
   xmlns:sodipodi="http://sodipodi.sourceforge.net/DTD/sodipodi-0.dtd"
   xmlns:inkscape="http://www.inkscape.org/namespaces/inkscape"
   version="1.1"
   id="Capa_1"
   x="0px"
   y="0px"
   width="13"
   height="13"
   viewBox="0 0 13 13"
   xml:space="preserve"
   inkscape:version="0.91 r13725"
   sodipodi:docname="invisible.svg"><metadata
     id="metadata4217"><rdf:RDF><cc:Work
         rdf:about=""><dc:format>image/svg+xml</dc:format><dc:type
           rdf:resource="http://purl.org/dc/dcmitype/StillImage" /><dc:title></dc:title></cc:Work></rdf:RDF></metadata><defs
     id="defs4215" /><sodipodi:namedview
     pagecolor="#ffffff"
     bordercolor="#666666"
     borderopacity="1"
     objecttolerance="10"
     gridtolerance="10"
     guidetolerance="10"
     inkscape:pageopacity="0"
     inkscape:pageshadow="2"
     inkscape:window-width="1216"
     inkscape:window-height="751"
     id="namedview4213"
     showgrid="false"
     inkscape:zoom="13.523144"
     inkscape:cx="11.328662"
     inkscape:cy="-4.1910513"
     inkscape:window-x="554"
     inkscape:window-y="67"
     inkscape:window-maximized="0"
     inkscape:current-layer="Capa_1" /><g
     id="g4178"
     transform="matrix(0.02327872,0,0,0.02327872,0.0739473,0.04594793)"
     style="fill:#646464;fill-opacity:1"><g
       id="visibility-off"
       style="fill:#646464;fill-opacity:1"><path
         d="m 280.5,138.975 c 71.4,0 127.5,56.1 127.5,127.5 0,15.3 -2.55,33.15 -10.2,45.9 l 73.95,73.949 c 38.25,-33.149 68.85,-73.949 86.7,-119.85 -43.351,-112.2 -153,-191.25 -280.5,-191.25 -35.7,0 -68.85,7.65 -102,17.85 l 56.1,56.1 c 15.3,-7.649 33.15,-10.199 48.45,-10.199 z m -255,-68.85 58.65,58.65 10.2,10.2 c -43.35,33.15 -76.5,76.5 -94.35,127.5 43.35,112.2 153,191.25 280.5,191.25 38.25,0 76.5,-7.65 112.2,-20.4 l 10.2,10.2 73.949,73.95 33.15,-33.15 L 58.65,36.975 25.5,70.125 Z m 140.25,140.25 38.25,38.25 c 0,7.65 0,12.75 0,17.85 0,43.35 33.15,76.5 76.5,76.5 5.1,0 10.2,0 17.85,-2.55 l 38.25,38.25 c -17.85,10.2 -35.699,15.3 -56.1,15.3 -71.4,0 -127.5,-56.1 -127.5,-127.5 0,-20.4 5.1,-38.25 12.75,-56.1 z m 109.65,-20.4 79.05,79.05 c 0,-2.55 0,-2.55 0,-5.1 0,-43.35 -33.15,-76.5 -76.5,-76.5 0,2.55 0,2.55 -2.55,2.55 z"
         id="path4181"
         inkscape:connector-curvature="0"
         style="fill:#646464;fill-opacity:1" /></g></g><g
     id="g4183"
     transform="translate(0,-545.45001)" /><g
     id="g4185"
     transform="translate(0,-545.45001)" /><g
     id="g4187"
     transform="translate(0,-545.45001)" /><g
     id="g4189"
     transform="translate(0,-545.45001)" /><g
     id="g4191"
     transform="translate(0,-545.45001)" /><g
     id="g4193"
     transform="translate(0,-545.45001)" /><g
     id="g4195"
     transform="translate(0,-545.45001)" /><g
     id="g4197"
     transform="translate(0,-545.45001)" /><g
     id="g4199"
     transform="translate(0,-545.45001)" /><g
     id="g4201"
     transform="translate(0,-545.45001)" /><g
     id="g4203"
     transform="translate(0,-545.45001)" /><g
     id="g4205"
     transform="translate(0,-545.45001)" /><g
     id="g4207"
     transform="translate(0,-545.45001)" /><g
     id="g4209"
     transform="translate(0,-545.45001)" /><g
     id="g4211"
     transform="translate(0,-545.45001)" /></svg>