<?xml version="1.0" encoding="UTF-8" standalone="no"?>
<svg
   xmlns:dc="http://purl.org/dc/elements/1.1/"
   xmlns:cc="http://creativecommons.org/ns#"
   xmlns:rdf="http://www.w3.org/1999/02/22-rdf-syntax-ns#"
   xmlns:svg="http://www.w3.org/2000/svg"
   xmlns="http://www.w3.org/2000/svg"
   xmlns:sodipodi="http://sodipodi.sourceforge.net/DTD/sodipodi-0.dtd"
   xmlns:inkscape="http://www.inkscape.org/namespaces/inkscape"
   height="24"
   viewBox="0 0 24 24"
   width="24"
   version="1.1"
   id="svg6"
   sodipodi:docname="keyboard.svg"
   inkscape:version="0.92.4 (5da689c313, 2019-01-14)">
  <metadata
     id="metadata12">
    <rdf:RDF>
      <cc:Work
         rdf:about="">
        <dc:format>image/svg+xml</dc:format>
        <dc:type
           rdf:resource="http://purl.org/dc/dcmitype/StillImage" />
        <dc:title></dc:title>
      </cc:Work>
    </rdf:RDF>
  </metadata>
  <defs
     id="defs10" />
  <sodipodi:namedview
     pagecolor="#ffffff"
     bordercolor="#666666"
     borderopacity="1"
     objecttolerance="10"
     gridtolerance="10"
     guidetolerance="10"
     inkscape:pageopacity="0"
     inkscape:pageshadow="2"
     inkscape:window-width="1920"
     inkscape:window-height="1017"
     id="namedview8"
     showgrid="false"
     inkscape:zoom="13.906433"
     inkscape:cx="-11.576743"
     inkscape:cy="12.774494"
     inkscape:window-x="-8"
     inkscape:window-y="-8"
     inkscape:window-maximized="1"
     inkscape:current-layer="svg6"
     inkscape:pagecheckerboard="false" />
  <path
     style="fill:#eeeeee;fill-opacity:1;stroke-width:0.40000004"
     d="M 0 0 L 0 24 L 24 24 L 24 0 L 0 0 z M 5.59375 6.4785156 L 18.394531 6.4785156 C 19.278531 6.4785156 19.994141 7.1960781 19.994141 8.0800781 L 19.994141 16.080078 C 19.994141 16.964078 19.278531 17.679688 18.394531 17.679688 L 5.59375 17.679688 C 4.70975 17.679688 3.9941406 16.964078 3.9941406 16.080078 L 4.0019531 8.0800781 C 4.0019531 7.1960781 4.70975 6.4785156 5.59375 6.4785156 z M 6.3945312 8.8789062 L 6.3945312 10.478516 L 7.9941406 10.478516 L 7.9941406 8.8789062 L 6.3945312 8.8789062 z M 8.7949219 8.8789062 L 8.7949219 10.478516 L 10.394531 10.478516 L 10.394531 8.8789062 L 8.7949219 8.8789062 z M 11.193359 8.8789062 L 11.193359 10.478516 L 12.794922 10.478516 L 12.794922 8.8789062 L 11.193359 8.8789062 z M 13.59375 8.8789062 L 13.59375 10.478516 L 15.193359 10.478516 L 15.193359 8.8789062 L 13.59375 8.8789062 z M 15.994141 8.8789062 L 15.994141 10.478516 L 17.59375 10.478516 L 17.59375 8.8789062 L 15.994141 8.8789062 z M 6.3945312 11.279297 L 6.3945312 12.878906 L 7.9941406 12.878906 L 7.9941406 11.279297 L 6.3945312 11.279297 z M 8.7949219 11.279297 L 8.7949219 12.878906 L 10.394531 12.878906 L 10.394531 11.279297 L 8.7949219 11.279297 z M 11.193359 11.279297 L 11.193359 12.878906 L 12.794922 12.878906 L 12.794922 11.279297 L 11.193359 11.279297 z M 13.59375 11.279297 L 13.59375 12.878906 L 15.193359 12.878906 L 15.193359 11.279297 L 13.59375 11.279297 z M 15.994141 11.279297 L 15.994141 12.878906 L 17.59375 12.878906 L 17.59375 11.279297 L 15.994141 11.279297 z M 8.7949219 14.478516 L 8.7949219 16.080078 L 15.193359 16.080078 L 15.193359 14.478516 L 8.7949219 14.478516 z "
     id="path2" />
  <path
     d="M 0,-24 H 48 V 24 H 0 Z m 0,0 H 48 V 24 H 0 Z"
     id="path4"
     inkscape:connector-curvature="0"
     style="fill:none" />
</svg>
