<?xml version="1.0" encoding="UTF-8" standalone="no"?>
<svg
   xmlns:dc="http://purl.org/dc/elements/1.1/"
   xmlns:cc="http://creativecommons.org/ns#"
   xmlns:rdf="http://www.w3.org/1999/02/22-rdf-syntax-ns#"
   xmlns:svg="http://www.w3.org/2000/svg"
   xmlns="http://www.w3.org/2000/svg"
   xmlns:sodipodi="http://sodipodi.sourceforge.net/DTD/sodipodi-0.dtd"
   xmlns:inkscape="http://www.inkscape.org/namespaces/inkscape"
   height="18"
   viewBox="0 0 18 18"
   width="18"
   version="1.1"
   id="svg6"
   sodipodi:docname="keyboard-inactive.svg"
   inkscape:version="0.92.4 (5da689c313, 2019-01-14)">
  <metadata
     id="metadata12">
    <rdf:RDF>
      <cc:Work
         rdf:about="">
        <dc:format>image/svg+xml</dc:format>
        <dc:type
           rdf:resource="http://purl.org/dc/dcmitype/StillImage" />
        <dc:title></dc:title>
      </cc:Work>
    </rdf:RDF>
  </metadata>
  <defs
     id="defs10" />
  <sodipodi:namedview
     pagecolor="#ffffff"
     bordercolor="#666666"
     borderopacity="1"
     objecttolerance="10"
     gridtolerance="10"
     guidetolerance="10"
     inkscape:pageopacity="0"
     inkscape:pageshadow="2"
     inkscape:window-width="1920"
     inkscape:window-height="1017"
     id="namedview8"
     showgrid="false"
     inkscape:zoom="13.906433"
     inkscape:cx="0.10849661"
     inkscape:cy="12.774494"
     inkscape:window-x="1912"
     inkscape:window-y="-8"
     inkscape:window-maximized="1"
     inkscape:current-layer="svg6" />
  <path
     d="M 15.517646,3.4995275 H 2.7176461 c -0.884,0 -1.592,0.716 -1.592,1.6 l -0.008,7.9999985 c 0,0.884 0.716,1.6 1.6,1.6 H 15.517646 c 0.884,0 1.6,-0.716 1.6,-1.6 V 5.0995275 c 0,-0.884 -0.716,-1.6 -1.6,-1.6 z m -7.2000012,2.4 H 9.9176451 V 7.4995277 H 8.3176448 Z m 0,2.4000002 H 9.9176451 V 9.8995265 H 8.3176448 Z M 5.917646,5.8995275 H 7.5176448 V 7.4995277 H 5.917646 Z m 0,2.4000002 H 7.5176448 V 9.8995265 H 5.917646 Z m -0.8,1.5999988 H 3.5176461 V 8.2995277 H 5.117646 Z m 0,-2.3999988 H 3.5176461 V 5.8995275 H 5.117646 Z m 7.2,5.5999983 h -6.4 v -1.6 h 6.4 z m 0,-3.1999995 h -1.6 V 8.2995277 h 1.6 z m 0,-2.3999988 h -1.6 V 5.8995275 h 1.6 z m 2.4,2.3999988 h -1.6 V 8.2995277 h 1.6 z m 0,-2.3999988 h -1.6 V 5.8995275 h 1.6 z"
     id="path2"
     inkscape:connector-curvature="0"
     style="fill:#bcbcbf;fill-opacity:0.94117647;stroke-width:0.40000004" />
  <path
     d="M 0,-30 H 48 V 18 H 0 Z m 0,0 H 48 V 18 H 0 Z"
     id="path4"
     inkscape:connector-curvature="0"
     style="fill:none" />
</svg>
