<?xml version="1.0" encoding="UTF-8" standalone="no"?>
<svg
   xmlns:dc="http://purl.org/dc/elements/1.1/"
   xmlns:cc="http://creativecommons.org/ns#"
   xmlns:rdf="http://www.w3.org/1999/02/22-rdf-syntax-ns#"
   xmlns:svg="http://www.w3.org/2000/svg"
   xmlns="http://www.w3.org/2000/svg"
   xmlns:sodipodi="http://sodipodi.sourceforge.net/DTD/sodipodi-0.dtd"
   xmlns:inkscape="http://www.inkscape.org/namespaces/inkscape"
   height="24"
   id="Layer_1"
   version="1.1"
   viewBox="0 0 24 24"
   width="24"
   xml:space="preserve"
   inkscape:version="0.91 r13725"
   sodipodi:docname="left-arrow.svg"><metadata
     id="metadata4765"><rdf:RDF><cc:Work
         rdf:about=""><dc:format>image/svg+xml</dc:format><dc:type
           rdf:resource="http://purl.org/dc/dcmitype/StillImage" /><dc:title></dc:title></cc:Work></rdf:RDF></metadata><defs
     id="defs4763" /><sodipodi:namedview
     pagecolor="#ffffff"
     bordercolor="#666666"
     borderopacity="1"
     objecttolerance="10"
     gridtolerance="10"
     guidetolerance="10"
     inkscape:pageopacity="0"
     inkscape:pageshadow="2"
     inkscape:window-width="1280"
     inkscape:window-height="854"
     id="namedview4761"
     showgrid="false"
     inkscape:zoom="7.375"
     inkscape:cx="16"
     inkscape:cy="16"
     inkscape:window-x="0"
     inkscape:window-y="0"
     inkscape:window-maximized="0"
     inkscape:current-layer="Layer_1" /><path
     style="fill:#818181"
     d="m 21.865618,10.515739 -15.7714291,0 3.7949997,-3.7950005 C 10.212832,6.3970957 10.365618,6.0110243 10.365618,5.5871671 10.365618,4.7788814 9.6977956,3.94431 8.7227606,3.94431 c -0.4361789,0 -0.8165003,0.1585357 -1.1335717,0.4764285 L 1.0522603,10.957668 c -0.26942862,0.269428 -0.54378572,0.602107 -0.54378572,1.200928 0,0.598822 0.2291786,0.887143 0.53064292,1.188607 l 6.5500714,6.54925 c 0.3170714,0.317893 0.6973928,0.476429 1.1335717,0.476429 0.975857,0 1.6428574,-0.834571 1.6428574,-1.642857 0,-0.423857 -0.152786,-0.809929 -0.4764294,-1.133572 l -3.7949997,-3.795 15.7714291,0 c 0.906857,0 1.642857,-0.736 1.642857,-1.642857 0,-0.906857 -0.736,-1.642857 -1.642857,-1.642857 z"
     id="path4759"
     inkscape:connector-curvature="0" /></svg>