<?xml version="1.0" encoding="UTF-8" standalone="no"?>
<svg
   xmlns:svg="http://www.w3.org/2000/svg"
   xmlns="http://www.w3.org/2000/svg"
   xmlns:inkscape="http://www.inkscape.org/namespaces/inkscape"
   enable-background="new 0 0 96 96"
   height="18"
   version="1.1"
   viewBox="0 0 18 18"
   width="18"><path
     d="M 9,0 C 4.0295472,0 0,4.0295454 0,9 c 0,4.970659 4.0295472,9 9,9 4.970657,0 9,-4.029341 9,-9 C 18,4.0295454 13.970657,0 9,0 Z m 0.818184,16.317205 0,-2.408114 C 9.818184,13.45725 9.451843,13.090909 9,13.090909 c -0.451843,0 -0.818184,0.366341 -0.818184,0.818182 l 0,2.408114 C 4.7689775,15.939818 2.0601836,13.231023 1.6827954,9.8181818 l 2.4081139,0 c 0.4518406,0 0.8181814,-0.3663409 0.8181814,-0.8181818 0,-0.4518409 -0.3663408,-0.8181818 -0.8181814,-0.8181818 l -2.4081139,0 C 2.0601836,4.7689773 4.7689775,2.0601818 8.181816,1.6827955 l 0,2.4081136 c 0,0.4518409 0.366341,0.8181818 0.818184,0.8181818 0.451843,0 0.818184,-0.3663409 0.818184,-0.8181818 l 0,-2.4081136 c 3.412838,0.3773863 6.121632,3.0861818 6.499021,6.4990227 l -2.408114,0 c -0.451841,0 -0.818182,0.3663409 -0.818182,0.8181818 0,0.4518409 0.366341,0.8181818 0.818182,0.8181818 l 2.408114,0 C 15.939816,13.231023 13.231022,15.939818 9.818184,16.317205 Z"/>
   </svg>