<?xml version="1.0" encoding="UTF-8" standalone="no"?>
<svg
   xmlns:dc="http://purl.org/dc/elements/1.1/"
   xmlns:cc="http://creativecommons.org/ns#"
   xmlns:rdf="http://www.w3.org/1999/02/22-rdf-syntax-ns#"
   xmlns:svg="http://www.w3.org/2000/svg"
   xmlns="http://www.w3.org/2000/svg"
   xmlns:sodipodi="http://sodipodi.sourceforge.net/DTD/sodipodi-0.dtd"
   xmlns:inkscape="http://www.inkscape.org/namespaces/inkscape"
   enable-background="new 0 0 500 500"
   height="24"
   id="Layer_1"
   version="1.1"
   viewBox="0 0 24 24"
   width="24"
   xml:space="preserve"
   inkscape:version="0.91 r13725"
   sodipodi:docname="manager.svg"><metadata
     id="metadata9"><rdf:RDF><cc:Work
         rdf:about=""><dc:format>image/svg+xml</dc:format><dc:type
           rdf:resource="http://purl.org/dc/dcmitype/StillImage" /><dc:title></dc:title></cc:Work></rdf:RDF></metadata><defs
     id="defs7" /><sodipodi:namedview
     pagecolor="#ffffff"
     bordercolor="#666666"
     borderopacity="1"
     objecttolerance="10"
     gridtolerance="10"
     guidetolerance="10"
     inkscape:pageopacity="0"
     inkscape:pageshadow="2"
     inkscape:window-width="1920"
     inkscape:window-height="1018"
     id="namedview5"
     showgrid="false"
     borderlayer="true"
     inkscape:zoom="10.680141"
     inkscape:cx="39.575941"
     inkscape:cy="13.309446"
     inkscape:window-x="-8"
     inkscape:window-y="-8"
     inkscape:window-maximized="1"
     inkscape:current-layer="Layer_1" /><path
     d="m 19.600549,16.698873 c -0.86147,-1.12417 -1.90355,-1.85419 -3.39669,-2.2684 l -1.39903,4.89818 c 0,0.45119 -0.36942,0.82055 -0.82056,0.82055 -0.451,0 -0.82042,-0.36936 -0.82042,-0.82055 l 0,-3.89736 c 0,-0.56606 -0.45958,-1.0257 -1.02569,-1.0257 -0.56606,0 -1.0256,0.45964 -1.0256,1.0257 l 0,3.89736 c 0,0.45119 -0.36942,0.82055 -0.82047,0.82055 -0.4511801,0 -0.8206001,-0.36936 -0.8206001,-0.82055 l -1.39903,-4.89818 c -1.49318,0.41823 -2.53522,1.14423 -3.3966,2.2684 -0.34055,0.44306 -0.5256,1.33329 -0.5377,1.80936 0.004,0.12305 0,0.26669 0,0.4101 l 0,0.82055 0,0.8206 c 0,0.90662 0.7344,1.64093 1.64106,1.64093 l 12.7177901,0 c 0.90662,0 1.64115,-0.73431 1.64115,-1.64093 l 0,-0.8206 0,-0.82055 c 0,-0.14341 -0.004,-0.28705 0,-0.4101 -0.0124,-0.47607 -0.19724,-1.36634 -0.53761,-1.80936 z M 7.8304689,6.8487427 c 0,2.39588 1.49364,5.9158803 4.3076901,5.9158803 2.76515,0 4.3076,-3.5200003 4.3076,-5.9158803 0,-2.39578 -1.92821,-4.34046 -4.3076,-4.34046 -2.3793901,0 -4.3076901,1.94468 -4.3076901,4.34046 z"
     id="path3"
     inkscape:connector-curvature="0"
     style="clip-rule:evenodd;fill:#80808f;fill-rule:evenodd;fill-opacity:0.94117647" /></svg>