<?xml version="1.0" encoding="UTF-8" standalone="no"?>
<!-- Created with Inkscape (http://www.inkscape.org/) -->

<svg
   xmlns:dc="http://purl.org/dc/elements/1.1/"
   xmlns:cc="http://creativecommons.org/ns#"
   xmlns:rdf="http://www.w3.org/1999/02/22-rdf-syntax-ns#"
   xmlns:svg="http://www.w3.org/2000/svg"
   xmlns="http://www.w3.org/2000/svg"
   xmlns:sodipodi="http://sodipodi.sourceforge.net/DTD/sodipodi-0.dtd"
   xmlns:inkscape="http://www.inkscape.org/namespaces/inkscape"
   width="16"
   height="16"
   viewBox="0 0 16 16"
   id="svg2"
   version="1.1"
   inkscape:version="0.91 r13725"
   sodipodi:docname="master-layer2.svg">
  <defs
     id="defs4" />
  <sodipodi:namedview
     id="base"
     pagecolor="#ffffff"
     bordercolor="#666666"
     borderopacity="1.0"
     inkscape:pageopacity="0.0"
     inkscape:pageshadow="2"
     inkscape:zoom="5.6"
     inkscape:cx="47.906204"
     inkscape:cy="-13.193117"
     inkscape:document-units="px"
     inkscape:current-layer="g6958"
     showgrid="false"
     units="px"
     inkscape:window-width="1920"
     inkscape:window-height="1018"
     inkscape:window-x="-8"
     inkscape:window-y="-8"
     inkscape:window-maximized="1" />
  <metadata
     id="metadata7">
    <rdf:RDF>
      <cc:Work
         rdf:about="">
        <dc:format>image/svg+xml</dc:format>
        <dc:type
           rdf:resource="http://purl.org/dc/dcmitype/StillImage" />
        <dc:title></dc:title>
      </cc:Work>
    </rdf:RDF>
  </metadata>
  <g
     inkscape:label="Layer 1"
     inkscape:groupmode="layer"
     id="layer1"
     transform="translate(0,-1036.3622)">
    <g
       id="g5321"
       transform="translate(-4.8571447,1009.3979)">
      <g
         transform="translate(0,16)"
         id="g4141" />
      <g
         transform="translate(0,16)"
         id="g4143" />
      <g
         transform="translate(0,16)"
         id="g4145" />
      <g
         transform="translate(0,16)"
         id="g4147" />
      <g
         transform="translate(0,16)"
         id="g4149" />
      <g
         transform="translate(0,16)"
         id="g4151" />
      <g
         transform="translate(0,16)"
         id="g4153" />
      <g
         transform="translate(0,16)"
         id="g4155" />
      <g
         transform="translate(0,16)"
         id="g4157" />
      <g
         transform="translate(0,16)"
         id="g4159" />
      <g
         transform="translate(0,16)"
         id="g4161" />
      <g
         transform="translate(0,16)"
         id="g4163" />
      <g
         transform="translate(0,16)"
         id="g4165" />
      <g
         transform="translate(0,16)"
         id="g4167" />
      <g
         transform="translate(0,16)"
         id="g4169" />
      <g
         id="g6134"
         transform="matrix(0.03648528,0,0,0.03648528,5.0000021,26.726263)"
         style="fill:#202a31;fill-opacity:0.53846154">
        <g
           id="g6088"
           style="fill:#202a31;fill-opacity:0.53846154"
           transform="matrix(2.0000001,0,0,2.0000001,225.13972,-646.70413)">
          <g
             id="g6958"
             transform="matrix(0.44661767,0,0,0.44661767,-2.4480681,-3.1360061)">
            <g
               id="g6916"
               style="fill:#EACB2A;fill-opacity:0.94117647"
               transform="matrix(0.5,0,0,0.5,-248.98904,732.99208)">
              <path
                 id="path6918"
                 d="m 861,863.05 c 0,-30.4 -24.6,-55 -55,-55 l -630.1,0 c -30.4,0 -55,24.6 -55,55 0,30.4 24.6,55 55,55 l 630.1,0 c 30.4,0 55,-24.7 55,-55 z"
                 inkscape:connector-curvature="0"
                 style="fill:#EACB2A;fill-opacity:0.94117647" />
              <path
                 id="path6920"
                 d="m 65.4,417.85 c 0.9,0 1.7,0 2.6,-0.1 l 87.2,315.6 335.8,0 335.7,0 87.2,-315.6 c 0.899,0 1.699,0.1 2.6,0.1 36.1,0 65.4,-29.3 65.4,-65.4 0,-36.1 -29.301,-65.4 -65.4,-65.4 -36.099,0 -65.4,29.3 -65.4,65.4 0,7 1.101,13.8 3.2,20.1 l -157.7,92.2 -169.5,-281 c 17.601,-11.7 29.301,-31.8 29.301,-54.5 0,-36.1 -29.301,-65.4 -65.4,-65.4 -36.099,0 -65.4,29.3 -65.4,65.4 0,22.8 11.601,42.8 29.301,54.5 l -169.5,281 -157.7,-92.2 c 2,-6.3 3.2,-13.1 3.2,-20.1 0,-36.1 -29.3,-65.4 -65.4,-65.4 -36.2,0 -65.5,29.3 -65.5,65.4 0,36.1 29.298,65.4 65.398,65.4 z"
                 inkscape:connector-curvature="0"
                 style="fill:#EACB2A;fill-opacity:0.94117647" />
            </g>
            <g
               id="g6922" />
            <g
               id="g6924" />
            <g
               id="g6926" />
            <g
               id="g6928" />
            <g
               id="g6930" />
            <g
               id="g6932" />
            <g
               id="g6934" />
            <g
               id="g6936" />
            <g
               id="g6938" />
            <g
               id="g6940" />
            <g
               id="g6942" />
            <g
               id="g6944" />
            <g
               id="g6946" />
            <g
               id="g6948" />
            <g
               id="g6950" />
          </g>
        </g>
        <g
           id="g6098"
           style="fill:#202a31;fill-opacity:0.53846154" />
        <g
           id="g6100"
           style="fill:#202a31;fill-opacity:0.53846154" />
        <g
           id="g6102"
           style="fill:#202a31;fill-opacity:0.53846154" />
        <g
           id="g6104"
           style="fill:#202a31;fill-opacity:0.53846154" />
        <g
           id="g6106"
           style="fill:#202a31;fill-opacity:0.53846154" />
        <g
           id="g6108"
           style="fill:#202a31;fill-opacity:0.53846154" />
        <g
           id="g6110"
           style="fill:#202a31;fill-opacity:0.53846154" />
        <g
           id="g6112"
           style="fill:#202a31;fill-opacity:0.53846154" />
        <g
           id="g6114"
           style="fill:#202a31;fill-opacity:0.53846154" />
        <g
           id="g6116"
           style="fill:#202a31;fill-opacity:0.53846154" />
        <g
           id="g6118"
           style="fill:#202a31;fill-opacity:0.53846154" />
        <g
           id="g6120"
           style="fill:#202a31;fill-opacity:0.53846154" />
        <g
           id="g6122"
           style="fill:#202a31;fill-opacity:0.53846154" />
        <g
           id="g6124"
           style="fill:#202a31;fill-opacity:0.53846154" />
        <g
           id="g6126"
           style="fill:#202a31;fill-opacity:0.53846154" />
      </g>
    </g>
  </g>
</svg>
