<?xml version="1.0" encoding="UTF-8" standalone="no"?>
<!-- Generator: Adobe Illustrator 18.0.0, SVG Export Plug-In . SVG Version: 6.00 Build 0)  -->

<svg
   xmlns:dc="http://purl.org/dc/elements/1.1/"
   xmlns:cc="http://creativecommons.org/ns#"
   xmlns:rdf="http://www.w3.org/1999/02/22-rdf-syntax-ns#"
   xmlns:svg="http://www.w3.org/2000/svg"
   xmlns="http://www.w3.org/2000/svg"
   xmlns:sodipodi="http://sodipodi.sourceforge.net/DTD/sodipodi-0.dtd"
   xmlns:inkscape="http://www.inkscape.org/namespaces/inkscape"
   version="1.1"
   id="Capa_1"
   x="0px"
   y="0px"
   viewBox="0 0 24 24"
   inkscape:version="0.91 r13725"
   width="24"
   height="24"
   sodipodi:docname="notification_alert.svg">
  <metadata
     id="metadata4298">
    <rdf:RDF>
      <cc:Work
         rdf:about="">
        <dc:format>image/svg+xml</dc:format>
        <dc:type
           rdf:resource="http://purl.org/dc/dcmitype/StillImage" />
        <dc:title></dc:title>
      </cc:Work>
    </rdf:RDF>
  </metadata>
  <sodipodi:namedview
     pagecolor="#ffffff"
     bordercolor="#666666"
     borderopacity="1"
     objecttolerance="10"
     gridtolerance="10"
     guidetolerance="10"
     inkscape:pageopacity="0"
     inkscape:pageshadow="2"
     inkscape:window-width="1920"
     inkscape:window-height="1018"
     id="namedview4296"
     showgrid="false"
     inkscape:zoom="15.733333"
     inkscape:cx="-11.504238"
     inkscape:cy="7.5"
     inkscape:window-x="1912"
     inkscape:window-y="-8"
     inkscape:window-maximized="1"
     inkscape:current-layer="Capa_1" />
  <defs
     id="defs3371" />
  <path
     d="M 21.119102,16.108201 14.225028,5.3058051 C 13.836252,4.6965493 13.172616,4.3327957 12.449851,4.3327957 c -0.722824,0 -1.38646,0.3637536 -1.77512,0.9730094 L 3.7805991,16.108141 c -0.4137951,0.648462 -0.4412462,1.47044 -0.071408,2.145246 0.3698383,0.674528 1.0774308,1.093594 1.8466434,1.093594 l 13.7880899,0 c 0.769212,0 1.476805,-0.419006 1.846759,-1.093763 0.369665,-0.674637 0.342214,-1.496555 -0.07158,-2.145017 z m -8.669251,1.420452 c -0.633984,0 -1.147854,-0.513926 -1.147854,-1.147855 0,-0.633979 0.513928,-1.147904 1.147854,-1.147904 0.633983,0 1.147853,0.513925 1.147853,1.147904 0,0.633929 -0.513928,1.147855 -1.147853,1.147855 z m 1.591011,-7.9765363 -0.565356,3.8065063 c -0.08322,0.56032 -0.604911,0.947064 -1.16517,0.863847 -0.452655,-0.06726 -0.792031,-0.422139 -0.861817,-0.850875 L 10.834573,9.5726167 c -0.142931,-0.884516 0.458215,-1.717443 1.342735,-1.8603681 0.884519,-0.142935 1.717437,0.4582131 1.860369,1.3427281 0.02687,0.166568 0.02595,0.33851 0.0032,0.49714 z"
     style="fill:#f78e1e;fill-opacity:1"
     id="path4294"
     inkscape:connector-curvature="0" />
</svg>
