<?xml version="1.0" encoding="UTF-8" standalone="no"?>
<!-- Generator: Adobe Illustrator 16.0.0, SVG Export Plug-In . SVG Version: 6.00 Build 0)  -->

<svg
   xmlns:dc="http://purl.org/dc/elements/1.1/"
   xmlns:cc="http://creativecommons.org/ns#"
   xmlns:rdf="http://www.w3.org/1999/02/22-rdf-syntax-ns#"
   xmlns:svg="http://www.w3.org/2000/svg"
   xmlns="http://www.w3.org/2000/svg"
   xmlns:sodipodi="http://sodipodi.sourceforge.net/DTD/sodipodi-0.dtd"
   xmlns:inkscape="http://www.inkscape.org/namespaces/inkscape"
   version="1.1"
   id="Capa_1"
   x="0px"
   y="0px"
   width="18"
   height="18"
   viewBox="0 0 18 18"
   xml:space="preserve"
   inkscape:version="0.91 r13725"
   sodipodi:docname="plus.svg"><metadata
     id="metadata5507"><rdf:RDF><cc:Work
         rdf:about=""><dc:format>image/svg+xml</dc:format><dc:type
           rdf:resource="http://purl.org/dc/dcmitype/StillImage" /><dc:title></dc:title></cc:Work></rdf:RDF></metadata><defs
     id="defs5505" /><sodipodi:namedview
     pagecolor="#ffffff"
     bordercolor="#666666"
     borderopacity="1"
     objecttolerance="10"
     gridtolerance="10"
     guidetolerance="10"
     inkscape:pageopacity="0"
     inkscape:pageshadow="2"
     inkscape:window-width="1920"
     inkscape:window-height="1018"
     id="namedview5503"
     showgrid="false"
     inkscape:zoom="2.0551896"
     inkscape:cx="229.66251"
     inkscape:cy="93.422036"
     inkscape:window-x="-8"
     inkscape:window-y="-8"
     inkscape:window-maximized="1"
     inkscape:current-layer="Capa_1" /><g
     id="g5469"
     transform="matrix(0.03047951,0,0,0.03047951,2.0058155,1.9999816)"><path style="fill:#656564"
       d="m 459.319,229.668 c 0,22.201 -17.992,40.193 -40.205,40.193 l -149.264,0 0,149.271 c 0,22.207 -17.998,40.199 -40.196,40.193 -11.101,0 -21.149,-4.492 -28.416,-11.763 -7.276,-7.281 -11.774,-17.324 -11.769,-28.419 l -0.006,-149.288 -149.282,0 c -11.094,0 -21.134,-4.492 -28.416,-11.774 C 4.501,250.817 0.006,240.769 0.006,229.668 0,207.471 17.992,189.475 40.202,189.475 l 149.267,0 0,-149.273 C 189.469,17.998 207.471,0 229.671,0 c 22.192,0.006 40.178,17.986 40.19,40.187 l 0,149.288 149.282,0 c 22.196,0.012 40.165,17.996 40.176,40.193 z"
       id="path5471"
       inkscape:connector-curvature="0" /></g></svg>