<?xml version="1.0" encoding="UTF-8" standalone="no"?>
<!-- Generator: Adobe Illustrator 16.0.0, SVG Export Plug-In . SVG Version: 6.00 Build 0)  -->

<svg
   xmlns:dc="http://purl.org/dc/elements/1.1/"
   xmlns:cc="http://creativecommons.org/ns#"
   xmlns:rdf="http://www.w3.org/1999/02/22-rdf-syntax-ns#"
   xmlns:svg="http://www.w3.org/2000/svg"
   xmlns="http://www.w3.org/2000/svg"
   xmlns:sodipodi="http://sodipodi.sourceforge.net/DTD/sodipodi-0.dtd"
   xmlns:inkscape="http://www.inkscape.org/namespaces/inkscape"
   version="1.1"
   id="Capa_1"
   x="0px"
   y="0px"
   width="40"
   height="40"
   viewBox="0 0 39.999999 39.999999"
   xml:space="preserve"
   inkscape:version="0.92.4 (5da689c313, 2019-01-14)"
   sodipodi:docname="retake.svg"><metadata
     id="metadata4175"><rdf:RDF><cc:Work
         rdf:about=""><dc:format>image/svg+xml</dc:format><dc:type
           rdf:resource="http://purl.org/dc/dcmitype/StillImage" /><dc:title></dc:title></cc:Work></rdf:RDF></metadata><defs
     id="defs4173" /><sodipodi:namedview
     pagecolor="#ffffff"
     bordercolor="#666666"
     borderopacity="1"
     objecttolerance="10"
     gridtolerance="10"
     guidetolerance="10"
     inkscape:pageopacity="0"
     inkscape:pageshadow="2"
     inkscape:window-width="1920"
     inkscape:window-height="1017"
     id="namedview4171"
     showgrid="false"
     inkscape:zoom="4.9493379"
     inkscape:cx="134.20005"
     inkscape:cy="10.734601"
     inkscape:window-x="1912"
     inkscape:window-y="-8"
     inkscape:window-maximized="1"
     inkscape:current-layer="Capa_1"
     inkscape:pagecheckerboard="true" /><g
     id="g4141"
     transform="translate(0,-445.18301)" /><g
     id="g4143"
     transform="translate(0,-445.18301)" /><g
     id="g4145"
     transform="translate(0,-445.18301)" /><g
     id="g4147"
     transform="translate(0,-445.18301)"
     style="fill:none" /><g
     id="g4149"
     transform="translate(0,-445.18301)" /><g
     id="g4151"
     transform="translate(0,-445.18301)" /><g
     id="g4153"
     transform="translate(0,-445.18301)" /><g
     id="g4155"
     transform="translate(0,-445.18301)" /><g
     id="g4157"
     transform="translate(0,-445.18301)" /><g
     id="g4159"
     transform="translate(0,-445.18301)" /><g
     id="g4161"
     transform="translate(0,-445.18301)" /><g
     id="g4163"
     transform="translate(0,-445.18301)" /><g
     id="g4165"
     transform="translate(0,-445.18301)" /><g
     id="g4167"
     transform="translate(0,-445.18301)" /><g
     id="g4169"
     transform="translate(0,-445.18301)" /><path
     style="fill:#ffffff;stroke-width:0.08038221;fill-opacity:1"
     d="M 0 0 L 0 40 L 40 40 L 40 0 L 0 0 z M 21.21875 9.6367188 C 30.851655 9.6367188 38.72639 17.091427 39.431641 26.544922 C 38.743687 19.786753 33.03752 14.511719 26.09375 14.511719 C 20.157363 14.511719 15.13005 18.375631 13.367188 23.722656 L 20.001953 30.357422 L 0.5 30.357422 L 0.5 10.855469 L 6.6074219 16.964844 C 9.9426405 12.522682 15.236786 9.6367188 21.21875 9.6367188 z "
     id="path4139" /></svg>