<?xml version="1.0" encoding="UTF-8" standalone="no"?>
<!-- Generator: Adobe Illustrator 19.1.1, SVG Export Plug-In . SVG Version: 6.00 Build 0)  -->

<svg
   xmlns:dc="http://purl.org/dc/elements/1.1/"
   xmlns:cc="http://creativecommons.org/ns#"
   xmlns:rdf="http://www.w3.org/1999/02/22-rdf-syntax-ns#"
   xmlns:svg="http://www.w3.org/2000/svg"
   xmlns="http://www.w3.org/2000/svg"
   xmlns:sodipodi="http://sodipodi.sourceforge.net/DTD/sodipodi-0.dtd"
   xmlns:inkscape="http://www.inkscape.org/namespaces/inkscape"
   version="1.1"
   id="Layer_1"
   x="0px"
   y="0px"
   viewBox="238 -238 25 25"
   xml:space="preserve"
   inkscape:version="0.91 r13725"
   sodipodi:docname="text-search.svg"
   width="25"
   height="25"><metadata
     id="metadata3355"><rdf:RDF><cc:Work
         rdf:about=""><dc:format>image/svg+xml</dc:format><dc:type
           rdf:resource="http://purl.org/dc/dcmitype/StillImage" /><dc:title></dc:title></cc:Work></rdf:RDF></metadata><defs
     id="defs3353" /><sodipodi:namedview
     pagecolor="#ffffff"
     bordercolor="#666666"
     borderopacity="1"
     objecttolerance="10"
     gridtolerance="10"
     guidetolerance="10"
     inkscape:pageopacity="0"
     inkscape:pageshadow="2"
     inkscape:window-width="1920"
     inkscape:window-height="1018"
     id="namedview3351"
     showgrid="false"
     inkscape:zoom="5.3400704"
     inkscape:cx="130.14777"
     inkscape:cy="38.135593"
     inkscape:window-x="-8"
     inkscape:window-y="-8"
     inkscape:window-maximized="1"
     inkscape:current-layer="Layer_1" /><style
     type="text/css"
     id="style3347">
	.st0{fill:#818181;}
</style><path
     class="st0"
     d="m 239.48546,-228.0106 c 0,4.77137 3.85951,8.63078 8.63081,8.63078 1.67186,0 3.23521,-0.47772 4.55971,-1.30272 l 5.66156,5.66156 c 0.76537,0.7654 2.00841,0.7654 2.77384,0 0.76544,-0.76536 0.76544,-2.0084 0,-2.76839 l -5.66702,-5.66705 c 0.82505,-1.31902 1.30272,-2.88236 1.30272,-4.55968 0,-4.7713 -3.85943,-8.63081 -8.63081,-8.63081 -4.7713,0.006 -8.63081,3.86487 -8.63081,8.63631 z m 14.79179,0 c 0,3.4034 -2.76291,6.16635 -6.16637,6.16635 -3.40346,0 -6.16644,-2.76295 -6.16644,-6.16635 0,-3.40346 2.76298,-6.16648 6.16644,-6.16648 3.40346,0 6.16637,2.76302 6.16637,6.16648 z"
     id="path3349"
     inkscape:connector-curvature="0"
     style="fill:#818181" /></svg>