<?xml version="1.0" encoding="UTF-8" standalone="no"?>
<!-- Created with Inkscape (http://www.inkscape.org/) -->

<svg
   xmlns:dc="http://purl.org/dc/elements/1.1/"
   xmlns:cc="http://creativecommons.org/ns#"
   xmlns:rdf="http://www.w3.org/1999/02/22-rdf-syntax-ns#"
   xmlns:svg="http://www.w3.org/2000/svg"
   xmlns="http://www.w3.org/2000/svg"
   xmlns:sodipodi="http://sodipodi.sourceforge.net/DTD/sodipodi-0.dtd"
   xmlns:inkscape="http://www.inkscape.org/namespaces/inkscape"
   width="24"
   height="24"
   viewBox="0 0 24 24"
   id="svg2"
   version="1.1"
   inkscape:version="0.91 r13725"
   sodipodi:docname="tip.svg">
  <defs
     id="defs4" />
  <sodipodi:namedview
     id="base"
     pagecolor="#ffffff"
     bordercolor="#666666"
     borderopacity="1.0"
     inkscape:pageopacity="0.0"
     inkscape:pageshadow="2"
     inkscape:zoom="15.839192"
     inkscape:cx="41.20607"
     inkscape:cy="0.29729323"
     inkscape:document-units="px"
     inkscape:current-layer="g4177"
     showgrid="false"
     units="px"
     inkscape:window-width="1920"
     inkscape:window-height="1058"
     inkscape:window-x="-8"
     inkscape:window-y="-8"
     inkscape:window-maximized="1" />
  <metadata
     id="metadata7">
    <rdf:RDF>
      <cc:Work
         rdf:about="">
        <dc:format>image/svg+xml</dc:format>
        <dc:type
           rdf:resource="http://purl.org/dc/dcmitype/StillImage" />
        <dc:title></dc:title>
      </cc:Work>
    </rdf:RDF>
  </metadata>
  <g
     inkscape:label="Layer 1"
     inkscape:groupmode="layer"
     id="layer1"
     transform="translate(0,-1028.3622)">
    <g
       id="g4177"
       transform="matrix(0.67724868,0,0,0.67724868,0.04191988,1036.4391)">
      <g
         id="g4141" />
      <g
         id="g4143" />
      <g
         id="g4145" />
      <g
         id="g4147" />
      <g
         id="g4149" />
      <g
         id="g4151" />
      <g
         id="g4153" />
      <g
         id="g4155" />
      <g
         id="g4157" />
      <g
         id="g4159" />
      <g
         id="g4161" />
      <g
         id="g4163" />
      <g
         id="g4165" />
      <g
         id="g4167" />
      <g
         id="g4169" />
      <g
         id="g4264"
         transform="matrix(0.66863207,0,0,0.66863207,-0.10063936,-11.884559)"
         inkscape:transform-center-x="322.94475"
         inkscape:transform-center-y="-162.73588">
        <path
           id="path4206"
           d="m 26.5,9 c -8.837,0 -16,7.164 -16,16 0,7.089 4.615,13.091 11,15.192 l 0,9.808 2,0 0,3 6,0 0,-3 2,0 0,-9.808 c 6.385,-2.101 11,-8.103 11,-15.192 0,-8.836 -7.163,-16 -16,-16 z"
           style="fill:#efce4a"
           inkscape:connector-curvature="0" />
        <g
           id="g4208">
          <path
             id="path4210"
             d="m 26.5,0 c -0.553,0 -1,0.447 -1,1 l 0,4 c 0,0.553 0.447,1 1,1 0.553,0 1,-0.447 1,-1 l 0,-4 c 0,-0.553 -0.447,-1 -1,-1 z"
             style="fill:#efce4a"
             inkscape:connector-curvature="0" />
          <path
             id="path4212"
             d="m 50.5,24 -4,0 c -0.553,0 -1,0.447 -1,1 0,0.553 0.447,1 1,1 l 4,0 c 0.553,0 1,-0.447 1,-1 0,-0.553 -0.447,-1 -1,-1 z"
             style="fill:#efce4a"
             inkscape:connector-curvature="0" />
          <path
             id="path4214"
             d="m 6.5,24 -4,0 c -0.553,0 -1,0.447 -1,1 0,0.553 0.447,1 1,1 l 4,0 c 0.553,0 1,-0.447 1,-1 0,-0.553 -0.447,-1 -1,-1 z"
             style="fill:#efce4a"
             inkscape:connector-curvature="0" />
          <path
             id="path4216"
             d="m 42.764,7.322 -2.828,2.828 c -0.391,0.391 -0.391,1.023 0,1.414 0.195,0.195 0.451,0.293 0.707,0.293 0.256,0 0.512,-0.098 0.707,-0.293 l 2.828,-2.828 c 0.391,-0.391 0.391,-1.023 0,-1.414 -0.391,-0.391 -1.024,-0.39 -1.414,0 z"
             style="fill:#efce4a"
             inkscape:connector-curvature="0" />
          <path
             id="path4218"
             d="m 11.65,38.436 -2.828,2.828 c -0.391,0.391 -0.391,1.023 0,1.414 0.195,0.195 0.451,0.293 0.707,0.293 0.256,0 0.512,-0.098 0.707,-0.293 l 2.828,-2.828 c 0.391,-0.391 0.391,-1.023 0,-1.414 -0.391,-0.391 -1.023,-0.391 -1.414,0 z"
             style="fill:#efce4a"
             inkscape:connector-curvature="0" />
          <path
             id="path4220"
             d="m 41.35,38.436 c -0.391,-0.391 -1.023,-0.391 -1.414,0 -0.391,0.391 -0.391,1.023 0,1.414 l 2.828,2.828 c 0.195,0.195 0.451,0.293 0.707,0.293 0.256,0 0.512,-0.098 0.707,-0.293 0.391,-0.391 0.391,-1.023 0,-1.414 L 41.35,38.436 Z"
             style="fill:#efce4a"
             inkscape:connector-curvature="0" />
          <path
             id="path4222"
             d="m 10.236,7.322 c -0.391,-0.391 -1.023,-0.391 -1.414,0 -0.391,0.391 -0.391,1.023 0,1.414 l 2.828,2.828 c 0.195,0.195 0.451,0.293 0.707,0.293 0.256,0 0.512,-0.098 0.707,-0.293 0.391,-0.391 0.391,-1.023 0,-1.414 L 10.236,7.322 Z"
             style="fill:#efce4a"
             inkscape:connector-curvature="0" />
        </g>
        <path
           id="path4224"
           d="m 15.5,26 c -0.553,0 -1,-0.447 -1,-1 0,-6.617 5.383,-12 12,-12 0.553,0 1,0.447 1,1 0,0.553 -0.447,1 -1,1 -5.514,0 -10,4.486 -10,10 0,0.553 -0.447,1 -1,1 z"
           style="fill:#f7e6a1"
           inkscape:connector-curvature="0" />
        <polygon
           id="polygon4226"
           points="23.5,50 23.5,53 29.5,53 29.5,50 31.5,50 31.5,43 21.5,43 21.5,50 "
           style="fill:#556080" />
        <g
           id="g4228" />
        <g
           id="g4230" />
        <g
           id="g4232" />
        <g
           id="g4234" />
        <g
           id="g4236" />
        <g
           id="g4238" />
        <g
           id="g4240" />
        <g
           id="g4242" />
        <g
           id="g4244" />
        <g
           id="g4246" />
        <g
           id="g4248" />
        <g
           id="g4250" />
        <g
           id="g4252" />
        <g
           id="g4254" />
        <g
           id="g4256" />
      </g>
    </g>
  </g>
</svg>
