<?xml version="1.0" encoding="UTF-8" standalone="no"?>
<!-- Created with Inkscape (http://www.inkscape.org/) -->

<svg
   xmlns:dc="http://purl.org/dc/elements/1.1/"
   xmlns:cc="http://creativecommons.org/ns#"
   xmlns:rdf="http://www.w3.org/1999/02/22-rdf-syntax-ns#"
   xmlns:svg="http://www.w3.org/2000/svg"
   xmlns="http://www.w3.org/2000/svg"
   xmlns:sodipodi="http://sodipodi.sourceforge.net/DTD/sodipodi-0.dtd"
   xmlns:inkscape="http://www.inkscape.org/namespaces/inkscape"
   width="24"
   height="24"
   viewBox="0 0 6.35 6.35"
   version="1.1"
   id="svg8"
   inkscape:version="0.92.4 (5da689c313, 2019-01-14)"
   sodipodi:docname="touch.svg">
  <defs
     id="defs2" />
  <sodipodi:namedview
     id="base"
     pagecolor="#ffffff"
     bordercolor="#666666"
     borderopacity="1.0"
     inkscape:pageopacity="0.0"
     inkscape:pageshadow="2"
     inkscape:zoom="11.313708"
     inkscape:cx="29.295492"
     inkscape:cy="13.538779"
     inkscape:document-units="mm"
     inkscape:current-layer="layer1"
     showgrid="false"
     units="px"
     inkscape:pagecheckerboard="false"
     inkscape:window-width="1920"
     inkscape:window-height="1017"
     inkscape:window-x="1912"
     inkscape:window-y="-8"
     inkscape:window-maximized="1" />
  <metadata
     id="metadata5">
    <rdf:RDF>
      <cc:Work
         rdf:about="">
        <dc:format>image/svg+xml</dc:format>
        <dc:type
           rdf:resource="http://purl.org/dc/dcmitype/StillImage" />
        <dc:title></dc:title>
      </cc:Work>
    </rdf:RDF>
  </metadata>
  <g
     inkscape:label="Layer 1"
     inkscape:groupmode="layer"
     id="layer1"
     transform="translate(0,-290.64998)">
    <g
       id="g1028"
       transform="matrix(0.00956998,0,0,0.00956998,0.79587247,291.51251)">
      <path
         style="stroke-width:0.03617;fill:#eeeeee;fill-opacity:1"
         d="M 0 0 L 0 24 L 24 24 L 24 0 L 0 0 z M 11.197266 3.2597656 C 13.960147 3.2597656 16.208984 5.5086025 16.208984 8.2714844 C 16.208984 8.5711167 15.965648 8.8125 15.666016 8.8125 C 15.366383 8.8125 15.123047 8.5711167 15.123047 8.2714844 C 15.123047 6.1069267 13.361859 4.3457031 11.197266 4.3457031 C 9.0326718 4.3457031 7.2714844 6.1069267 7.2714844 8.2714844 C 7.2714844 8.5711167 7.0301011 8.8125 6.7304688 8.8125 C 6.4308364 8.8125 6.1875 8.5711167 6.1875 8.2714844 C 6.1875 5.5086025 8.4343838 3.2597656 11.197266 3.2597656 z M 11.267578 5.0683594 C 13.033144 5.0683594 14.470703 6.505918 14.470703 8.2714844 C 14.470703 8.5711167 14.227367 8.8125 13.927734 8.8125 C 13.628102 8.8125 13.384766 8.5711167 13.384766 8.2714844 C 13.384766 7.1042422 12.43482 6.1542969 11.267578 6.1542969 C 10.100336 6.1542969 9.1523437 7.1042422 9.1523438 8.2714844 C 9.1523438 8.5711167 8.9090073 8.8125 8.609375 8.8125 C 8.3097427 8.8125 8.0664063 8.5711167 8.0664062 8.2714844 C 8.0664062 6.505918 9.5020118 5.0683594 11.267578 5.0683594 z M 11.28125 8.2714844 C 11.795262 8.2714844 12.210938 8.6871238 12.210938 9.2011719 L 12.210938 12.662109 C 12.210938 12.148097 12.62853 11.732422 13.142578 11.732422 C 13.65659 11.732422 14.072266 12.148061 14.072266 12.662109 L 14.072266 12.939453 C 14.072266 12.425441 14.489858 12.009766 15.003906 12.009766 C 15.517918 12.009766 15.933594 12.425405 15.933594 12.939453 L 15.933594 13.054688 C 15.933594 12.531488 16.35766 12.107422 16.880859 12.107422 C 17.404058 12.107422 17.828125 12.531488 17.828125 13.054688 L 17.828125 16.380859 L 17.828125 17.519531 C 17.828125 19.584802 16.155079 21.259766 14.089844 21.259766 C 12.843208 21.259766 11.738047 20.650706 11.058594 19.712891 C 10.88798 19.477388 10.71937 19.241398 10.541016 19.011719 L 7.234375 14.753906 C 6.9191173 14.347934 6.9924654 13.76256 7.3984375 13.447266 C 7.8044096 13.132008 8.3897842 13.205356 8.7050781 13.611328 L 10.349609 15.730469 L 10.349609 15.384766 L 10.349609 12.716797 L 10.349609 9.2011719 C 10.349609 8.68716 10.767238 8.2714844 11.28125 8.2714844 z "
         transform="matrix(27.647219,0,0,27.647219,-83.163441,-90.128715)"
         id="XMLID_4_" />
    </g>
    <g
       id="g4826"
       transform="matrix(0.00775146,0,0,0.00775146,-57.558117,357.88721)">
      <g
         id="g4769">
	<g
   id="g4767">
		<path
   id="path4765"
   d="M 481.635,331.406 424.74,217.635 c -7.719,-15.448 -22.521,-26.24 -39.583,-28.865 L 271.772,171.322 h -0.01 c -23.458,-3.573 -47.052,8.083 -58.406,28.865 L 178.497,130.462 C 187.184,116.771 192,101.376 192,85.333 192,38.281 153.719,0 106.667,0 59.615,0 21.333,38.281 21.333,85.333 c 0,44.674 34.626,81.029 78.388,84.632 l 99.299,198.598 c 2.406,4.802 0.479,8.854 -0.469,10.375 -0.938,1.521 -3.698,5.063 -9.073,5.063 H 100.551 C 80.396,384 64,400.396 64,420.552 c 0,5.635 1.333,11.292 3.854,16.354 l 7.938,15.865 c 1.302,2.594 3.594,4.542 6.365,5.406 l 150.667,47.083 c 14.292,4.469 29.135,6.74 44.115,6.74 22.844,0 45.719,-5.396 66.135,-15.615 L 443.355,446.25 c 29.188,-14.583 47.313,-43.927 47.313,-76.563 -0.001,-13.208 -3.126,-26.447 -9.033,-38.281 z M 166.697,106.865 146.657,66.782 C 139.219,51.907 124.261,42.667 107.626,42.667 83.573,42.667 64,62.24 64,88.219 c 0,6.75 1.594,13.5 4.604,19.51 l 19.224,38.449 c -26.06,-8.1 -45.161,-32.154 -45.161,-60.845 0,-35.292 28.708,-64 64,-64 35.292,0 64,28.708 64,64 0,7.405 -1.421,14.633 -3.97,21.532 z"
   inkscape:connector-curvature="0" />

	</g>

</g>
      <g
         id="g4771">
</g>
      <g
         id="g4773">
</g>
      <g
         id="g4775">
</g>
      <g
         id="g4777">
</g>
      <g
         id="g4779">
</g>
      <g
         id="g4781">
</g>
      <g
         id="g4783">
</g>
      <g
         id="g4785">
</g>
      <g
         id="g4787">
</g>
      <g
         id="g4789">
</g>
      <g
         id="g4791">
</g>
      <g
         id="g4793">
</g>
      <g
         id="g4795">
</g>
      <g
         id="g4797">
</g>
      <g
         id="g4799">
</g>
    </g>
  </g>
</svg>
