<?xml version="1.0" encoding="UTF-8" standalone="no"?>
<!-- Generator: Adobe Illustrator 19.0.0, SVG Export Plug-In . SVG Version: 6.00 Build 0)  -->

<svg
   xmlns:dc="http://purl.org/dc/elements/1.1/"
   xmlns:cc="http://creativecommons.org/ns#"
   xmlns:rdf="http://www.w3.org/1999/02/22-rdf-syntax-ns#"
   xmlns:svg="http://www.w3.org/2000/svg"
   xmlns="http://www.w3.org/2000/svg"
   xmlns:sodipodi="http://sodipodi.sourceforge.net/DTD/sodipodi-0.dtd"
   xmlns:inkscape="http://www.inkscape.org/namespaces/inkscape"
   version="1.1"
   id="Capa_1"
   x="0px"
   y="0px"
   viewBox="0 0 13 13"
   xml:space="preserve"
   inkscape:version="0.91 r13725"
   sodipodi:docname="visible.svg"
   width="13"
   height="13"><metadata
     id="metadata4175"><rdf:RDF><cc:Work
         rdf:about=""><dc:format>image/svg+xml</dc:format><dc:type
           rdf:resource="http://purl.org/dc/dcmitype/StillImage" /><dc:title></dc:title></cc:Work></rdf:RDF></metadata><defs
     id="defs4173" /><sodipodi:namedview
     pagecolor="#ffffff"
     bordercolor="#666666"
     borderopacity="1"
     objecttolerance="10"
     gridtolerance="10"
     guidetolerance="10"
     inkscape:pageopacity="0"
     inkscape:pageshadow="2"
     inkscape:window-width="1920"
     inkscape:window-height="1058"
     id="namedview4171"
     showgrid="false"
     inkscape:zoom="9.824423"
     inkscape:cx="57.516228"
     inkscape:cy="-22.562627"
     inkscape:window-x="-8"
     inkscape:window-y="-8"
     inkscape:window-maximized="1"
     inkscape:current-layer="Capa_1" /><g
     id="g4137"
     transform="matrix(0.02659302,0,0,0.02659302,0.06685932,0.09309688)"
     style="fill:#646464;fill-opacity:1"><path
       d="m 244.425,98.725 c -93.4,0 -178.1,51.1 -240.6,134.1 -5.1,6.8 -5.1,16.3 0,23.1 62.5,83.1 147.2,134.2 240.6,134.2 93.4,0 178.1,-51.1 240.6,-134.1 5.1,-6.8 5.1,-16.3 0,-23.1 -62.5,-83.1 -147.2,-134.2 -240.6,-134.2 z m 6.7,248.3 c -62,3.9 -113.2,-47.2 -109.3,-109.3 3.2,-51.2 44.7,-92.7 95.9,-95.9 62,-3.9 113.2,47.2 109.3,109.3 -3.3,51.1 -44.8,92.6 -95.9,95.9 z m -3.1,-47.4 c -33.4,2.1 -61,-25.4 -58.8,-58.8 1.7,-27.6 24.1,-49.9 51.7,-51.7 33.4,-2.1 61,25.4 58.8,58.8 -1.8,27.7 -24.2,50 -51.7,51.7 z"
       id="path4139"
       inkscape:connector-curvature="0"
       style="fill:#646464;fill-opacity:1" /></g><g
     id="g4141"
     transform="translate(0,-475.85001)" /><g
     id="g4143"
     transform="translate(0,-475.85001)" /><g
     id="g4145"
     transform="translate(0,-475.85001)" /><g
     id="g4147"
     transform="translate(0,-475.85001)" /><g
     id="g4149"
     transform="translate(0,-475.85001)" /><g
     id="g4151"
     transform="translate(0,-475.85001)" /><g
     id="g4153"
     transform="translate(0,-475.85001)" /><g
     id="g4155"
     transform="translate(0,-475.85001)" /><g
     id="g4157"
     transform="translate(0,-475.85001)" /><g
     id="g4159"
     transform="translate(0,-475.85001)" /><g
     id="g4161"
     transform="translate(0,-475.85001)" /><g
     id="g4163"
     transform="translate(0,-475.85001)" /><g
     id="g4165"
     transform="translate(0,-475.85001)" /><g
     id="g4167"
     transform="translate(0,-475.85001)" /><g
     id="g4169"
     transform="translate(0,-475.85001)" /></svg>