<?xml version="1.0" encoding="UTF-8" standalone="no"?>
<!-- Generator: Adobe Illustrator 19.1.1, SVG Export Plug-In . SVG Version: 6.00 Build 0)  -->

<svg
   xmlns:dc="http://purl.org/dc/elements/1.1/"
   xmlns:cc="http://creativecommons.org/ns#"
   xmlns:rdf="http://www.w3.org/1999/02/22-rdf-syntax-ns#"
   xmlns:svg="http://www.w3.org/2000/svg"
   xmlns="http://www.w3.org/2000/svg"
   xmlns:sodipodi="http://sodipodi.sourceforge.net/DTD/sodipodi-0.dtd"
   xmlns:inkscape="http://www.inkscape.org/namespaces/inkscape"
   version="1.1"
   id="Layer_1"
   x="0px"
   y="0px"
   viewBox="244 -244 20 20"
   xml:space="preserve"
   inkscape:version="0.91 r13725"
   sodipodi:docname="zoom-grey.svg"
   width="20"
   height="20"><metadata
     id="metadata4145"><rdf:RDF><cc:Work
         rdf:about=""><dc:format>image/svg+xml</dc:format><dc:type
           rdf:resource="http://purl.org/dc/dcmitype/StillImage" /><dc:title></dc:title></cc:Work></rdf:RDF></metadata><defs
     id="defs4143" /><sodipodi:namedview
     pagecolor="#ffffff"
     bordercolor="#666666"
     borderopacity="1"
     objecttolerance="10"
     gridtolerance="10"
     guidetolerance="10"
     inkscape:pageopacity="0"
     inkscape:pageshadow="2"
     inkscape:window-width="1920"
     inkscape:window-height="1018"
     id="namedview4141"
     showgrid="false"
     inkscape:zoom="1.6582031"
     inkscape:cx="256"
     inkscape:cy="256"
     inkscape:window-x="-8"
     inkscape:window-y="-8"
     inkscape:window-maximized="1"
     inkscape:current-layer="Layer_1" /><style
     type="text/css"
     id="style4137">
	.st0{fill:#535353;}
</style><path
     class="st0"
     d="m 263.44874,-224.55077 c -0.73435,0.73436 -1.92183,0.73436 -2.65618,0 l -3.31633,-3.31242 c -1.36325,0.87498 -2.97258,1.3945 -4.71473,1.3945 -4.83581,0 -8.7615,-3.92568 -8.7615,-8.76541 0,-4.83973 3.92569,-8.76541 8.76541,-8.76541 4.83973,0 8.76541,3.92568 8.76541,8.76541 0,1.73824 -0.52342,3.35148 -1.3945,4.71473 l 3.31633,3.31242 c 0.73045,0.73435 0.73045,1.92183 -0.004,2.65618 z m -10.68333,-16.9449 c -3.45695,0 -6.26157,2.80462 -6.26157,6.26157 0,3.45695 2.80462,6.26157 6.26157,6.26157 3.45695,0 6.26157,-2.80072 6.26157,-6.26157 0,-3.45695 -2.80462,-6.26157 -6.26157,-6.26157 z m 1.24997,10.01538 -2.50385,0 0,-2.50384 -2.50384,0 0,-2.50385 2.50384,0 0,-2.50384 2.50385,0 0,2.50384 2.50384,0 0,2.50385 -2.50384,0 0,2.50384 0,0 z"
     id="path4139"
     inkscape:connector-curvature="0"
     style="fill:#535353" /></svg>