<?xml version="1.0" encoding="utf-8"?>
<!-- Generator: Adobe Illustrator 19.1.1, SVG Export Plug-In . SVG Version: 6.00 Build 0)  -->
<svg version="1.1" id="Layer_1" xmlns="http://www.w3.org/2000/svg" xmlns:xlink="http://www.w3.org/1999/xlink" x="0px" y="0px"
	 viewBox="244 -244 512 512" style="enable-background:new 244 -244 512 512;" xml:space="preserve">
<style type="text/css">
	.st0{fill:#d8d8d8;}
</style>
<path class="st0" d="M741.9,253.9c-18.8,18.8-49.2,18.8-68,0L589,169.1c-34.9,22.4-76.1,35.7-120.7,35.7
	C344.5,204.8,244,104.3,244-19.6S344.5-244,468.4-244c123.9,0,224.4,100.5,224.4,224.4c0,44.5-13.4,85.8-35.7,120.7l84.9,84.8
	C760.7,204.7,760.7,235.1,741.9,253.9z M468.4-179.9c-88.5,0-160.3,71.8-160.3,160.3c0,88.5,71.8,160.3,160.3,160.3
	c88.5,0,160.3-71.7,160.3-160.3C628.7-108.1,556.9-179.9,468.4-179.9z M500.4,76.5h-64.1V12.4h-64.1v-64.1h64.1v-64.1h64.1v64.1
	h64.1v64.1h-64.1L500.4,76.5L500.4,76.5z"/>
</svg>
